<svg width="1920" height="766" viewBox="0 0 1920 766" fill="none" xmlns="http://www.w3.org/2000/svg">
<path d="M1920 0H0V766H1920V0Z" fill="#F8D7F0"/>
<g clip-path="url(#clip0)">
<path opacity="0.7" d="M98.4738 388.465C101.72 374.717 93.2065 360.939 79.4577 357.693C65.7088 354.446 51.9314 362.96 48.6849 376.709C45.4384 390.458 53.9523 404.235 67.7011 407.482C81.4499 410.728 95.2274 402.214 98.4738 388.465Z" fill="#38AF7E"/>
<path d="M66.2402 382.52L80.9302 369.05" stroke="#EDEDED" stroke-width="4" stroke-miterlimit="10" stroke-linecap="round" stroke-linejoin="round"/>
<path d="M80.9302 396.11L66.2402 382.65" stroke="#EDEDED" stroke-width="4" stroke-miterlimit="10" stroke-linecap="round" stroke-linejoin="round"/>
</g>
<g clip-path="url(#clip1)">
<path opacity="0.7" d="M1822.7 376.535C1819.45 390.283 1827.96 404.061 1841.71 407.307C1855.46 410.554 1869.24 402.04 1872.48 388.291C1875.73 374.542 1867.22 360.765 1853.47 357.518C1839.72 354.272 1825.94 362.786 1822.7 376.535Z" fill="#38AF7E"/>
<path d="M1854.93 382.48L1840.24 395.95" stroke="#EDEDED" stroke-width="4" stroke-miterlimit="10" stroke-linecap="round" stroke-linejoin="round"/>
<path d="M1840.24 368.89L1854.93 382.35" stroke="#EDEDED" stroke-width="4" stroke-miterlimit="10" stroke-linecap="round" stroke-linejoin="round"/>
</g>
<path d="M1582.83 176.318C1585.9 174.211 1587.92 170.712 1587.92 166.75C1587.92 161.524 1584.41 157.098 1579.59 155.614C1579.6 155.395 1579.61 155.176 1579.61 154.957C1579.61 149.081 1574.76 144.318 1568.78 144.318C1568.05 144.318 1567.34 144.394 1566.65 144.529C1566.64 138.712 1563 134 1558.5 134C1554.06 134 1550.45 138.603 1550.36 144.318C1550.36 144.318 1550.36 144.318 1550.35 144.318C1544.37 144.318 1539.52 149.081 1539.52 154.957C1539.52 155.1 1539.53 155.252 1539.53 155.395C1534.28 156.609 1530.38 161.229 1530.38 166.75C1530.38 170.459 1532.15 173.764 1534.91 175.905C1530.59 178.24 1528 181.224 1528 184.478C1528 191.947 1541.65 198 1558.5 198C1575.34 198 1589 191.947 1589 184.478C1589 181.41 1586.7 178.586 1582.83 176.318Z" fill="#E5CC61"/>
<path d="M1558.84 182.258C1559.06 181.276 1560.11 181.276 1560.32 182.258L1564.46 201.198L1569.05 222.22C1569.19 222.875 1568.82 223.521 1568.31 223.521H1559.58H1550.85C1550.34 223.521 1549.97 222.875 1550.11 222.22L1554.7 201.198L1558.84 182.258Z" fill="#D17A39"/>
<path d="M1081.44 383H1076.76V365.684H1057.72V383H1053.04V345.872H1057.72V361.576H1076.76V345.872H1081.44V383ZM1109.32 354.66C1112.72 354.66 1115.23 355.405 1116.86 356.896C1118.49 358.387 1119.3 360.761 1119.3 364.02V383H1115.97L1115.09 379.048H1114.88C1113.67 380.573 1112.39 381.7 1111.03 382.428C1109.72 383.156 1107.88 383.52 1105.52 383.52C1102.99 383.52 1100.89 382.861 1099.23 381.544C1097.57 380.192 1096.73 378.095 1096.73 375.252C1096.73 372.479 1097.83 370.347 1100.01 368.856C1102.19 367.331 1105.56 366.499 1110.1 366.36L1114.83 366.204V364.54C1114.83 362.217 1114.33 360.605 1113.32 359.704C1112.32 358.803 1110.9 358.352 1109.06 358.352C1107.6 358.352 1106.22 358.577 1104.9 359.028C1103.58 359.444 1102.35 359.929 1101.21 360.484L1099.8 357.052C1101.02 356.393 1102.45 355.839 1104.12 355.388C1105.78 354.903 1107.52 354.66 1109.32 354.66ZM1110.67 369.532C1107.2 369.671 1104.79 370.225 1103.44 371.196C1102.13 372.167 1101.47 373.536 1101.47 375.304C1101.47 376.864 1101.93 378.008 1102.87 378.736C1103.84 379.464 1105.07 379.828 1106.56 379.828C1108.92 379.828 1110.88 379.187 1112.44 377.904C1114 376.587 1114.78 374.576 1114.78 371.872V369.376L1110.67 369.532ZM1141.85 383L1131.29 355.128H1136.18L1142.11 371.56C1142.38 372.323 1142.68 373.172 1142.99 374.108C1143.3 375.044 1143.58 375.945 1143.82 376.812C1144.07 377.644 1144.24 378.355 1144.34 378.944H1144.55C1144.69 378.355 1144.88 377.627 1145.12 376.76C1145.4 375.893 1145.7 374.992 1146.01 374.056C1146.35 373.12 1146.65 372.288 1146.89 371.56L1152.82 355.128H1157.71L1147.1 383H1141.85ZM1180.68 354.608C1183.07 354.608 1185.12 355.128 1186.82 356.168C1188.55 357.208 1189.87 358.681 1190.77 360.588C1191.71 362.46 1192.17 364.661 1192.17 367.192V369.948H1173.09C1173.16 373.103 1173.96 375.512 1175.48 377.176C1177.04 378.805 1179.21 379.62 1181.98 379.62C1183.75 379.62 1185.31 379.464 1186.66 379.152C1188.05 378.805 1189.47 378.32 1190.93 377.696V381.7C1189.5 382.324 1188.1 382.775 1186.71 383.052C1185.33 383.364 1183.68 383.52 1181.77 383.52C1179.14 383.52 1176.8 382.983 1174.75 381.908C1172.74 380.833 1171.17 379.239 1170.02 377.124C1168.91 374.975 1168.36 372.357 1168.36 369.272C1168.36 366.221 1168.86 363.604 1169.87 361.42C1170.91 359.236 1172.34 357.555 1174.18 356.376C1176.05 355.197 1178.22 354.608 1180.68 354.608ZM1180.63 358.352C1178.45 358.352 1176.71 359.063 1175.43 360.484C1174.18 361.871 1173.44 363.812 1173.19 366.308H1187.39C1187.35 363.951 1186.8 362.044 1185.73 360.588C1184.65 359.097 1182.95 358.352 1180.63 358.352ZM1241.02 354.66C1244.41 354.66 1246.93 355.405 1248.56 356.896C1250.18 358.387 1251 360.761 1251 364.02V383H1247.67L1246.79 379.048H1246.58C1245.37 380.573 1244.08 381.7 1242.73 382.428C1241.41 383.156 1239.58 383.52 1237.22 383.52C1234.69 383.52 1232.59 382.861 1230.93 381.544C1229.26 380.192 1228.43 378.095 1228.43 375.252C1228.43 372.479 1229.52 370.347 1231.71 368.856C1233.89 367.331 1237.25 366.499 1241.8 366.36L1246.53 366.204V364.54C1246.53 362.217 1246.02 360.605 1245.02 359.704C1244.01 358.803 1242.59 358.352 1240.76 358.352C1239.3 358.352 1237.91 358.577 1236.6 359.028C1235.28 359.444 1234.05 359.929 1232.9 360.484L1231.5 357.052C1232.71 356.393 1234.15 355.839 1235.82 355.388C1237.48 354.903 1239.21 354.66 1241.02 354.66ZM1242.37 369.532C1238.9 369.671 1236.49 370.225 1235.14 371.196C1233.82 372.167 1233.16 373.536 1233.16 375.304C1233.16 376.864 1233.63 378.008 1234.57 378.736C1235.54 379.464 1236.77 379.828 1238.26 379.828C1240.62 379.828 1242.58 379.187 1244.14 377.904C1245.7 376.587 1246.48 374.576 1246.48 371.872V369.376L1242.37 369.532ZM1300.68 354.608C1302.51 354.608 1304.16 354.955 1305.62 355.648C1307.11 356.341 1308.37 357.399 1309.41 358.82H1309.67L1310.3 355.128H1313.94V383.468C1313.94 387.455 1312.91 390.453 1310.87 392.464C1308.86 394.475 1305.72 395.48 1301.46 395.48C1297.37 395.48 1294.02 394.891 1291.42 393.712V389.5C1294.16 390.956 1297.59 391.684 1301.72 391.684C1304.11 391.684 1305.98 390.973 1307.33 389.552C1308.72 388.165 1309.41 386.259 1309.41 383.832V382.74C1309.41 382.324 1309.43 381.735 1309.47 380.972C1309.5 380.175 1309.53 379.62 1309.57 379.308H1309.36C1307.49 382.116 1304.61 383.52 1300.73 383.52C1297.12 383.52 1294.3 382.255 1292.25 379.724C1290.24 377.193 1289.24 373.657 1289.24 369.116C1289.24 364.679 1290.24 361.16 1292.25 358.56C1294.3 355.925 1297.11 354.608 1300.68 354.608ZM1301.3 358.456C1298.98 358.456 1297.18 359.392 1295.89 361.264C1294.61 363.101 1293.97 365.736 1293.97 369.168C1293.97 372.6 1294.59 375.235 1295.84 377.072C1297.12 378.875 1298.98 379.776 1301.41 379.776C1304.21 379.776 1306.26 379.031 1307.54 377.54C1308.82 376.015 1309.47 373.571 1309.47 370.208V369.116C1309.47 365.303 1308.81 362.581 1307.49 360.952C1306.17 359.288 1304.11 358.456 1301.3 358.456ZM1354.82 369.012C1354.82 373.623 1353.64 377.193 1351.29 379.724C1348.96 382.255 1345.81 383.52 1341.82 383.52C1339.36 383.52 1337.16 382.965 1335.22 381.856C1333.31 380.712 1331.8 379.065 1330.69 376.916C1329.58 374.732 1329.03 372.097 1329.03 369.012C1329.03 364.401 1330.19 360.848 1332.51 358.352C1334.84 355.856 1337.99 354.608 1341.98 354.608C1344.51 354.608 1346.73 355.18 1348.63 356.324C1350.57 357.433 1352.08 359.063 1353.16 361.212C1354.27 363.327 1354.82 365.927 1354.82 369.012ZM1333.76 369.012C1333.76 372.305 1334.4 374.923 1335.69 376.864C1337 378.771 1339.08 379.724 1341.93 379.724C1344.73 379.724 1346.8 378.771 1348.11 376.864C1349.43 374.923 1350.09 372.305 1350.09 369.012C1350.09 365.719 1349.43 363.136 1348.11 361.264C1346.8 359.392 1344.72 358.456 1341.87 358.456C1339.03 358.456 1336.97 359.392 1335.69 361.264C1334.4 363.136 1333.76 365.719 1333.76 369.012ZM1394.11 369.012C1394.11 373.623 1392.93 377.193 1390.57 379.724C1388.25 382.255 1385.09 383.52 1381.11 383.52C1378.64 383.52 1376.44 382.965 1374.5 381.856C1372.6 380.712 1371.09 379.065 1369.98 376.916C1368.87 374.732 1368.31 372.097 1368.31 369.012C1368.31 364.401 1369.48 360.848 1371.8 358.352C1374.12 355.856 1377.28 354.608 1381.26 354.608C1383.79 354.608 1386.01 355.18 1387.92 356.324C1389.86 357.433 1391.37 359.063 1392.44 361.212C1393.55 363.327 1394.11 365.927 1394.11 369.012ZM1373.05 369.012C1373.05 372.305 1373.69 374.923 1374.97 376.864C1376.29 378.771 1378.37 379.724 1381.21 379.724C1384.02 379.724 1386.08 378.771 1387.4 376.864C1388.72 374.923 1389.37 372.305 1389.37 369.012C1389.37 365.719 1388.72 363.136 1387.4 361.264C1386.08 359.392 1384 358.456 1381.16 358.456C1378.32 358.456 1376.25 359.392 1374.97 361.264C1373.69 363.136 1373.05 365.719 1373.05 369.012ZM1419.04 383.52C1415.57 383.52 1412.8 382.324 1410.72 379.932C1408.64 377.505 1407.6 373.9 1407.6 369.116C1407.6 364.332 1408.64 360.727 1410.72 358.3C1412.83 355.839 1415.62 354.608 1419.09 354.608C1421.24 354.608 1422.99 355.007 1424.34 355.804C1425.73 356.601 1426.86 357.572 1427.72 358.716H1428.03C1428 358.265 1427.93 357.607 1427.83 356.74C1427.76 355.839 1427.72 355.128 1427.72 354.608V343.48H1432.3V383H1428.61L1427.93 379.256H1427.72C1426.89 380.435 1425.78 381.44 1424.39 382.272C1423.01 383.104 1421.22 383.52 1419.04 383.52ZM1419.77 379.724C1422.71 379.724 1424.78 378.927 1425.95 377.332C1427.17 375.703 1427.77 373.259 1427.77 370V369.168C1427.77 365.701 1427.2 363.049 1426.06 361.212C1424.91 359.34 1422.8 358.404 1419.71 358.404C1417.25 358.404 1415.4 359.392 1414.15 361.368C1412.94 363.309 1412.33 365.927 1412.33 369.22C1412.33 372.548 1412.94 375.131 1414.15 376.968C1415.4 378.805 1417.27 379.724 1419.77 379.724ZM1481.65 379.776C1482.34 379.776 1483.05 379.724 1483.78 379.62C1484.51 379.481 1485.1 379.343 1485.55 379.204V382.688C1485.06 382.931 1484.37 383.121 1483.47 383.26C1482.57 383.433 1481.7 383.52 1480.87 383.52C1479.41 383.52 1478.06 383.277 1476.81 382.792C1475.6 382.272 1474.61 381.388 1473.85 380.14C1473.09 378.892 1472.7 377.141 1472.7 374.888V358.664H1468.75V356.48L1472.76 354.66L1474.58 348.732H1477.28V355.128H1485.34V358.664H1477.28V374.784C1477.28 376.483 1477.68 377.748 1478.48 378.58C1479.31 379.377 1480.37 379.776 1481.65 379.776ZM1501.27 344.676C1501.96 344.676 1502.57 344.919 1503.09 345.404C1503.64 345.855 1503.92 346.583 1503.92 347.588C1503.92 348.559 1503.64 349.287 1503.09 349.772C1502.57 350.257 1501.96 350.5 1501.27 350.5C1500.51 350.5 1499.87 350.257 1499.35 349.772C1498.83 349.287 1498.57 348.559 1498.57 347.588C1498.57 346.583 1498.83 345.855 1499.35 345.404C1499.87 344.919 1500.51 344.676 1501.27 344.676ZM1503.51 355.128V383H1498.93V355.128H1503.51ZM1550.71 354.608C1553.87 354.608 1556.22 355.423 1557.78 357.052C1559.34 358.647 1560.12 361.247 1560.12 364.852V383H1555.6V365.06C1555.6 360.657 1553.71 358.456 1549.93 358.456C1547.23 358.456 1545.29 359.236 1544.11 360.796C1542.96 362.356 1542.39 364.627 1542.39 367.608V383H1537.87V365.06C1537.87 360.657 1535.96 358.456 1532.15 358.456C1529.34 358.456 1527.4 359.323 1526.32 361.056C1525.25 362.789 1524.71 365.285 1524.71 368.544V383H1520.14V355.128H1523.83L1524.5 358.924H1524.76C1525.63 357.468 1526.79 356.393 1528.25 355.7C1529.74 354.972 1531.32 354.608 1532.98 354.608C1537.35 354.608 1540.19 356.168 1541.51 359.288H1541.77C1542.7 357.693 1543.97 356.515 1545.56 355.752C1547.19 354.989 1548.91 354.608 1550.71 354.608ZM1587.3 354.608C1589.69 354.608 1591.73 355.128 1593.43 356.168C1595.17 357.208 1596.48 358.681 1597.39 360.588C1598.32 362.46 1598.79 364.661 1598.79 367.192V369.948H1579.71C1579.77 373.103 1580.57 375.512 1582.1 377.176C1583.66 378.805 1585.82 379.62 1588.6 379.62C1590.37 379.62 1591.93 379.464 1593.28 379.152C1594.66 378.805 1596.09 378.32 1597.54 377.696V381.7C1596.12 382.324 1594.72 382.775 1593.33 383.052C1591.94 383.364 1590.3 383.52 1588.39 383.52C1585.75 383.52 1583.41 382.983 1581.37 381.908C1579.36 380.833 1577.78 379.239 1576.64 377.124C1575.53 374.975 1574.97 372.357 1574.97 369.272C1574.97 366.221 1575.48 363.604 1576.48 361.42C1577.52 359.236 1578.96 357.555 1580.8 356.376C1582.67 355.197 1584.84 354.608 1587.3 354.608ZM1587.25 358.352C1585.06 358.352 1583.33 359.063 1582.05 360.484C1580.8 361.871 1580.05 363.812 1579.81 366.308H1594.01C1593.97 363.951 1593.42 362.044 1592.34 360.588C1591.27 359.097 1589.57 358.352 1587.25 358.352Z" fill="white"/>
<path d="M1081.44 383V384H1082.44V383H1081.44ZM1076.76 383H1075.76V384H1076.76V383ZM1076.76 365.684H1077.76V364.684H1076.76V365.684ZM1057.72 365.684V364.684H1056.72V365.684H1057.72ZM1057.72 383V384H1058.72V383H1057.72ZM1053.04 383H1052.04V384H1053.04V383ZM1053.04 345.872V344.872H1052.04V345.872H1053.04ZM1057.72 345.872H1058.72V344.872H1057.72V345.872ZM1057.72 361.576H1056.72V362.576H1057.72V361.576ZM1076.76 361.576V362.576H1077.76V361.576H1076.76ZM1076.76 345.872V344.872H1075.76V345.872H1076.76ZM1081.44 345.872H1082.44V344.872H1081.44V345.872ZM1081.44 382H1076.76V384H1081.44V382ZM1077.76 383V365.684H1075.76V383H1077.76ZM1076.76 364.684H1057.72V366.684H1076.76V364.684ZM1056.72 365.684V383H1058.72V365.684H1056.72ZM1057.72 382H1053.04V384H1057.72V382ZM1054.04 383V345.872H1052.04V383H1054.04ZM1053.04 346.872H1057.72V344.872H1053.04V346.872ZM1056.72 345.872V361.576H1058.72V345.872H1056.72ZM1057.72 362.576H1076.76V360.576H1057.72V362.576ZM1077.76 361.576V345.872H1075.76V361.576H1077.76ZM1076.76 346.872H1081.44V344.872H1076.76V346.872ZM1080.44 345.872V383H1082.44V345.872H1080.44ZM1116.86 356.896L1117.53 356.158L1117.53 356.158L1116.86 356.896ZM1119.3 383V384H1120.3V383H1119.3ZM1115.97 383L1115 383.218L1115.17 384H1115.97V383ZM1115.09 379.048L1116.07 378.83L1115.89 378.048H1115.09V379.048ZM1114.88 379.048V378.048H1114.4L1114.1 378.425L1114.88 379.048ZM1111.03 382.428L1110.56 381.547L1110.55 381.553L1111.03 382.428ZM1099.23 381.544L1098.6 382.32L1098.61 382.328L1099.23 381.544ZM1100.01 368.856L1100.57 369.682L1100.58 369.676L1100.01 368.856ZM1110.1 366.36L1110.13 367.36L1110.13 367.359L1110.1 366.36ZM1114.83 366.204L1114.86 367.203L1115.83 367.172V366.204H1114.83ZM1113.32 359.704L1112.66 360.449L1112.66 360.449L1113.32 359.704ZM1104.9 359.028L1105.2 359.982L1105.21 359.978L1105.22 359.974L1104.9 359.028ZM1101.21 360.484L1100.28 360.863L1100.68 361.849L1101.64 361.384L1101.21 360.484ZM1099.8 357.052L1099.33 356.173L1098.54 356.601L1098.88 357.431L1099.8 357.052ZM1104.12 355.388L1104.38 356.353L1104.39 356.351L1104.4 356.348L1104.12 355.388ZM1110.67 369.532L1110.63 368.533L1110.63 368.533L1110.67 369.532ZM1103.44 371.196L1102.86 370.384L1102.85 370.391L1103.44 371.196ZM1102.87 378.736L1102.26 379.525L1102.26 379.531L1102.27 379.536L1102.87 378.736ZM1112.44 377.904L1113.07 378.676L1113.08 378.668L1112.44 377.904ZM1114.78 369.376H1115.78V368.337L1114.74 368.377L1114.78 369.376ZM1109.32 355.66C1112.6 355.66 1114.82 356.383 1116.18 357.634L1117.53 356.158C1115.64 354.428 1112.84 353.66 1109.32 353.66V355.66ZM1116.18 357.634C1117.52 358.86 1118.3 360.907 1118.3 364.02H1120.3C1120.3 360.615 1119.45 357.913 1117.53 356.158L1116.18 357.634ZM1118.3 364.02V383H1120.3V364.02H1118.3ZM1119.3 382H1115.97V384H1119.3V382ZM1116.95 382.782L1116.07 378.83L1114.12 379.266L1115 383.218L1116.95 382.782ZM1115.09 378.048H1114.88V380.048H1115.09V378.048ZM1114.1 378.425C1112.95 379.872 1111.77 380.899 1110.56 381.548L1111.51 383.308C1113.01 382.501 1114.39 381.274 1115.67 379.671L1114.1 378.425ZM1110.55 381.553C1109.44 382.165 1107.8 382.52 1105.52 382.52V384.52C1107.96 384.52 1109.99 384.147 1111.52 383.303L1110.55 381.553ZM1105.52 382.52C1103.17 382.52 1101.31 381.912 1099.85 380.76L1098.61 382.328C1100.48 383.811 1102.81 384.52 1105.52 384.52V382.52ZM1099.86 380.768C1098.5 379.663 1097.73 377.899 1097.73 375.252H1095.73C1095.73 378.291 1096.63 380.721 1098.6 382.32L1099.86 380.768ZM1097.73 375.252C1097.73 372.79 1098.68 370.976 1100.57 369.682L1099.45 368.03C1096.97 369.718 1095.73 372.167 1095.73 375.252H1097.73ZM1100.58 369.676C1102.53 368.315 1105.66 367.496 1110.13 367.36L1110.07 365.36C1105.45 365.501 1101.86 366.346 1099.44 368.036L1100.58 369.676ZM1110.13 367.359L1114.86 367.203L1114.8 365.205L1110.07 365.361L1110.13 367.359ZM1115.83 366.204V364.54H1113.83V366.204H1115.83ZM1115.83 364.54C1115.83 362.127 1115.32 360.15 1113.99 358.959L1112.66 360.449C1113.34 361.061 1113.83 362.307 1113.83 364.54H1115.83ZM1113.99 358.959C1112.74 357.842 1111.05 357.352 1109.06 357.352V359.352C1110.74 359.352 1111.89 359.763 1112.66 360.449L1113.99 358.959ZM1109.06 357.352C1107.5 357.352 1106 357.594 1104.58 358.082L1105.22 359.974C1106.43 359.561 1107.71 359.352 1109.06 359.352V357.352ZM1104.6 358.074C1103.24 358.504 1101.96 359.007 1100.77 359.584L1101.64 361.384C1102.74 360.852 1103.93 360.384 1105.2 359.982L1104.6 358.074ZM1102.13 360.105L1100.73 356.673L1098.88 357.431L1100.28 360.863L1102.13 360.105ZM1100.28 357.931C1101.41 357.317 1102.77 356.788 1104.38 356.353L1103.86 354.423C1102.14 354.889 1100.62 355.47 1099.33 356.173L1100.28 357.931ZM1104.4 356.348C1105.97 355.89 1107.61 355.66 1109.32 355.66V353.66C1107.43 353.66 1105.6 353.915 1103.84 354.428L1104.4 356.348ZM1110.63 368.533C1107.14 368.672 1104.47 369.229 1102.86 370.384L1104.03 372.008C1105.12 371.222 1107.27 370.669 1110.71 370.531L1110.63 368.533ZM1102.85 370.391C1101.25 371.567 1100.47 373.248 1100.47 375.304H1102.47C1102.47 373.824 1103 372.766 1104.04 372.001L1102.85 370.391ZM1100.47 375.304C1100.47 377.067 1101 378.551 1102.26 379.525L1103.48 377.947C1102.87 377.465 1102.47 376.661 1102.47 375.304H1100.47ZM1102.27 379.536C1103.45 380.421 1104.91 380.828 1106.56 380.828V378.828C1105.24 378.828 1104.23 378.507 1103.47 377.936L1102.27 379.536ZM1106.56 380.828C1109.11 380.828 1111.31 380.13 1113.07 378.676L1111.8 377.132C1110.45 378.243 1108.73 378.828 1106.56 378.828V380.828ZM1113.08 378.668C1114.94 377.104 1115.78 374.769 1115.78 371.872H1113.78C1113.78 374.383 1113.06 376.07 1111.79 377.14L1113.08 378.668ZM1115.78 371.872V369.376H1113.78V371.872H1115.78ZM1114.74 368.377L1110.63 368.533L1110.71 370.531L1114.82 370.375L1114.74 368.377ZM1141.85 383L1140.91 383.354L1141.16 384H1141.85V383ZM1131.29 355.128V354.128H1129.84L1130.36 355.482L1131.29 355.128ZM1136.18 355.128L1137.12 354.789L1136.88 354.128H1136.18V355.128ZM1142.11 371.56L1141.17 371.899L1141.17 371.902L1142.11 371.56ZM1142.99 374.108L1142.04 374.424L1142.04 374.424L1142.99 374.108ZM1143.82 376.812L1142.86 377.082L1142.86 377.092L1143.82 376.812ZM1144.34 378.944L1143.36 379.118L1143.5 379.944H1144.34V378.944ZM1144.55 378.944V379.944H1145.34L1145.52 379.173L1144.55 378.944ZM1145.12 376.76L1144.17 376.455L1144.17 376.473L1144.16 376.49L1145.12 376.76ZM1146.01 374.056L1145.07 373.709L1145.06 373.724L1145.06 373.74L1146.01 374.056ZM1146.89 371.56L1145.95 371.221L1145.95 371.232L1145.94 371.244L1146.89 371.56ZM1152.82 355.128V354.128H1152.12L1151.88 354.789L1152.82 355.128ZM1157.71 355.128L1158.64 355.484L1159.16 354.128H1157.71V355.128ZM1147.1 383V384H1147.79L1148.03 383.356L1147.1 383ZM1142.78 382.646L1132.23 354.774L1130.36 355.482L1140.91 383.354L1142.78 382.646ZM1131.29 356.128H1136.18V354.128H1131.29V356.128ZM1135.24 355.467L1141.17 371.899L1143.05 371.221L1137.12 354.789L1135.24 355.467ZM1141.17 371.902C1141.44 372.654 1141.73 373.495 1142.04 374.424L1143.94 373.792C1143.63 372.849 1143.33 371.991 1143.05 371.218L1141.17 371.902ZM1142.04 374.424C1142.35 375.346 1142.62 376.232 1142.86 377.082L1144.79 376.542C1144.54 375.659 1144.26 374.742 1143.94 373.792L1142.04 374.424ZM1142.86 377.092C1143.1 377.903 1143.26 378.576 1143.36 379.118L1145.33 378.77C1145.22 378.133 1145.03 377.385 1144.78 376.532L1142.86 377.092ZM1144.34 379.944H1144.55V377.944H1144.34V379.944ZM1145.52 379.173C1145.66 378.602 1145.85 377.889 1146.09 377.03L1144.16 376.49C1143.92 377.365 1143.72 378.107 1143.58 378.715L1145.52 379.173ZM1146.08 377.065C1146.35 376.202 1146.65 375.305 1146.96 374.372L1145.06 373.74C1144.75 374.679 1144.45 375.584 1144.17 376.455L1146.08 377.065ZM1146.95 374.403C1147.29 373.46 1147.59 372.617 1147.84 371.876L1145.94 371.244C1145.7 371.959 1145.41 372.78 1145.07 373.709L1146.95 374.403ZM1147.83 371.899L1153.76 355.467L1151.88 354.789L1145.95 371.221L1147.83 371.899ZM1152.82 356.128H1157.71V354.128H1152.82V356.128ZM1156.77 354.772L1146.16 382.644L1148.03 383.356L1158.64 355.484L1156.77 354.772ZM1147.1 382H1141.85V384H1147.1V382ZM1186.82 356.168L1186.3 357.021L1186.3 357.025L1186.82 356.168ZM1190.77 360.588L1189.87 361.015L1189.87 361.025L1189.88 361.035L1190.77 360.588ZM1192.17 369.948V370.948H1193.17V369.948H1192.17ZM1173.09 369.948V368.948H1172.07L1172.09 369.97L1173.09 369.948ZM1175.48 377.176L1174.74 377.852L1174.75 377.86L1174.76 377.868L1175.48 377.176ZM1186.66 379.152L1186.89 380.126L1186.9 380.124L1186.9 380.122L1186.66 379.152ZM1190.93 377.696H1191.93V376.179L1190.53 376.777L1190.93 377.696ZM1190.93 381.7L1191.33 382.616L1191.93 382.353V381.7H1190.93ZM1186.71 383.052L1186.52 382.071L1186.51 382.074L1186.49 382.076L1186.71 383.052ZM1174.75 381.908L1174.28 382.79L1174.29 382.793L1174.75 381.908ZM1170.02 377.124L1169.13 377.583L1169.14 377.591L1169.14 377.6L1170.02 377.124ZM1169.87 361.42L1168.96 360.99L1168.96 361.002L1169.87 361.42ZM1174.18 356.376L1173.65 355.53L1173.64 355.534L1174.18 356.376ZM1175.43 360.484L1174.69 359.814L1174.69 359.815L1175.43 360.484ZM1173.19 366.308L1172.2 366.211L1172.09 367.308H1173.19V366.308ZM1187.39 366.308V367.308H1188.4L1188.39 366.293L1187.39 366.308ZM1185.73 360.588L1184.91 361.173L1184.92 361.182L1185.73 360.588ZM1180.68 355.608C1182.93 355.608 1184.78 356.095 1186.3 357.021L1187.34 355.315C1185.45 354.161 1183.22 353.608 1180.68 353.608V355.608ZM1186.3 357.025C1187.86 357.959 1189.04 359.279 1189.87 361.015L1191.67 360.161C1190.69 358.083 1189.24 356.457 1187.33 355.311L1186.3 357.025ZM1189.88 361.035C1190.73 362.742 1191.17 364.785 1191.17 367.192H1193.17C1193.17 364.538 1192.68 362.178 1191.66 360.141L1189.88 361.035ZM1191.17 367.192V369.948H1193.17V367.192H1191.17ZM1192.17 368.948H1173.09V370.948H1192.17V368.948ZM1172.09 369.97C1172.16 373.271 1173 375.949 1174.74 377.852L1176.22 376.5C1174.91 375.075 1174.16 372.934 1174.09 369.926L1172.09 369.97ZM1174.76 377.868C1176.55 379.738 1179 380.62 1181.98 380.62V378.62C1179.41 378.62 1177.53 377.873 1176.2 376.484L1174.76 377.868ZM1181.98 380.62C1183.81 380.62 1185.44 380.459 1186.89 380.126L1186.44 378.178C1185.18 378.469 1183.69 378.62 1181.98 378.62V380.62ZM1186.9 380.122C1188.35 379.761 1189.82 379.258 1191.32 378.615L1190.53 376.777C1189.12 377.382 1187.75 377.849 1186.42 378.182L1186.9 380.122ZM1189.93 377.696V381.7H1191.93V377.696H1189.93ZM1190.52 380.784C1189.16 381.382 1187.83 381.81 1186.52 382.071L1186.91 384.033C1188.37 383.74 1189.85 383.266 1191.33 382.616L1190.52 380.784ZM1186.49 382.076C1185.2 382.368 1183.63 382.52 1181.77 382.52V384.52C1183.73 384.52 1185.45 384.36 1186.93 384.028L1186.49 382.076ZM1181.77 382.52C1179.28 382.52 1177.1 382.012 1175.22 381.023L1174.29 382.793C1176.5 383.953 1179 384.52 1181.77 384.52V382.52ZM1175.23 381.026C1173.4 380.049 1171.96 378.6 1170.9 376.648L1169.14 377.6C1170.37 379.877 1172.09 381.618 1174.28 382.79L1175.23 381.026ZM1170.91 376.665C1169.89 374.692 1169.36 372.241 1169.36 369.272H1167.36C1167.36 372.474 1167.93 375.258 1169.13 377.583L1170.91 376.665ZM1169.36 369.272C1169.36 366.328 1169.84 363.861 1170.77 361.838L1168.96 361.002C1167.88 363.347 1167.36 366.114 1167.36 369.272H1169.36ZM1170.77 361.85C1171.74 359.816 1173.06 358.285 1174.72 357.218L1173.64 355.534C1171.63 356.824 1170.07 358.656 1168.96 360.99L1170.77 361.85ZM1174.71 357.222C1176.41 356.155 1178.39 355.608 1180.68 355.608V353.608C1178.05 353.608 1175.7 354.24 1173.65 355.53L1174.71 357.222ZM1180.63 357.352C1178.21 357.352 1176.19 358.152 1174.69 359.814L1176.17 361.154C1177.24 359.973 1178.68 359.352 1180.63 359.352V357.352ZM1174.69 359.815C1173.25 361.407 1172.45 363.575 1172.2 366.211L1174.19 366.405C1174.42 364.049 1175.11 362.334 1176.17 361.153L1174.69 359.815ZM1173.19 367.308H1187.39V365.308H1173.19V367.308ZM1188.39 366.293C1188.35 363.79 1187.76 361.662 1186.53 359.994L1184.92 361.182C1185.84 362.426 1186.36 364.111 1186.39 366.323L1188.39 366.293ZM1186.54 360.003C1185.23 358.184 1183.18 357.352 1180.63 357.352V359.352C1182.73 359.352 1184.08 360.011 1184.91 361.173L1186.54 360.003ZM1248.56 356.896L1249.23 356.158L1249.23 356.158L1248.56 356.896ZM1251 383V384H1252V383H1251ZM1247.67 383L1246.7 383.218L1246.87 384H1247.67V383ZM1246.79 379.048L1247.76 378.83L1247.59 378.048H1246.79V379.048ZM1246.58 379.048V378.048H1246.1L1245.8 378.425L1246.58 379.048ZM1242.73 382.428L1242.26 381.547L1242.25 381.553L1242.73 382.428ZM1230.93 381.544L1230.3 382.32L1230.31 382.328L1230.93 381.544ZM1231.71 368.856L1232.27 369.682L1232.28 369.676L1231.71 368.856ZM1241.8 366.36L1241.83 367.36L1241.83 367.359L1241.8 366.36ZM1246.53 366.204L1246.56 367.203L1247.53 367.172V366.204H1246.53ZM1245.02 359.704L1244.35 360.449L1244.35 360.449L1245.02 359.704ZM1236.6 359.028L1236.9 359.982L1236.91 359.978L1236.92 359.974L1236.6 359.028ZM1232.9 360.484L1231.98 360.863L1232.38 361.849L1233.34 361.384L1232.9 360.484ZM1231.5 357.052L1231.02 356.173L1230.23 356.601L1230.57 357.431L1231.5 357.052ZM1235.82 355.388L1236.08 356.353L1236.09 356.351L1236.1 356.348L1235.82 355.388ZM1242.37 369.532L1242.33 368.533L1242.33 368.533L1242.37 369.532ZM1235.14 371.196L1234.56 370.384L1234.55 370.391L1235.14 371.196ZM1234.57 378.736L1233.95 379.525L1233.96 379.531L1233.97 379.536L1234.57 378.736ZM1244.14 377.904L1244.77 378.676L1244.78 378.668L1244.14 377.904ZM1246.48 369.376H1247.48V368.337L1246.44 368.377L1246.48 369.376ZM1241.02 355.66C1244.29 355.66 1246.51 356.383 1247.88 357.634L1249.23 356.158C1247.34 354.428 1244.53 353.66 1241.02 353.66V355.66ZM1247.88 357.634C1249.22 358.86 1250 360.907 1250 364.02H1252C1252 360.615 1251.15 357.913 1249.23 356.158L1247.88 357.634ZM1250 364.02V383H1252V364.02H1250ZM1251 382H1247.67V384H1251V382ZM1248.65 382.782L1247.76 378.83L1245.81 379.266L1246.7 383.218L1248.65 382.782ZM1246.79 378.048H1246.58V380.048H1246.79V378.048ZM1245.8 378.425C1244.65 379.872 1243.46 380.899 1242.26 381.548L1243.21 383.308C1244.7 382.501 1246.09 381.274 1247.36 379.671L1245.8 378.425ZM1242.25 381.553C1241.14 382.165 1239.49 382.52 1237.22 382.52V384.52C1239.66 384.52 1241.69 384.147 1243.21 383.303L1242.25 381.553ZM1237.22 382.52C1234.87 382.52 1233 381.912 1231.55 380.76L1230.31 382.328C1232.18 383.811 1234.51 384.52 1237.22 384.52V382.52ZM1231.56 380.768C1230.2 379.663 1229.43 377.899 1229.43 375.252H1227.43C1227.43 378.291 1228.33 380.721 1230.3 382.32L1231.56 380.768ZM1229.43 375.252C1229.43 372.79 1230.38 370.976 1232.27 369.682L1231.14 368.03C1228.67 369.718 1227.43 372.167 1227.43 375.252H1229.43ZM1232.28 369.676C1234.23 368.315 1237.36 367.496 1241.83 367.36L1241.76 365.36C1237.15 365.501 1233.55 366.346 1231.13 368.036L1232.28 369.676ZM1241.83 367.359L1246.56 367.203L1246.49 365.205L1241.76 365.361L1241.83 367.359ZM1247.53 366.204V364.54H1245.53V366.204H1247.53ZM1247.53 364.54C1247.53 362.127 1247.01 360.15 1245.69 358.959L1244.35 360.449C1245.03 361.061 1245.53 362.307 1245.53 364.54H1247.53ZM1245.69 358.959C1244.44 357.842 1242.75 357.352 1240.76 357.352V359.352C1242.44 359.352 1243.59 359.763 1244.35 360.449L1245.69 358.959ZM1240.76 357.352C1239.19 357.352 1237.7 357.594 1236.27 358.082L1236.92 359.974C1238.13 359.561 1239.4 359.352 1240.76 359.352V357.352ZM1236.29 358.074C1234.93 358.504 1233.66 359.007 1232.47 359.584L1233.34 361.384C1234.44 360.852 1235.62 360.384 1236.9 359.982L1236.29 358.074ZM1233.83 360.105L1232.42 356.673L1230.57 357.431L1231.98 360.863L1233.83 360.105ZM1231.98 357.931C1233.11 357.317 1234.47 356.788 1236.08 356.353L1235.55 354.423C1233.83 354.889 1232.32 355.47 1231.02 356.173L1231.98 357.931ZM1236.1 356.348C1237.66 355.89 1239.3 355.66 1241.02 355.66V353.66C1239.12 353.66 1237.29 353.915 1235.54 354.428L1236.1 356.348ZM1242.33 368.533C1238.84 368.672 1236.16 369.229 1234.56 370.384L1235.72 372.008C1236.82 371.222 1238.96 370.669 1242.41 370.531L1242.33 368.533ZM1234.55 370.391C1232.95 371.567 1232.16 373.248 1232.16 375.304H1234.16C1234.16 373.824 1234.69 372.766 1235.73 372.001L1234.55 370.391ZM1232.16 375.304C1232.16 377.067 1232.7 378.551 1233.95 379.525L1235.18 377.947C1234.56 377.465 1234.16 376.661 1234.16 375.304H1232.16ZM1233.97 379.536C1235.15 380.421 1236.6 380.828 1238.26 380.828V378.828C1236.93 378.828 1235.93 378.507 1235.17 377.936L1233.97 379.536ZM1238.26 380.828C1240.81 380.828 1243 380.13 1244.77 378.676L1243.5 377.132C1242.15 378.243 1240.43 378.828 1238.26 378.828V380.828ZM1244.78 378.668C1246.63 377.104 1247.48 374.769 1247.48 371.872H1245.48C1245.48 374.383 1244.76 376.07 1243.49 377.14L1244.78 378.668ZM1247.48 371.872V369.376H1245.48V371.872H1247.48ZM1246.44 368.377L1242.33 368.533L1242.41 370.531L1246.51 370.375L1246.44 368.377ZM1305.62 355.648L1305.19 356.551L1305.2 356.555L1305.62 355.648ZM1309.41 358.82L1308.61 359.411L1308.91 359.82H1309.41V358.82ZM1309.67 358.82V359.82H1310.52L1310.66 358.987L1309.67 358.82ZM1310.3 355.128V354.128H1309.45L1309.31 354.961L1310.3 355.128ZM1313.94 355.128H1314.94V354.128H1313.94V355.128ZM1310.87 392.464L1310.17 391.751L1310.16 391.757L1310.87 392.464ZM1291.42 393.712H1290.42V394.357L1291.01 394.623L1291.42 393.712ZM1291.42 389.5L1291.89 388.617L1290.42 387.836V389.5H1291.42ZM1307.33 389.552L1306.63 388.845L1306.62 388.854L1306.61 388.863L1307.33 389.552ZM1309.47 380.972L1310.46 381.017L1310.46 381.015L1309.47 380.972ZM1309.57 379.308L1310.56 379.418L1310.69 378.308H1309.57V379.308ZM1309.36 379.308V378.308H1308.83L1308.53 378.753L1309.36 379.308ZM1292.25 379.724L1291.47 380.346L1291.48 380.353L1292.25 379.724ZM1292.25 358.56L1291.46 357.947L1291.46 357.948L1292.25 358.56ZM1295.89 361.264L1296.71 361.836L1296.72 361.829L1295.89 361.264ZM1295.84 377.072L1295.01 377.634L1295.02 377.643L1295.03 377.652L1295.84 377.072ZM1307.54 377.54L1308.3 378.192L1308.31 378.184L1307.54 377.54ZM1307.49 360.952L1306.71 361.573L1306.71 361.581L1307.49 360.952ZM1300.68 355.608C1302.39 355.608 1303.88 355.93 1305.19 356.551L1306.05 354.745C1304.44 353.979 1302.64 353.608 1300.68 353.608V355.608ZM1305.2 356.555C1306.52 357.172 1307.66 358.115 1308.61 359.411L1310.22 358.229C1309.09 356.682 1307.69 355.511 1306.04 354.741L1305.2 356.555ZM1309.41 359.82H1309.67V357.82H1309.41V359.82ZM1310.66 358.987L1311.28 355.295L1309.31 354.961L1308.69 358.653L1310.66 358.987ZM1310.3 356.128H1313.94V354.128H1310.3V356.128ZM1312.94 355.128V383.468H1314.94V355.128H1312.94ZM1312.94 383.468C1312.94 387.293 1311.96 389.992 1310.17 391.751L1311.57 393.177C1313.87 390.915 1314.94 387.616 1314.94 383.468H1312.94ZM1310.16 391.757C1308.41 393.504 1305.59 394.48 1301.46 394.48V396.48C1305.86 396.48 1309.3 395.445 1311.58 393.171L1310.16 391.757ZM1301.46 394.48C1297.45 394.48 1294.26 393.901 1291.83 392.801L1291.01 394.623C1293.78 395.88 1297.28 396.48 1301.46 396.48V394.48ZM1292.42 393.712V389.5H1290.42V393.712H1292.42ZM1290.95 390.383C1293.87 391.937 1297.48 392.684 1301.72 392.684V390.684C1297.7 390.684 1294.45 389.975 1291.89 388.617L1290.95 390.383ZM1301.72 392.684C1304.32 392.684 1306.48 391.903 1308.06 390.241L1306.61 388.863C1305.49 390.043 1303.9 390.684 1301.72 390.684V392.684ZM1308.04 390.259C1309.66 388.642 1310.41 386.457 1310.41 383.832H1308.41C1308.41 386.06 1307.78 387.688 1306.63 388.845L1308.04 390.259ZM1310.41 383.832V382.74H1308.41V383.832H1310.41ZM1310.41 382.74C1310.41 382.347 1310.43 381.775 1310.46 381.017L1308.47 380.927C1308.43 381.694 1308.41 382.301 1308.41 382.74H1310.41ZM1310.46 381.015C1310.5 380.217 1310.53 379.693 1310.56 379.418L1308.58 379.198C1308.54 379.547 1308.5 380.133 1308.47 380.929L1310.46 381.015ZM1309.57 378.308H1309.36V380.308H1309.57V378.308ZM1308.53 378.753C1306.87 381.238 1304.34 382.52 1300.73 382.52V384.52C1304.89 384.52 1308.11 382.994 1310.19 379.863L1308.53 378.753ZM1300.73 382.52C1297.39 382.52 1294.86 381.364 1293.03 379.095L1291.48 380.353C1293.73 383.146 1296.86 384.52 1300.73 384.52V382.52ZM1293.04 379.102C1291.21 376.808 1290.24 373.521 1290.24 369.116H1288.24C1288.24 373.793 1289.27 377.579 1291.47 380.346L1293.04 379.102ZM1290.24 369.116C1290.24 364.823 1291.21 361.544 1293.04 359.172L1291.46 357.948C1289.28 360.776 1288.24 364.534 1288.24 369.116H1290.24ZM1293.04 359.173C1294.88 356.802 1297.39 355.608 1300.68 355.608V353.608C1296.82 353.608 1293.71 355.049 1291.46 357.947L1293.04 359.173ZM1301.3 357.456C1298.66 357.456 1296.54 358.547 1295.07 360.699L1296.72 361.829C1297.81 360.237 1299.3 359.456 1301.3 359.456V357.456ZM1295.07 360.692C1293.63 362.764 1292.97 365.633 1292.97 369.168H1294.97C1294.97 365.839 1295.6 363.438 1296.71 361.836L1295.07 360.692ZM1292.97 369.168C1292.97 372.699 1293.61 375.563 1295.01 377.634L1296.67 376.51C1295.58 374.906 1294.97 372.501 1294.97 369.168H1292.97ZM1295.03 377.652C1296.52 379.747 1298.69 380.776 1301.41 380.776V378.776C1299.27 378.776 1297.73 378.003 1296.66 376.492L1295.03 377.652ZM1301.41 380.776C1304.38 380.776 1306.76 379.985 1308.3 378.192L1306.78 376.888C1305.76 378.076 1304.05 378.776 1301.41 378.776V380.776ZM1308.31 378.184C1309.81 376.39 1310.47 373.658 1310.47 370.208H1308.47C1308.47 373.484 1307.83 375.639 1306.78 376.896L1308.31 378.184ZM1310.47 370.208V369.116H1308.47V370.208H1310.47ZM1310.47 369.116C1310.47 365.239 1309.81 362.227 1308.27 360.323L1306.71 361.581C1307.81 362.936 1308.47 365.366 1308.47 369.116H1310.47ZM1308.27 360.331C1306.71 358.355 1304.31 357.456 1301.3 357.456V359.456C1303.91 359.456 1305.64 360.221 1306.71 361.573L1308.27 360.331ZM1351.29 379.724L1350.55 379.042L1350.55 379.048L1351.29 379.724ZM1335.22 381.856L1334.7 382.713L1334.71 382.719L1334.72 382.724L1335.22 381.856ZM1330.69 376.916L1329.8 377.369L1329.8 377.375L1330.69 376.916ZM1332.51 358.352L1331.78 357.671L1331.78 357.671L1332.51 358.352ZM1348.63 356.324L1348.12 357.181L1348.13 357.187L1348.14 357.192L1348.63 356.324ZM1353.16 361.212L1352.26 361.659L1352.27 361.668L1352.27 361.677L1353.16 361.212ZM1335.69 376.864L1334.85 377.415L1334.86 377.424L1334.86 377.432L1335.69 376.864ZM1348.11 376.864L1348.94 377.432L1348.94 377.426L1348.11 376.864ZM1348.11 361.264L1348.93 360.689L1348.93 360.689L1348.11 361.264ZM1335.69 361.264L1336.51 361.829L1336.51 361.829L1335.69 361.264ZM1353.82 369.012C1353.82 373.456 1352.69 376.751 1350.55 379.042L1352.02 380.406C1354.6 377.635 1355.82 373.789 1355.82 369.012H1353.82ZM1350.55 379.048C1348.45 381.338 1345.58 382.52 1341.82 382.52V384.52C1346.04 384.52 1349.48 383.171 1352.02 380.4L1350.55 379.048ZM1341.82 382.52C1339.52 382.52 1337.49 382.002 1335.71 380.988L1334.72 382.724C1336.83 383.928 1339.2 384.52 1341.82 384.52V382.52ZM1335.73 380.999C1334 379.958 1332.61 378.457 1331.58 376.457L1329.8 377.375C1330.99 379.674 1332.62 381.466 1334.7 382.713L1335.73 380.999ZM1331.59 376.463C1330.56 374.451 1330.03 371.98 1330.03 369.012H1328.03C1328.03 372.215 1328.61 375.013 1329.8 377.369L1331.59 376.463ZM1330.03 369.012C1330.03 364.564 1331.15 361.287 1333.25 359.033L1331.78 357.671C1329.23 360.409 1328.03 364.239 1328.03 369.012H1330.03ZM1333.25 359.033C1335.35 356.775 1338.22 355.608 1341.98 355.608V353.608C1337.76 353.608 1334.33 354.937 1331.78 357.671L1333.25 359.033ZM1341.98 355.608C1344.35 355.608 1346.39 356.143 1348.12 357.181L1349.15 355.467C1347.07 354.217 1344.66 353.608 1341.98 353.608V355.608ZM1348.14 357.192C1349.89 358.196 1351.27 359.673 1352.26 361.659L1354.05 360.765C1352.9 358.453 1351.26 356.67 1349.13 355.456L1348.14 357.192ZM1352.27 361.677C1353.29 363.612 1353.82 366.043 1353.82 369.012H1355.82C1355.82 365.811 1355.25 363.041 1354.04 360.747L1352.27 361.677ZM1332.76 369.012C1332.76 372.423 1333.42 375.256 1334.85 377.415L1336.52 376.313C1335.38 374.59 1334.76 372.187 1334.76 369.012H1332.76ZM1334.86 377.432C1336.41 379.672 1338.84 380.724 1341.93 380.724V378.724C1339.33 378.724 1337.6 377.869 1336.51 376.296L1334.86 377.432ZM1341.93 380.724C1344.98 380.724 1347.39 379.668 1348.94 377.432L1347.29 376.296C1346.2 377.873 1344.48 378.724 1341.93 378.724V380.724ZM1348.94 377.426C1350.41 375.264 1351.09 372.428 1351.09 369.012H1349.09C1349.09 372.183 1348.45 374.581 1347.29 376.302L1348.94 377.426ZM1351.09 369.012C1351.09 365.599 1350.41 362.788 1348.93 360.689L1347.3 361.839C1348.45 363.484 1349.09 365.838 1349.09 369.012H1351.09ZM1348.93 360.689C1347.38 358.485 1344.95 357.456 1341.87 357.456V359.456C1344.48 359.456 1346.21 360.299 1347.3 361.839L1348.93 360.689ZM1341.87 357.456C1338.79 357.456 1336.38 358.485 1334.86 360.699L1336.51 361.829C1337.56 360.299 1339.27 359.456 1341.87 359.456V357.456ZM1334.86 360.699C1333.42 362.797 1332.76 365.604 1332.76 369.012H1334.76C1334.76 365.834 1335.38 363.475 1336.51 361.829L1334.86 360.699ZM1390.57 379.724L1389.84 379.042L1389.83 379.048L1390.57 379.724ZM1374.5 381.856L1373.99 382.713L1374 382.719L1374.01 382.724L1374.5 381.856ZM1369.98 376.916L1369.09 377.369L1369.09 377.375L1369.98 376.916ZM1371.8 358.352L1371.07 357.671L1371.07 357.671L1371.8 358.352ZM1387.92 356.324L1387.4 357.181L1387.41 357.187L1387.42 357.192L1387.92 356.324ZM1392.44 361.212L1391.55 361.659L1391.55 361.668L1391.56 361.677L1392.44 361.212ZM1374.97 376.864L1374.14 377.415L1374.14 377.424L1374.15 377.432L1374.97 376.864ZM1387.4 376.864L1388.22 377.432L1388.23 377.426L1387.4 376.864ZM1387.4 361.264L1388.22 360.689L1388.22 360.689L1387.4 361.264ZM1374.97 361.264L1375.79 361.829L1375.79 361.829L1374.97 361.264ZM1393.11 369.012C1393.11 373.456 1391.97 376.751 1389.84 379.042L1391.3 380.406C1393.88 377.635 1395.11 373.789 1395.11 369.012H1393.11ZM1389.83 379.048C1387.73 381.338 1384.86 382.52 1381.11 382.52V384.52C1385.32 384.52 1388.76 383.171 1391.31 380.4L1389.83 379.048ZM1381.11 382.52C1378.8 382.52 1376.77 382.002 1375 380.988L1374.01 382.724C1376.11 383.928 1378.49 384.52 1381.11 384.52V382.52ZM1375.02 380.999C1373.28 379.958 1371.9 378.457 1370.87 376.457L1369.09 377.375C1370.28 379.674 1371.91 381.466 1373.99 382.713L1375.02 380.999ZM1370.87 376.463C1369.85 374.451 1369.31 371.98 1369.31 369.012H1367.31C1367.31 372.215 1367.89 375.013 1369.09 377.369L1370.87 376.463ZM1369.31 369.012C1369.31 364.564 1370.43 361.287 1372.53 359.033L1371.07 357.671C1368.52 360.409 1367.31 364.239 1367.31 369.012H1369.31ZM1372.53 359.033C1374.63 356.775 1377.5 355.608 1381.26 355.608V353.608C1377.05 353.608 1373.61 354.937 1371.07 357.671L1372.53 359.033ZM1381.26 355.608C1383.64 355.608 1385.67 356.143 1387.4 357.181L1388.43 355.467C1386.35 354.217 1383.95 353.608 1381.26 353.608V355.608ZM1387.42 357.192C1389.18 358.196 1390.55 359.673 1391.55 361.659L1393.34 360.765C1392.18 358.453 1390.54 356.67 1388.41 355.456L1387.42 357.192ZM1391.56 361.677C1392.57 363.612 1393.11 366.043 1393.11 369.012H1395.11C1395.11 365.811 1394.53 363.041 1393.33 360.747L1391.56 361.677ZM1372.05 369.012C1372.05 372.423 1372.71 375.256 1374.14 377.415L1375.8 376.313C1374.67 374.59 1374.05 372.187 1374.05 369.012H1372.05ZM1374.15 377.432C1375.69 379.672 1378.12 380.724 1381.21 380.724V378.724C1378.61 378.724 1376.88 377.869 1375.79 376.296L1374.15 377.432ZM1381.21 380.724C1384.27 380.724 1386.68 379.668 1388.22 377.432L1386.58 376.296C1385.49 377.873 1383.77 378.724 1381.21 378.724V380.724ZM1388.23 377.426C1389.69 375.264 1390.37 372.428 1390.37 369.012H1388.37C1388.37 372.183 1387.74 374.581 1386.57 376.302L1388.23 377.426ZM1390.37 369.012C1390.37 365.599 1389.69 362.788 1388.22 360.689L1386.58 361.839C1387.74 363.484 1388.37 365.838 1388.37 369.012H1390.37ZM1388.22 360.689C1386.67 358.485 1384.24 357.456 1381.16 357.456V359.456C1383.76 359.456 1385.5 360.299 1386.58 361.839L1388.22 360.689ZM1381.16 357.456C1378.08 357.456 1375.66 358.485 1374.14 360.699L1375.79 361.829C1376.84 360.299 1378.55 359.456 1381.16 359.456V357.456ZM1374.14 360.699C1372.71 362.797 1372.05 365.604 1372.05 369.012H1374.05C1374.05 365.834 1374.67 363.475 1375.79 361.829L1374.14 360.699ZM1410.72 379.932L1409.96 380.583L1409.96 380.588L1410.72 379.932ZM1410.72 358.3L1409.96 357.648L1409.96 357.649L1410.72 358.3ZM1424.34 355.804L1423.83 356.665L1423.84 356.671L1424.34 355.804ZM1427.72 358.716L1426.93 359.32L1427.23 359.716H1427.72V358.716ZM1428.03 358.716V359.716H1429.11L1429.03 358.639L1428.03 358.716ZM1427.83 356.74L1426.83 356.817L1426.83 356.838L1426.83 356.859L1427.83 356.74ZM1427.72 343.48V342.48H1426.72V343.48H1427.72ZM1432.3 343.48H1433.3V342.48H1432.3V343.48ZM1432.3 383V384H1433.3V383H1432.3ZM1428.61 383L1427.62 383.178L1427.77 384H1428.61V383ZM1427.93 379.256L1428.91 379.078L1428.77 378.256H1427.93V379.256ZM1427.72 379.256V378.256H1427.2L1426.91 378.679L1427.72 379.256ZM1424.39 382.272L1424.91 383.129L1424.91 383.129L1424.39 382.272ZM1425.95 377.332L1425.15 376.735L1425.15 376.738L1425.95 377.332ZM1426.06 361.212L1425.2 361.733L1425.21 361.741L1426.06 361.212ZM1414.15 361.368L1413.3 360.834L1413.3 360.838L1414.15 361.368ZM1414.15 376.968L1413.32 377.519L1413.32 377.53L1414.15 376.968ZM1419.04 382.52C1415.83 382.52 1413.34 381.427 1411.47 379.276L1409.96 380.588C1412.25 383.221 1415.31 384.52 1419.04 384.52V382.52ZM1411.48 379.281C1409.61 377.107 1408.6 373.776 1408.6 369.116H1406.6C1406.6 374.024 1407.66 377.904 1409.96 380.583L1411.48 379.281ZM1408.6 369.116C1408.6 364.456 1409.61 361.125 1411.48 358.951L1409.96 357.649C1407.66 360.328 1406.6 364.208 1406.6 369.116H1408.6ZM1411.48 358.952C1413.39 356.728 1415.89 355.608 1419.09 355.608V353.608C1415.35 353.608 1412.28 354.949 1409.96 357.648L1411.48 358.952ZM1419.09 355.608C1421.12 355.608 1422.68 355.986 1423.83 356.665L1424.85 354.943C1423.3 354.027 1421.35 353.608 1419.09 353.608V355.608ZM1423.84 356.671C1425.13 357.409 1426.15 358.294 1426.93 359.32L1428.52 358.112C1427.56 356.85 1426.33 355.794 1424.84 354.937L1423.84 356.671ZM1427.72 359.716H1428.03V357.716H1427.72V359.716ZM1429.03 358.639C1428.99 358.167 1428.92 357.491 1428.82 356.621L1426.83 356.859C1426.94 357.722 1427 358.364 1427.04 358.793L1429.03 358.639ZM1428.82 356.663C1428.75 355.772 1428.72 355.09 1428.72 354.608H1426.72C1426.72 355.166 1426.76 355.905 1426.83 356.817L1428.82 356.663ZM1428.72 354.608V343.48H1426.72V354.608H1428.72ZM1427.72 344.48H1432.3V342.48H1427.72V344.48ZM1431.3 343.48V383H1433.3V343.48H1431.3ZM1432.3 382H1428.61V384H1432.3V382ZM1429.59 382.822L1428.91 379.078L1426.95 379.434L1427.62 383.178L1429.59 382.822ZM1427.93 378.256H1427.72V380.256H1427.93V378.256ZM1426.91 378.679C1426.16 379.731 1425.16 380.645 1423.88 381.415L1424.91 383.129C1426.4 382.235 1427.62 381.138 1428.54 379.833L1426.91 378.679ZM1423.88 381.415C1422.69 382.126 1421.1 382.52 1419.04 382.52V384.52C1421.34 384.52 1423.32 384.082 1424.91 383.129L1423.88 381.415ZM1419.77 380.724C1422.87 380.724 1425.31 379.883 1426.76 377.926L1425.15 376.738C1424.24 377.971 1422.56 378.724 1419.77 378.724V380.724ZM1426.76 377.929C1428.16 376.051 1428.77 373.354 1428.77 370H1426.77C1426.77 373.164 1426.18 375.354 1425.15 376.735L1426.76 377.929ZM1428.77 370V369.168H1426.77V370H1428.77ZM1428.77 369.168C1428.77 365.617 1428.19 362.748 1426.91 360.683L1425.21 361.741C1426.21 363.351 1426.77 365.786 1426.77 369.168H1428.77ZM1426.91 360.691C1425.52 358.409 1422.99 357.404 1419.71 357.404V359.404C1422.61 359.404 1424.31 360.271 1425.21 361.733L1426.91 360.691ZM1419.71 357.404C1416.93 357.404 1414.75 358.55 1413.3 360.834L1415 361.902C1416.05 360.234 1417.57 359.404 1419.71 359.404V357.404ZM1413.3 360.838C1411.96 362.993 1411.33 365.817 1411.33 369.22H1413.33C1413.33 366.036 1413.92 363.625 1415 361.898L1413.3 360.838ZM1411.33 369.22C1411.33 372.65 1411.95 375.455 1413.32 377.519L1414.98 376.417C1413.92 374.807 1413.33 372.446 1413.33 369.22H1411.33ZM1413.32 377.53C1414.78 379.679 1416.99 380.724 1419.77 380.724V378.724C1417.55 378.724 1416.01 377.932 1414.98 376.406L1413.32 377.53ZM1483.78 379.62L1483.92 380.61L1483.94 380.607L1483.97 380.602L1483.78 379.62ZM1485.55 379.204H1486.55V377.85L1485.25 378.248L1485.55 379.204ZM1485.55 382.688L1486 383.582L1486.55 383.306V382.688H1485.55ZM1483.47 383.26L1483.32 382.272L1483.3 382.274L1483.28 382.278L1483.47 383.26ZM1476.81 382.792L1476.42 383.711L1476.43 383.718L1476.45 383.724L1476.81 382.792ZM1473.85 380.14L1473 380.661L1473.85 380.14ZM1472.7 358.664H1473.7V357.664H1472.7V358.664ZM1468.75 358.664H1467.75V359.664H1468.75V358.664ZM1468.75 356.48L1468.34 355.57L1467.75 355.836V356.48H1468.75ZM1472.76 354.66L1473.17 355.57L1473.58 355.384L1473.71 354.953L1472.76 354.66ZM1474.58 348.732V347.732H1473.84L1473.62 348.439L1474.58 348.732ZM1477.28 348.732H1478.28V347.732H1477.28V348.732ZM1477.28 355.128H1476.28V356.128H1477.28V355.128ZM1485.34 355.128H1486.34V354.128H1485.34V355.128ZM1485.34 358.664V359.664H1486.34V358.664H1485.34ZM1477.28 358.664V357.664H1476.28V358.664H1477.28ZM1478.48 378.58L1477.75 379.272L1477.77 379.287L1477.78 379.302L1478.48 378.58ZM1481.65 380.776C1482.39 380.776 1483.15 380.72 1483.92 380.61L1483.64 378.63C1482.95 378.728 1482.29 378.776 1481.65 378.776V380.776ZM1483.97 380.602C1484.71 380.46 1485.34 380.314 1485.84 380.16L1485.25 378.248C1484.85 378.372 1484.3 378.502 1483.59 378.638L1483.97 380.602ZM1484.55 379.204V382.688H1486.55V379.204H1484.55ZM1485.1 381.794C1484.75 381.969 1484.17 382.14 1483.32 382.272L1483.62 384.248C1484.56 384.103 1485.38 383.893 1486 383.582L1485.1 381.794ZM1483.28 382.278C1482.43 382.441 1481.63 382.52 1480.87 382.52V384.52C1481.77 384.52 1482.7 384.426 1483.66 384.242L1483.28 382.278ZM1480.87 382.52C1479.53 382.52 1478.3 382.297 1477.17 381.86L1476.45 383.724C1477.82 384.258 1479.3 384.52 1480.87 384.52V382.52ZM1477.21 381.873C1476.2 381.443 1475.37 380.71 1474.7 379.619L1473 380.661C1473.85 382.066 1474.99 383.101 1476.42 383.711L1477.21 381.873ZM1474.7 379.619C1474.07 378.591 1473.7 377.049 1473.7 374.888H1471.7C1471.7 377.234 1472.1 379.193 1473 380.661L1474.7 379.619ZM1473.7 374.888V358.664H1471.7V374.888H1473.7ZM1472.7 357.664H1468.75V359.664H1472.7V357.664ZM1469.75 358.664V356.48H1467.75V358.664H1469.75ZM1469.17 357.39L1473.17 355.57L1472.34 353.75L1468.34 355.57L1469.17 357.39ZM1473.71 354.953L1475.53 349.025L1473.62 348.439L1471.8 354.367L1473.71 354.953ZM1474.58 349.732H1477.28V347.732H1474.58V349.732ZM1476.28 348.732V355.128H1478.28V348.732H1476.28ZM1477.28 356.128H1485.34V354.128H1477.28V356.128ZM1484.34 355.128V358.664H1486.34V355.128H1484.34ZM1485.34 357.664H1477.28V359.664H1485.34V357.664ZM1476.28 358.664V374.784H1478.28V358.664H1476.28ZM1476.28 374.784C1476.28 376.62 1476.71 378.182 1477.75 379.272L1479.2 377.888C1478.65 377.314 1478.28 376.346 1478.28 374.784H1476.28ZM1477.78 379.302C1478.82 380.299 1480.14 380.776 1481.65 380.776V378.776C1480.59 378.776 1479.79 378.456 1479.17 377.858L1477.78 379.302ZM1503.09 345.404L1502.41 346.135L1502.43 346.158L1502.46 346.18L1503.09 345.404ZM1503.09 349.772L1502.43 349.019L1502.42 349.03L1502.41 349.041L1503.09 349.772ZM1499.35 349.772L1500.03 349.041L1500.03 349.041L1499.35 349.772ZM1499.35 345.404L1500 346.16L1500.01 346.148L1500.03 346.135L1499.35 345.404ZM1503.51 355.128H1504.51V354.128H1503.51V355.128ZM1503.51 383V384H1504.51V383H1503.51ZM1498.93 383H1497.93V384H1498.93V383ZM1498.93 355.128V354.128H1497.93V355.128H1498.93ZM1501.27 345.676C1501.7 345.676 1502.07 345.818 1502.41 346.135L1503.77 344.673C1503.07 344.02 1502.22 343.676 1501.27 343.676V345.676ZM1502.46 346.18C1502.7 346.373 1502.92 346.755 1502.92 347.588H1504.92C1504.92 346.41 1504.59 345.337 1503.72 344.628L1502.46 346.18ZM1502.92 347.588C1502.92 348.367 1502.7 348.78 1502.43 349.019L1503.75 350.525C1504.58 349.794 1504.92 348.75 1504.92 347.588H1502.92ZM1502.41 349.041C1502.07 349.358 1501.7 349.5 1501.27 349.5V351.5C1502.22 351.5 1503.07 351.156 1503.77 350.503L1502.41 349.041ZM1501.27 349.5C1500.74 349.5 1500.35 349.34 1500.03 349.041L1498.66 350.503C1499.38 351.174 1500.27 351.5 1501.27 351.5V349.5ZM1500.03 349.041C1499.78 348.806 1499.57 348.386 1499.57 347.588H1497.57C1497.57 348.731 1497.87 349.767 1498.66 350.503L1500.03 349.041ZM1499.57 347.588C1499.57 346.736 1499.79 346.346 1500 346.16L1498.69 344.648C1497.87 345.363 1497.57 346.429 1497.57 347.588H1499.57ZM1500.03 346.135C1500.35 345.836 1500.74 345.676 1501.27 345.676V343.676C1500.27 343.676 1499.38 344.002 1498.66 344.673L1500.03 346.135ZM1502.51 355.128V383H1504.51V355.128H1502.51ZM1503.51 382H1498.93V384H1503.51V382ZM1499.93 383V355.128H1497.93V383H1499.93ZM1498.93 356.128H1503.51V354.128H1498.93V356.128ZM1557.78 357.052L1557.06 357.744L1557.07 357.751L1557.78 357.052ZM1560.12 383V384H1561.12V383H1560.12ZM1555.6 383H1554.6V384H1555.6V383ZM1544.11 360.796L1543.31 360.193L1543.31 360.199L1543.3 360.205L1544.11 360.796ZM1542.39 383V384H1543.39V383H1542.39ZM1537.87 383H1536.87V384H1537.87V383ZM1524.71 383V384H1525.71V383H1524.71ZM1520.14 383H1519.14V384H1520.14V383ZM1520.14 355.128V354.128H1519.14V355.128H1520.14ZM1523.83 355.128L1524.81 354.953L1524.67 354.128H1523.83V355.128ZM1524.5 358.924L1523.52 359.099L1523.67 359.924H1524.5V358.924ZM1524.76 358.924V359.924H1525.33L1525.62 359.435L1524.76 358.924ZM1528.25 355.7L1528.68 356.603L1528.69 356.599L1528.25 355.7ZM1541.51 359.288L1540.59 359.677L1540.84 360.288H1541.51V359.288ZM1541.77 359.288V360.288H1542.34L1542.63 359.794L1541.77 359.288ZM1545.56 355.752L1545.14 354.846L1545.13 354.85L1545.56 355.752ZM1550.71 355.608C1553.7 355.608 1555.76 356.379 1557.06 357.744L1558.51 356.36C1556.69 354.466 1554.03 353.608 1550.71 353.608V355.608ZM1557.07 357.751C1558.36 359.072 1559.12 361.354 1559.12 364.852H1561.12C1561.12 361.139 1560.33 358.221 1558.5 356.353L1557.07 357.751ZM1559.12 364.852V383H1561.12V364.852H1559.12ZM1560.12 382H1555.6V384H1560.12V382ZM1556.6 383V365.06H1554.6V383H1556.6ZM1556.6 365.06C1556.6 362.739 1556.1 360.811 1554.94 359.456C1553.75 358.071 1552.02 357.456 1549.93 357.456V359.456C1551.62 359.456 1552.72 359.942 1553.42 360.758C1554.15 361.604 1554.6 362.979 1554.6 365.06H1556.6ZM1549.93 357.456C1547.04 357.456 1544.74 358.296 1543.31 360.193L1544.91 361.399C1545.83 360.176 1547.41 359.456 1549.93 359.456V357.456ZM1543.3 360.205C1541.98 362.006 1541.39 364.522 1541.39 367.608H1543.39C1543.39 364.731 1543.95 362.706 1544.91 361.387L1543.3 360.205ZM1541.39 367.608V383H1543.39V367.608H1541.39ZM1542.39 382H1537.87V384H1542.39V382ZM1538.87 383V365.06H1536.87V383H1538.87ZM1538.87 365.06C1538.87 362.737 1538.37 360.808 1537.19 359.452C1536 358.069 1534.25 357.456 1532.15 357.456V359.456C1533.86 359.456 1534.97 359.943 1535.68 360.762C1536.41 361.607 1536.87 362.98 1536.87 365.06H1538.87ZM1532.15 357.456C1529.14 357.456 1526.8 358.397 1525.47 360.529L1527.17 361.583C1528 360.249 1529.54 359.456 1532.15 359.456V357.456ZM1525.47 360.529C1524.26 362.489 1523.71 365.2 1523.71 368.544H1525.71C1525.71 365.37 1526.24 363.09 1527.17 361.583L1525.47 360.529ZM1523.71 368.544V383H1525.71V368.544H1523.71ZM1524.71 382H1520.14V384H1524.71V382ZM1521.14 383V355.128H1519.14V383H1521.14ZM1520.14 356.128H1523.83V354.128H1520.14V356.128ZM1522.84 355.303L1523.52 359.099L1525.49 358.749L1524.81 354.953L1522.84 355.303ZM1524.5 359.924H1524.76V357.924H1524.5V359.924ZM1525.62 359.435C1526.39 358.14 1527.41 357.207 1528.68 356.603L1527.82 354.797C1526.17 355.58 1524.87 356.796 1523.9 358.413L1525.62 359.435ZM1528.69 356.599C1530.04 355.938 1531.47 355.608 1532.98 355.608V353.608C1531.16 353.608 1529.44 354.006 1527.81 354.801L1528.69 356.599ZM1532.98 355.608C1535.05 355.608 1536.67 355.979 1537.91 356.655C1539.12 357.321 1540.01 358.315 1540.59 359.677L1542.43 358.899C1541.69 357.141 1540.5 355.795 1538.87 354.901C1537.26 354.017 1535.28 353.608 1532.98 353.608V355.608ZM1541.51 360.288H1541.77V358.288H1541.51V360.288ZM1542.63 359.794C1543.47 358.363 1544.59 357.327 1546 356.654L1545.13 354.85C1543.35 355.703 1541.94 357.024 1540.91 358.782L1542.63 359.794ZM1545.99 356.658C1547.48 355.957 1549.06 355.608 1550.71 355.608V353.608C1548.76 353.608 1546.9 354.021 1545.14 354.846L1545.99 356.658ZM1593.43 356.168L1592.91 357.021L1592.92 357.025L1593.43 356.168ZM1597.39 360.588L1596.48 361.015L1596.49 361.025L1596.49 361.035L1597.39 360.588ZM1598.79 369.948V370.948H1599.79V369.948H1598.79ZM1579.71 369.948V368.948H1578.68L1578.71 369.97L1579.71 369.948ZM1582.1 377.176L1581.36 377.852L1581.37 377.86L1581.37 377.868L1582.1 377.176ZM1593.28 379.152L1593.5 380.126L1593.51 380.124L1593.52 380.122L1593.28 379.152ZM1597.54 377.696H1598.54V376.179L1597.15 376.777L1597.54 377.696ZM1597.54 381.7L1597.94 382.616L1598.54 382.353V381.7H1597.54ZM1593.33 383.052L1593.13 382.071L1593.12 382.074L1593.11 382.076L1593.33 383.052ZM1581.37 381.908L1580.9 382.79L1580.9 382.793L1581.37 381.908ZM1576.64 377.124L1575.75 377.583L1575.75 377.591L1575.76 377.6L1576.64 377.124ZM1576.48 361.42L1575.58 360.99L1575.57 361.002L1576.48 361.42ZM1580.8 356.376L1580.26 355.53L1580.26 355.534L1580.8 356.376ZM1582.05 360.484L1581.3 359.814L1581.3 359.815L1582.05 360.484ZM1579.81 366.308L1578.81 366.211L1578.71 367.308H1579.81V366.308ZM1594.01 366.308V367.308H1595.02L1595.01 366.293L1594.01 366.308ZM1592.34 360.588L1591.53 361.173L1591.54 361.182L1592.34 360.588ZM1587.3 355.608C1589.54 355.608 1591.4 356.095 1592.91 357.021L1593.96 355.315C1592.07 354.161 1589.84 353.608 1587.3 353.608V355.608ZM1592.92 357.025C1594.48 357.959 1595.66 359.279 1596.48 361.015L1598.29 360.161C1597.31 358.083 1595.86 356.457 1593.95 355.311L1592.92 357.025ZM1596.49 361.035C1597.34 362.742 1597.79 364.785 1597.79 367.192H1599.79C1599.79 364.538 1599.3 362.178 1598.28 360.141L1596.49 361.035ZM1597.79 367.192V369.948H1599.79V367.192H1597.79ZM1598.79 368.948H1579.71V370.948H1598.79V368.948ZM1578.71 369.97C1578.78 373.271 1579.62 375.949 1581.36 377.852L1582.83 376.5C1581.53 375.075 1580.77 372.934 1580.71 369.926L1578.71 369.97ZM1581.37 377.868C1583.17 379.738 1585.62 380.62 1588.6 380.62V378.62C1586.03 378.62 1584.15 377.873 1582.82 376.484L1581.37 377.868ZM1588.6 380.62C1590.42 380.62 1592.06 380.459 1593.5 380.126L1593.05 378.178C1591.79 378.469 1590.31 378.62 1588.6 378.62V380.62ZM1593.52 380.122C1594.96 379.761 1596.44 379.258 1597.94 378.615L1597.15 376.777C1595.74 377.382 1594.36 377.849 1593.03 378.182L1593.52 380.122ZM1596.54 377.696V381.7H1598.54V377.696H1596.54ZM1597.14 380.784C1595.78 381.382 1594.44 381.81 1593.13 382.071L1593.53 384.033C1594.99 383.74 1596.46 383.266 1597.94 382.616L1597.14 380.784ZM1593.11 382.076C1591.81 382.368 1590.25 382.52 1588.39 382.52V384.52C1590.35 384.52 1592.07 384.36 1593.55 384.028L1593.11 382.076ZM1588.39 382.52C1585.89 382.52 1583.72 382.012 1581.83 381.023L1580.9 382.793C1583.11 383.953 1585.62 384.52 1588.39 384.52V382.52ZM1581.84 381.026C1580.01 380.049 1578.57 378.6 1577.52 376.648L1575.76 377.6C1576.99 379.877 1578.7 381.618 1580.9 382.79L1581.84 381.026ZM1577.53 376.665C1576.51 374.692 1575.97 372.241 1575.97 369.272H1573.97C1573.97 372.474 1574.55 375.258 1575.75 377.583L1577.53 376.665ZM1575.97 369.272C1575.97 366.328 1576.46 363.861 1577.39 361.838L1575.57 361.002C1574.49 363.347 1573.97 366.114 1573.97 369.272H1575.97ZM1577.38 361.85C1578.35 359.816 1579.67 358.285 1581.34 357.218L1580.26 355.534C1578.25 356.824 1576.69 358.656 1575.58 360.99L1577.38 361.85ZM1581.33 357.222C1583.02 356.155 1585 355.608 1587.3 355.608V353.608C1584.67 353.608 1582.31 354.24 1580.26 355.53L1581.33 357.222ZM1587.25 357.352C1584.82 357.352 1582.8 358.152 1581.3 359.814L1582.79 361.154C1583.85 359.973 1585.3 359.352 1587.25 359.352V357.352ZM1581.3 359.815C1579.87 361.407 1579.07 363.575 1578.81 366.211L1580.8 366.405C1581.03 364.049 1581.73 362.334 1582.79 361.153L1581.3 359.815ZM1579.81 367.308H1594.01V365.308H1579.81V367.308ZM1595.01 366.293C1594.97 363.79 1594.38 361.662 1593.15 359.994L1591.54 361.182C1592.45 362.426 1592.97 364.111 1593.01 366.323L1595.01 366.293ZM1593.15 360.003C1591.84 358.184 1589.79 357.352 1587.25 357.352V359.352C1589.34 359.352 1590.69 360.011 1591.53 361.173L1593.15 360.003Z" fill="white"/>
<g clip-path="url(#clip2)">
<path d="M216.001 766C245.901 706.359 389.576 419.774 389.576 419.774C469.124 261.101 668.005 261.101 747.553 419.774L850.086 624.282C857.898 639.859 878.956 642.661 890.566 629.661C909.831 608.066 933.59 581.451 933.59 581.451C981.949 527.267 1064.61 511.601 1133.96 517.406C1205.89 523.424 1264.92 566.333 1314.35 615.9C1337.54 639.142 1358.84 664.234 1381.48 687.969C1388.1 694.917 1426.48 744.517 1446.01 766H216.001V766Z" fill="#52C189"/>
<path d="M1446 765.978H1076.5C1107.85 643.569 1231.4 620.663 1318.9 620.539C1340.33 642.459 1360.33 665.78 1381.47 687.947C1388.09 694.895 1426.47 744.495 1446 765.978Z" fill="#CBD84E"/>
<path d="M946.209 569.326C995.464 525.06 1070.51 512.206 1134.31 517.551C1161.43 519.826 1186.72 527.346 1210.36 538.485C1179.08 575.859 1107.54 614.802 946.209 569.326Z" fill="#52CEBF"/>
<path d="M604.157 304.258C602.095 373.066 569.393 527.256 330.895 607.36C316.247 612.28 302.462 616.247 289.507 619.34C337.485 523.648 389.564 419.752 389.564 419.752C436.152 326.827 523.657 288.355 604.157 304.258Z" fill="#CBD84E"/>
<path d="M258.183 681.861C289.395 673.938 319.811 673.703 348.3 683.968C548.099 755.97 544.827 690.278 680.847 680.674C768.442 674.488 819.087 727.483 844.067 766.011H216C223.811 750.412 239.412 719.302 258.183 681.861Z" fill="#52CEBF"/>
<path d="M1385.07 702.302C1381.94 700.173 1379.89 696.632 1379.89 692.62C1379.89 687.33 1383.45 682.848 1388.36 681.346C1388.35 681.122 1388.34 680.909 1388.34 680.685C1388.34 674.734 1393.27 669.915 1399.36 669.915C1400.1 669.915 1400.82 669.994 1401.53 670.128C1401.54 664.245 1405.24 659.471 1409.81 659.471C1414.33 659.471 1417.99 664.133 1418.09 669.915C1424.18 669.915 1429.11 674.734 1429.11 680.685C1429.11 680.83 1429.11 680.987 1429.1 681.133C1434.43 682.354 1438.4 687.039 1438.4 692.62C1438.4 696.374 1436.61 699.725 1433.81 701.887C1438.19 704.252 1440.82 707.267 1440.82 710.561C1440.82 718.126 1426.94 724.256 1409.8 724.256C1392.67 724.256 1378.78 718.126 1378.78 710.561C1378.8 707.457 1381.13 704.599 1385.07 702.302Z" fill="#1FB56D"/>
<path d="M1410.53 695.219C1410.33 694.222 1409.32 694.222 1409.12 695.219L1405.16 714.461L1400.77 735.821C1400.63 736.482 1400.98 737.143 1401.47 737.143H1409.83H1418.2C1418.69 737.143 1419.04 736.482 1418.9 735.821L1414.51 714.461L1410.53 695.219Z" fill="#D17A39"/>
<path d="M441.053 415.504C437.927 413.374 435.876 409.833 435.876 405.821C435.876 400.532 439.44 396.049 444.348 394.548C444.337 394.323 444.326 394.11 444.326 393.886C444.326 387.936 449.257 383.117 455.342 383.117C456.082 383.117 456.811 383.195 457.517 383.33C457.528 377.446 461.226 372.672 465.799 372.672C470.315 372.672 473.98 377.334 474.081 383.117C480.166 383.117 485.097 387.936 485.097 393.886C485.097 394.032 485.097 394.189 485.086 394.335C490.421 395.556 494.388 400.24 494.388 405.821C494.388 409.575 492.595 412.926 489.793 415.089C494.175 417.454 496.809 420.468 496.809 423.763C496.809 431.327 482.923 437.457 465.787 437.457C448.652 437.457 434.766 431.327 434.766 423.763C434.789 420.659 437.12 417.801 441.053 415.504Z" fill="#52CEBF"/>
<path d="M466.516 408.421C466.314 407.424 465.306 407.424 465.104 408.421L461.148 427.663L456.755 449.022C456.62 449.684 456.968 450.345 457.461 450.345H465.821H474.182C474.675 450.345 475.022 449.684 474.888 449.022L470.495 427.663L466.516 408.421Z" fill="#D17A39"/>
<path d="M542.496 317.47C545.208 317.47 547.404 315.318 547.404 312.674V248.796C547.404 246.152 545.208 244 542.496 244C539.784 244 537.587 246.152 537.587 248.796V312.674C537.598 315.318 539.795 317.47 542.496 317.47Z" fill="#724E07"/>
<path d="M491.515 284.803H535.558C537.71 284.803 539.447 283.1 539.447 281.004V251.867C539.447 249.772 537.71 248.068 535.558 248.068H510.376C509.042 248.068 507.798 248.741 507.092 249.839L488.231 278.965C486.595 281.497 488.455 284.803 491.515 284.803Z" fill="#F48EA6"/>
<path d="M1013.81 638.945C1012.26 638.945 1011.01 637.721 1011.01 636.217V599.888C1011.01 598.383 1012.26 597.16 1013.81 597.16C1015.35 597.16 1016.6 598.383 1016.6 599.888V636.217C1016.59 637.721 1015.34 638.945 1013.81 638.945Z" fill="#724E07"/>
<path d="M1042.8 620.366H1017.75C1016.53 620.366 1015.54 619.397 1015.54 618.205V601.634C1015.54 600.442 1016.53 599.473 1017.75 599.473H1032.07C1032.83 599.473 1033.54 599.856 1033.94 600.48L1044.67 617.045C1045.6 618.486 1044.54 620.366 1042.8 620.366Z" fill="#F48EA6"/>
<path d="M570.256 518.246C571.87 511.365 574.335 505.034 577.361 499.184C579.928 494.231 584.041 489.12 588.703 488.65C593.724 488.145 598.15 493.883 600.896 499.184C603.922 505.022 606.388 511.365 608.001 518.246C611.251 532.03 611.632 555.978 597.377 556.718C595.539 556.808 593.746 556.326 592.099 555.385C590.205 554.297 588.064 554.297 586.17 555.385C584.523 556.337 582.73 556.819 580.892 556.718C566.625 555.978 567.017 532.03 570.256 518.246Z" fill="#DBD14D"/>
<path d="M589.969 528.937C589.722 527.772 588.545 527.772 588.31 528.937L583.659 551.529L578.493 576.61C578.336 577.383 578.75 578.156 579.322 578.156H589.128H598.934C599.506 578.156 599.932 577.383 599.764 576.61L594.597 551.529L589.969 528.937Z" fill="#D17A39"/>
<path opacity="0.52" d="M676.92 454.67C675.304 452.904 675.42 450.179 677.18 448.569L689.441 437.35C697.311 430.148 706.099 426.901 715.824 427.61C725.539 428.328 734.043 432.662 741.326 440.621C748.609 448.58 752.16 457.481 751.973 467.297C751.785 477.131 747.791 485.617 739.981 492.764L727.81 503.901C726.05 505.511 723.326 505.385 721.71 503.619L676.92 454.67ZM723.319 486.583C724.935 488.349 727.659 488.475 729.42 486.865C742.62 474.786 743.371 462.353 731.661 449.556C719.952 436.76 707.502 436.406 694.301 448.485C692.541 450.095 692.425 452.82 694.041 454.586L723.319 486.583Z" fill="#A1E2E2"/>
<path d="M1132.87 482.251H1122.47C1121.07 482.251 1119.94 483.383 1119.94 484.783V548.055C1119.94 549.456 1121.07 550.588 1122.47 550.588H1160.34C1161.74 550.588 1162.88 549.456 1162.88 548.055V543.315C1162.88 541.914 1161.74 540.782 1160.34 540.782H1137.94C1136.54 540.782 1135.41 539.651 1135.41 538.25V484.772C1135.41 483.383 1134.27 482.251 1132.87 482.251Z" fill="#CBD84E"/>
<path d="M1211.67 696.228L1222.39 725.6C1222.61 726.206 1223.18 726.609 1223.82 726.609C1224.47 726.609 1225.05 726.194 1225.27 725.578L1235.33 696.105C1235.85 694.603 1238.02 694.783 1238.28 696.34L1243.03 724.648C1243.15 725.388 1243.79 725.925 1244.53 725.925H1250.35C1251.29 725.925 1252.01 725.085 1251.86 724.155L1243.54 673.333C1243.42 672.594 1242.78 672.056 1242.03 672.056H1237.81C1237.17 672.056 1236.61 672.448 1236.38 673.042L1224.56 704.263C1224.06 705.586 1222.17 705.574 1221.69 704.241L1210.41 673.064C1210.18 672.459 1209.61 672.056 1208.97 672.056H1204.7C1203.94 672.056 1203.3 672.616 1203.19 673.367L1195.77 724.188C1195.63 725.107 1196.35 725.937 1197.28 725.937H1203.1C1203.86 725.937 1204.5 725.376 1204.61 724.626L1208.74 696.542C1208.96 694.962 1211.13 694.738 1211.67 696.228Z" fill="#52CEBF"/>
<path d="M474.028 642.431L469.084 646.402C468.606 646.781 468.342 647.357 468.358 647.967L470.336 708.887C470.402 710.733 468.062 711.606 466.908 710.172L438.858 675.561C438.183 674.737 436.98 674.605 436.139 675.264L429.728 680.404C428.888 681.079 428.756 682.282 429.432 683.122L472.923 737.272C473.599 738.112 474.802 738.244 475.643 737.569L480.504 733.681C480.982 733.302 481.246 732.725 481.23 732.116L479.4 671.211C479.351 669.366 481.675 668.493 482.845 669.943L511.043 704.901C511.718 705.724 512.922 705.856 513.762 705.197L520.272 699.975C521.112 699.3 521.244 698.097 520.568 697.257L476.78 642.728C476.088 641.888 474.868 641.756 474.028 642.431Z" fill="#CBD84E"/>
<path d="M752.853 699.321H747.037C746.263 699.321 745.636 698.694 745.636 697.92V636.206C745.636 635.433 746.263 634.805 747.037 634.805H752.853C753.626 634.805 754.254 635.433 754.254 636.206V697.92C754.254 698.694 753.626 699.321 752.853 699.321Z" fill="#724E07"/>
<path d="M794.711 670.643H756.036C754.153 670.643 752.618 669.153 752.618 667.304V641.719C752.618 639.87 754.142 638.38 756.036 638.38H778.147C779.313 638.38 780.411 638.963 781.027 639.938L797.591 665.511C799.037 667.741 797.401 670.643 794.711 670.643Z" fill="#36A9E2"/>
<g clip-path="url(#clip3)">
<path d="M984.461 633.539C994.013 629.583 998.549 618.634 994.592 609.084C990.635 599.534 979.684 595 970.132 598.955C960.58 602.911 956.044 613.86 960 623.41C963.957 632.96 974.908 637.494 984.461 633.539Z" fill="#FFE5D2"/>
<path d="M989.975 591.111C989.595 590.424 988.863 590 988.074 590H978.348H976.227H966.501C965.711 590 964.995 590.424 964.6 591.111L953.923 610.164C953.104 611.611 954.157 613.395 955.825 613.395H976.227H978.348H998.75C1000.42 613.395 1001.46 611.611 1000.65 610.164L989.975 591.111Z" fill="#AA8A3A"/>
<path d="M993.705 672.789L977.266 658.957C955.884 642.478 946.041 666.823 946.041 666.823L939.489 684.442L937.968 688.537L936.447 692.631L929.924 710.265C929.193 712.239 929.836 714.3 931.357 714.871L942.955 719.286C944.491 719.871 946.363 718.716 947.094 716.728L955.153 694.912C956.571 691.11 957.976 687.308 959.394 683.521C959.935 682.074 960.476 680.626 961.018 679.164C961.486 677.907 961.822 676.547 962.7 675.494C965.522 672.16 969.091 676.371 971.27 678.199C973.391 679.983 975.511 681.767 977.632 683.551C978.217 684.048 978.817 684.545 979.402 685.042C980.133 685.656 980.528 686.592 980.455 687.557L978.963 705.834C978.831 707.457 980.031 708.89 981.654 709.036L994.013 710.148C995.651 710.294 997.113 709.08 997.245 707.428L998.985 686.036C999.57 678.681 995.197 674.119 993.705 672.789Z" fill="#F78B61"/>
<path d="M991.526 670.932H945.324C944.871 670.932 944.505 670.566 944.505 670.113V651.865C944.505 638.661 955.211 627.958 968.417 627.958C981.624 627.958 992.33 638.661 992.33 651.865V670.113C992.345 670.566 991.979 670.932 991.526 670.932Z" fill="#FFDC46"/>
<path d="M949.946 722.649L932.658 720.705C929.485 720.354 927.203 717.488 927.554 714.315C927.905 711.142 930.772 708.861 933.946 709.212L951.233 711.157C954.407 711.508 956.688 714.373 956.337 717.546C955.971 720.719 953.119 723 949.946 722.649Z" fill="#7C73BF"/>
<path d="M1001.37 711.42L984.637 716.187C981.566 717.064 978.363 715.28 977.485 712.209C976.608 709.139 978.392 705.937 981.463 705.059L998.195 700.293C1001.27 699.415 1004.47 701.199 1005.35 704.27C1006.21 707.34 1004.44 710.543 1001.37 711.42Z" fill="#7C73BF"/>
<path d="M962.933 640.855L935.891 663.226C935.072 663.913 933.814 663.752 933.083 662.875L928.739 657.626C928.022 656.749 928.095 655.535 928.914 654.848L955.957 632.432C956.776 631.745 958.034 631.906 958.765 632.783L963.109 638.033C963.84 638.91 963.752 640.167 962.933 640.855Z" fill="#FFDC46"/>
<path d="M934.691 663.489C933.785 666.618 930.318 667.978 927.481 666.882C924.644 665.785 923.254 662.48 924.424 659.527C925.594 656.573 928.797 655.038 931.635 656.135C934.457 657.231 935.569 660.433 934.691 663.489Z" fill="#FFE5D2"/>
<path d="M926.662 656.734L934.223 664.615L938.918 660.711L936.505 652.406L931.942 652.362L926.662 656.734Z" fill="#FFDC46"/>
<path d="M1016.87 639.641L1012.1 635.035C1011.26 634.216 1009.9 634.231 1009.08 635.094L1000.43 644.042C999.907 644.598 999.117 644.817 998.371 644.627L986.305 641.615C985.149 641.323 983.994 642.024 983.702 643.18L982.093 649.613C981.8 650.768 982.502 651.923 983.658 652.216L998.619 655.944C999.438 656.135 1003.18 656.822 1005.83 654.161L1016.92 642.682C1017.75 641.82 1017.72 640.475 1016.87 639.641Z" fill="#FFDC46"/>
<path d="M1020.31 640.635C1018.52 643.428 1014.41 644.013 1011.12 641.922C1007.83 639.831 1006.59 635.869 1008.37 633.061C1010.16 630.269 1014.27 629.684 1017.56 631.775C1020.86 633.88 1022.09 637.843 1020.31 640.635Z" fill="#FFE5D2"/>
<path d="M979.709 664.615H951.043C948.586 664.615 946.582 662.627 946.582 660.156V641.893C946.582 639.437 948.571 637.433 951.043 637.433H979.709C982.166 637.433 984.169 639.422 984.169 641.893V660.156C984.155 662.612 982.166 664.615 979.709 664.615Z" fill="#D17A39"/>
<path d="M979.709 637.433H951.043C950.59 637.433 950.165 637.521 949.756 637.653C949.873 646.192 956.82 653.079 965.39 653.079C973.961 653.079 980.908 646.192 981.025 637.653C980.586 637.521 980.148 637.433 979.709 637.433Z" fill="#E29969"/>
<path d="M956.629 637.433C956.907 633.105 959.861 629.552 963.869 628.382C960.169 629.099 956.775 630.663 953.894 632.871C953.09 634.216 952.578 635.766 952.476 637.433H956.629Z" fill="#D17A39"/>
<path d="M976.418 637.448H979.562C979.884 637.448 980.191 637.506 980.498 637.579C981.083 635.927 982.063 634.465 983.35 633.325C982.722 632.813 982.049 632.33 981.361 631.877C979.08 633.032 977.295 635.021 976.418 637.448Z" fill="#D17A39"/>
<path d="M966.194 653.02C966.194 654.044 965.361 654.877 964.337 654.877C963.313 654.877 962.479 654.044 962.479 653.02C962.479 651.997 963.313 651.163 964.337 651.163C965.361 651.163 966.194 651.997 966.194 653.02Z" fill="#FFDC46"/>
</g>
<path d="M941 425.288C941 411.637 929.282 400.577 914.821 400.577C911.173 400.577 907.7 401.285 904.549 402.559C903.768 392.389 892.554 384.319 878.822 384.319C873.08 384.319 867.783 385.726 863.5 388.117C863.566 387.534 863.603 386.942 863.603 386.351C863.603 377.223 855.92 369.568 845.581 367.528C844.684 353.302 830.383 342 812.865 342C798.47 342 786.242 349.638 781.849 360.257C780.091 360.082 778.296 359.982 776.479 359.982C752.373 359.982 732.834 376.057 732.834 395.888C732.834 399.902 733.636 403.758 735.11 407.356C726.282 410.496 720 418.542 720 427.97C720 440.139 730.448 450 743.34 450C743.72 450 744.092 449.992 744.464 449.975V450H915.128V449.992C929.443 449.833 941 438.839 941 425.288Z" fill="#F6F4F4"/>
<path d="M848.239 369L841.346 377.068C841.189 377.248 840.991 377.381 840.782 377.449L829.08 380.965C828.577 381.116 828.182 381.656 828.222 382.157L828.316 383.64C828.345 384.142 828.791 384.431 829.295 384.281L834.648 382.678C835.52 382.421 835.967 383.382 835.332 384.128L832.31 387.667C831.931 388.105 831.91 388.704 832.257 388.998L833.273 389.864C833.62 390.159 834.208 390.049 834.576 389.613L837.432 386.267C838.068 385.522 839.089 385.824 838.973 386.715L838.265 391.959C838.2 392.488 838.54 392.872 839.051 392.831L840.527 392.694C841.026 392.643 841.499 392.178 841.566 391.659L843.169 379.849C843.199 379.634 843.304 379.407 843.45 379.228L850.509 370.968C850.888 370.529 850.909 369.931 850.562 369.636L849.546 368.77C849.195 368.454 848.607 368.564 848.239 369Z" fill="#D17A39"/>
<path d="M846.001 362.949L835.401 363.436C835.16 363.443 834.931 363.394 834.736 363.283L824.172 357.15C823.709 356.886 823.06 356.962 822.716 357.339L821.707 358.423C821.361 358.79 821.447 359.305 821.91 359.569L826.746 362.374C827.527 362.827 827.131 363.819 826.157 363.861L821.509 364.079C820.93 364.11 820.487 364.492 820.509 364.952L820.567 366.287C820.589 366.746 821.065 367.085 821.646 367.065L826.044 366.868C827.029 366.824 827.509 367.78 826.769 368.301L822.454 371.361C822.02 371.665 821.976 372.191 822.352 372.525L823.464 373.507C823.84 373.841 824.505 373.861 824.928 373.559L834.641 366.661C834.818 366.532 835.048 366.461 835.288 366.442L846.14 365.946C846.719 365.915 847.162 365.532 847.14 365.073L847.081 363.738C847.059 363.278 846.571 362.93 846.001 362.949Z" fill="#D17A39"/>
<path d="M943.097 328.436C943.69 328.491 943.984 329.191 943.598 329.653L938.719 335.332L932.91 342.105L929.829 334.574L926.747 327.043L935.638 327.801L943.097 328.436Z" fill="#D17A39"/>
<path d="M924.566 360.924C929.065 353.011 929.661 344.861 925.898 342.721C922.135 340.582 915.437 345.262 910.938 353.175C906.439 361.088 905.843 369.237 909.606 371.377C913.369 373.517 920.067 368.837 924.566 360.924Z" fill="#43BA81"/>
<path d="M896.124 369.987C921.259 359.686 938.247 343.07 934.069 332.875C929.891 322.679 906.127 322.765 880.992 333.066C855.857 343.368 838.869 359.984 843.047 370.179C847.225 380.374 870.989 380.289 896.124 369.987Z" fill="#FFDC46"/>
<path d="M886.918 359.318C885.688 358.621 884.138 358.649 882.45 359.296C881.859 359.516 881.21 359.526 880.643 359.235C876.489 357.076 868.716 357.531 860.764 360.793C850.306 365.082 843.484 372.587 845.519 377.559C846.526 380.014 849.313 381.057 851.748 381.442C855.511 382.057 859.46 381.483 863.109 380.496C863.847 380.295 864.581 380.073 865.303 379.842C865.971 379.62 866.659 379.185 867.399 379.193C868.328 379.213 868.32 379.821 868.246 380.561C868.209 380.997 868.171 381.433 868.168 381.875C868.153 382.77 868.215 383.664 868.405 384.536C868.71 385.896 869.378 387.25 870.634 387.966C874.398 390.101 881.089 385.43 885.592 377.509C890.078 369.614 890.674 361.467 886.918 359.318Z" fill="#52C189"/>
<path d="M913.457 336.668C915.316 336.357 916.571 334.597 916.259 332.737C915.947 330.878 914.187 329.623 912.328 329.935C910.468 330.247 909.214 332.007 909.525 333.866C909.837 335.726 911.597 336.98 913.457 336.668Z" fill="#D17A39"/>
</g>
<path d="M1532.08 239.306C1532.08 228.696 1540.67 220.091 1551.27 220.091C1553.94 220.091 1556.49 220.638 1558.8 221.628C1559.38 213.721 1567.6 207.439 1577.66 207.439C1581.87 207.439 1585.75 208.535 1588.89 210.39C1588.85 209.94 1588.82 209.48 1588.82 209.012C1588.82 201.909 1594.46 195.963 1602.04 194.373C1602.69 183.312 1613.18 174.521 1626.01 174.521C1636.57 174.521 1645.53 180.458 1648.75 188.719C1650.04 188.577 1651.35 188.507 1652.68 188.507C1670.35 188.507 1684.68 201.008 1684.68 216.433C1684.68 219.552 1684.09 222.556 1683.01 225.356C1689.49 227.803 1694.08 234.058 1694.08 241.391C1694.08 250.853 1686.42 258.521 1676.98 258.521C1676.7 258.521 1676.42 258.513 1676.15 258.504V258.521H1551.05V258.513C1540.55 258.398 1532.08 249.846 1532.08 239.306Z" fill="#F7F4F4"/>
<path d="M113 276.25C113 262.943 123.916 252.141 137.387 252.141C140.784 252.141 144.019 252.835 146.956 254.076C147.681 244.15 158.124 236.285 170.917 236.285C176.259 236.285 181.199 237.662 185.183 239.984C185.125 239.415 185.09 238.846 185.09 238.266C185.09 229.353 192.252 221.897 201.878 219.905C202.707 206.03 216.029 195 232.345 195C245.747 195 257.146 202.456 261.234 212.814C262.869 212.643 264.538 212.552 266.231 212.552C288.683 212.552 306.887 228.237 306.887 247.577C306.887 251.492 306.139 255.249 304.769 258.766C312.99 261.816 318.839 269.67 318.839 278.868C318.839 290.74 309.109 300.358 297.1 300.358C296.743 300.358 296.398 300.347 296.052 300.335V300.358H137.099V300.347C123.766 300.199 113 289.465 113 276.25Z" fill="#F6F4F4"/>
<path d="M353.463 627.734C351.553 627.734 350.001 626.227 350.001 624.363V579.371C350.001 577.507 351.553 576 353.463 576C355.374 576 356.926 577.507 356.926 579.371V624.363C356.926 626.227 355.374 627.734 353.463 627.734Z" fill="#724E07"/>
<path d="M389.387 604.731H358.358C356.851 604.731 355.612 603.538 355.612 602.046V581.534C355.612 580.057 356.836 578.849 358.358 578.849H376.104C377.044 578.849 377.91 579.312 378.417 580.102L391.701 600.614C392.865 602.404 391.551 604.731 389.387 604.731Z" fill="#F49138"/>
<defs>
<clipPath id="clip0">
<rect width="51.17" height="51.17" fill="white" transform="translate(48 357)"/>
</clipPath>
<clipPath id="clip1">
<rect width="51.17" height="51.17" fill="white" transform="translate(1873.17 408) rotate(-180)"/>
</clipPath>
<clipPath id="clip2">
<rect width="1230" height="522" fill="white" transform="matrix(-1 0 0 1 1446 244)"/>
</clipPath>
<clipPath id="clip3">
<rect width="97.1276" height="132.693" fill="white" transform="translate(924 590)"/>
</clipPath>
</defs>
</svg>
