<svg width="1920" height="766" viewBox="0 0 1920 766" fill="none" xmlns="http://www.w3.org/2000/svg">
<path d="M1920 0H0V766H1920V0Z" fill="#C8CDFF"/>
<g clip-path="url(#clip0)">
<path opacity="0.7" d="M98.4738 388.465C101.72 374.717 93.2065 360.939 79.4577 357.693C65.7088 354.446 51.9314 362.96 48.6849 376.709C45.4384 390.458 53.9523 404.235 67.7011 407.482C81.4499 410.728 95.2274 402.214 98.4738 388.465Z" fill="#38AF7E"/>
<path d="M66.2397 382.52L80.9297 369.05" stroke="#EDEDED" stroke-width="4" stroke-miterlimit="10" stroke-linecap="round" stroke-linejoin="round"/>
<path d="M80.9297 396.11L66.2397 382.65" stroke="#EDEDED" stroke-width="4" stroke-miterlimit="10" stroke-linecap="round" stroke-linejoin="round"/>
</g>
<g clip-path="url(#clip1)">
<path opacity="0.7" d="M1822.7 376.535C1819.45 390.283 1827.96 404.061 1841.71 407.307C1855.46 410.554 1869.24 402.04 1872.48 388.291C1875.73 374.542 1867.22 360.765 1853.47 357.518C1839.72 354.272 1825.94 362.786 1822.7 376.535Z" fill="#38AF7E"/>
<path d="M1854.93 382.48L1840.24 395.95" stroke="#EDEDED" stroke-width="4" stroke-miterlimit="10" stroke-linecap="round" stroke-linejoin="round"/>
<path d="M1840.24 368.89L1854.93 382.35" stroke="#EDEDED" stroke-width="4" stroke-miterlimit="10" stroke-linecap="round" stroke-linejoin="round"/>
</g>
<g clip-path="url(#clip2)">
<path d="M1103.69 511.551C1053.19 426.489 926.934 426.489 876.435 511.551L762.815 702.942H990.066H1217.31L1103.69 511.551Z" fill="#43BA81"/>
<path d="M915.105 530.686C901.298 522.489 887.828 517.216 874.782 514.313L876.435 511.541C926.934 426.478 1053.19 426.478 1103.69 511.541L1128.75 553.757C1103.2 562.53 1053.97 526.207 1014.68 537.525C985.717 545.885 948.775 550.68 915.105 530.686Z" fill="#52C189"/>
<path d="M885.241 499.679C825.903 381.316 677.558 381.316 618.232 499.679L484.727 766H751.736H1018.75L885.241 499.679Z" fill="#9E964A"/>
<path d="M1284.06 620.282C1226.26 555.518 1081.79 555.518 1024 620.282L893.96 766H1154.03H1414.09L1284.06 620.282Z" fill="#B2AE20"/>
<path d="M874.304 681.329C871.727 679.567 870.042 676.654 870.042 673.349C870.042 668.989 872.977 665.292 877.022 664.064C877.011 663.879 877 663.705 877 663.52C877 658.617 881.066 654.649 886.078 654.649C886.687 654.649 887.285 654.714 887.861 654.823C887.872 649.974 890.916 646.038 894.688 646.038C898.406 646.038 901.429 649.876 901.505 654.649C906.517 654.649 910.583 658.617 910.583 663.52C910.583 663.64 910.583 663.759 910.572 663.89C914.964 664.901 918.236 668.75 918.236 673.359C918.236 676.458 916.758 679.209 914.453 680.992C918.062 682.938 920.237 685.427 920.237 688.134C920.237 694.364 908.8 699.409 894.688 699.409C880.577 699.409 869.14 694.364 869.14 688.134C869.14 685.569 871.064 683.21 874.304 681.329Z" fill="#52C189"/>
<path d="M895.275 675.491C895.101 674.664 894.275 674.664 894.112 675.491L890.851 691.342L887.23 708.944C887.122 709.487 887.404 710.031 887.817 710.031H894.699H901.581C901.983 710.031 902.277 709.487 902.168 708.944L898.548 691.342L895.275 675.491Z" fill="#D17A39"/>
<path d="M850.104 217.083C850.104 198.068 831.459 182.651 808.465 182.651C802.659 182.651 797.137 183.63 792.125 185.413C790.885 171.247 773.045 160.005 751.204 160.005C742.071 160.005 733.646 161.973 726.84 165.289C726.938 164.473 727.003 163.658 727.003 162.821C727.003 150.101 714.783 139.435 698.335 136.587C696.91 116.767 674.156 101.013 646.303 101.013C623.407 101.013 603.957 111.657 596.967 126.454C594.162 126.204 591.313 126.073 588.422 126.073C550.077 126.073 519.006 148.47 519.006 176.096C519.006 181.684 520.278 187.055 522.626 192.077C508.591 196.459 498.599 207.657 498.599 220.801C498.599 237.751 515.222 251.493 535.715 251.493C536.313 251.493 536.911 251.482 537.509 251.46V251.493H808.954V251.482C831.719 251.286 850.104 235.957 850.104 217.083Z" fill="#EAEAEA"/>
<path d="M861.399 505.963C850.756 500.179 842.048 492.188 831.611 486.155C821.174 480.121 807.802 476.098 795.886 479.686C775.208 485.915 768.327 511.573 746.746 515.009C732.733 517.238 719.611 508.605 710.424 499.397C701.237 490.188 693.029 479.381 679.951 474.565C658.936 466.835 639.203 480.153 622.733 491.819C651.771 439.981 698.661 413.051 746.279 411.029C746.659 411.018 747.04 410.985 747.42 410.975C748.116 410.953 748.812 410.953 749.508 410.942C750.421 410.92 751.323 410.898 752.237 410.898C804.095 410.975 855.92 440.557 885.556 499.668L891.818 512.16C881.61 513.976 870.379 510.845 861.399 505.963Z" fill="#C5CC36"/>
<path d="M1099.67 646.18C1087.72 648.985 1076.29 653.779 1064.23 656.127C1042.88 660.27 1019.43 657.182 999.676 647.539L1024 620.282C1081.79 555.518 1226.26 555.518 1284.06 620.282L1302.19 640.613C1301.67 641.189 1301.15 641.765 1300.62 642.331C1286.09 657.323 1263.61 662.662 1242.51 661.824C1221.4 660.987 1200.98 654.801 1180.43 650.017C1153.97 643.853 1126.14 639.993 1099.67 646.18Z" fill="#DBD14D"/>
<path d="M839.554 531.628C840.902 531.628 842 530.562 842 529.236V497.392C842 496.076 840.902 495 839.554 495C838.206 495 837.108 496.065 837.108 497.392V529.236C837.108 530.551 838.206 531.628 839.554 531.628Z" fill="#724E07"/>
<path d="M814.147 515.341H836.097C837.162 515.341 838.032 514.493 838.032 513.45V498.925C838.032 497.881 837.162 497.033 836.097 497.033H823.54C822.877 497.033 822.257 497.37 821.898 497.914L812.494 512.439C811.69 513.7 812.614 515.341 814.147 515.341Z" fill="#F48EA6"/>
<path d="M956.135 586.144H956.092C955.037 586.144 954.189 585.285 954.189 584.242V559.182C954.189 558.127 955.048 557.279 956.092 557.279H956.135C957.19 557.279 958.038 558.138 958.038 559.182V584.242C958.038 585.296 957.19 586.144 956.135 586.144Z" fill="#724E07"/>
<path d="M976.15 573.304H958.842C957.994 573.304 957.309 572.63 957.309 571.815V560.367C957.309 559.54 957.994 558.877 958.842 558.877H968.735C969.257 558.877 969.746 559.138 970.029 559.573L977.443 571.021C978.085 572.011 977.346 573.304 976.15 573.304Z" fill="#F49138"/>
<path d="M1234.33 590.025C1231.3 587.96 1229.31 584.524 1229.31 580.632C1229.31 575.5 1232.77 571.152 1237.53 569.695C1237.52 569.477 1237.51 569.271 1237.51 569.053C1237.51 563.28 1242.29 558.605 1248.19 558.605C1248.91 558.605 1249.62 558.681 1250.3 558.812C1250.31 553.104 1253.9 548.473 1258.34 548.473C1262.72 548.473 1266.27 552.995 1266.37 558.605C1272.27 558.605 1277.06 563.28 1277.06 569.053C1277.06 569.195 1277.06 569.347 1277.05 569.488C1282.22 570.673 1286.07 575.218 1286.07 580.632C1286.07 584.274 1284.33 587.525 1281.61 589.623C1285.86 591.917 1288.42 594.842 1288.42 598.038C1288.42 605.377 1274.95 611.324 1258.33 611.324C1241.7 611.324 1228.23 605.377 1228.23 598.038C1228.24 595.027 1230.52 592.243 1234.33 590.025Z" fill="#1FB56D"/>
<path d="M1259.03 583.154C1258.84 582.187 1257.86 582.187 1257.66 583.154L1253.82 601.822L1249.56 622.544C1249.43 623.185 1249.77 623.827 1250.25 623.827H1258.36H1266.47C1266.95 623.827 1267.28 623.185 1267.15 622.544L1262.89 601.822L1259.03 583.154Z" fill="#D17A39"/>
<path d="M1037.03 520.097C1037.82 516.716 1039.04 513.595 1040.53 510.714C1041.79 508.279 1043.82 505.757 1046.11 505.528C1048.58 505.278 1050.75 508.105 1052.11 510.714C1053.6 513.585 1054.81 516.705 1055.61 520.097C1057.21 526.881 1057.39 538.666 1050.38 539.025C1049.48 539.069 1048.6 538.829 1047.78 538.362C1046.85 537.829 1045.79 537.829 1044.86 538.362C1044.04 538.829 1043.16 539.069 1042.26 539.025C1035.25 538.666 1035.43 526.881 1037.03 520.097Z" fill="#D5EF3A"/>
<path d="M1046.72 527.751C1046.6 527.196 1046.04 527.196 1045.92 527.751L1043.72 538.471L1041.27 550.375C1041.2 550.745 1041.39 551.115 1041.66 551.115H1046.32H1050.97C1051.24 551.115 1051.44 550.745 1051.36 550.375L1048.91 538.471L1046.72 527.751Z" fill="#D17A39"/>
<path d="M1092.44 666.877C1091.22 666.877 1090.25 665.92 1090.25 664.735V636.142C1090.25 634.957 1091.22 634 1092.44 634C1093.66 634 1094.64 634.957 1094.64 636.142V664.735C1094.64 665.909 1093.65 666.877 1092.44 666.877Z" fill="#724E07"/>
<path d="M1115.26 652.254H1095.55C1094.59 652.254 1093.81 651.493 1093.81 650.547V637.512C1093.81 636.577 1094.59 635.805 1095.55 635.805H1106.83C1107.42 635.805 1107.98 636.098 1108.29 636.598L1116.73 649.634C1117.46 650.775 1116.63 652.254 1115.26 652.254Z" fill="#F48EA6"/>
<path d="M643.582 570.743C645.147 564.068 647.539 557.914 650.474 552.25C652.964 547.444 656.954 542.487 661.477 542.03C666.347 541.541 670.641 547.107 673.305 552.25C676.24 557.914 678.632 564.068 680.198 570.743C683.35 584.116 683.72 607.349 669.891 608.067C668.108 608.154 666.369 607.686 664.771 606.773C662.933 605.718 660.857 605.718 659.02 606.773C657.421 607.697 655.682 608.165 653.899 608.067C640.059 607.349 640.44 584.116 643.582 570.743Z" fill="#DBD14D"/>
<path d="M662.704 581.115C662.476 579.984 661.324 579.984 661.095 581.115L656.584 603.033L651.572 627.365C651.42 628.115 651.822 628.865 652.376 628.865H661.889H671.402C671.956 628.865 672.369 628.115 672.206 627.365L667.194 603.033L662.704 581.115Z" fill="#D17A39"/>
<path d="M717.722 644.14C719.038 638.53 721.049 633.365 723.517 628.614C725.604 624.57 728.953 620.406 732.758 620.026C736.846 619.612 740.455 624.287 742.695 628.614C745.162 633.376 747.163 638.541 748.489 644.151C751.131 655.381 751.446 674.897 739.835 675.505C738.335 675.582 736.878 675.19 735.53 674.418C733.986 673.527 732.236 673.527 730.692 674.418C729.344 675.19 727.887 675.592 726.387 675.505C714.765 674.897 715.08 655.381 717.722 644.14Z" fill="#88CDD8"/>
<path d="M733.638 659.959C733.486 659.208 732.725 659.208 732.573 659.959L729.583 674.484L726.267 690.607C726.169 691.107 726.43 691.607 726.8 691.607H733.105H739.411C739.781 691.607 740.052 691.107 739.944 690.607L736.628 674.484L733.638 659.959Z" fill="#D17A39"/>
<path d="M557.252 621.315C588.41 628.034 613.807 649.713 625.189 678.252C627.755 684.688 634.974 688.135 641.671 685.949C649.651 683.351 658.261 682.111 667.22 682.514C703.672 684.145 733.211 713.303 734.537 748.963C734.755 754.823 734.211 760.531 733.015 766H484.705L557.252 621.315Z" fill="#D0D83A"/>
<path d="M581.833 678.48C580.757 678.48 579.898 677.632 579.898 676.588V651.322C579.898 650.278 580.768 649.43 581.833 649.43C582.91 649.43 583.768 650.278 583.768 651.322V676.588C583.779 677.621 582.91 678.48 581.833 678.48Z" fill="#724E07"/>
<path d="M602 665.553H584.584C583.736 665.553 583.051 664.879 583.051 664.053V652.529C583.051 651.702 583.736 651.028 584.584 651.028H594.542C595.064 651.028 595.564 651.289 595.847 651.724L603.305 663.248C603.946 664.249 603.207 665.553 602 665.553Z" fill="#F49138"/>
<path d="M1265.3 705.432C1289.69 705.432 1311.73 712.325 1327.61 723.436C1334.08 727.959 1342.18 729.731 1350.04 728.546C1356.07 727.633 1362.33 727.154 1368.76 727.154C1372.52 727.154 1376.22 727.339 1379.86 727.655L1414.09 766.022H1177.67C1177.67 732.547 1216.9 705.432 1265.3 705.432Z" fill="#D0D83A"/>
<path d="M1011.98 724.98C1011.99 724.98 1012.01 724.991 1012.01 724.991C1012.01 724.991 1013.58 737.483 1026.69 742.473C1026.88 742.549 1027.05 742.625 1027.21 742.701C1039.54 747.811 1050.08 755.922 1057.73 766H893.971L973.856 676.469C993.621 686.232 1008.04 703.964 1011.98 724.98Z" fill="#D0D83A"/>
<path opacity="0.8" d="M932.715 475.711C938.309 485.399 944.68 488.173 951.836 484.042C954.632 482.427 956.504 479.69 957.47 475.818L950.013 473.319C949.954 475.738 949.294 477.312 948.032 478.04C946.77 478.769 945.466 478.706 944.129 477.846C942.791 476.986 940.96 474.553 938.644 470.543L924.25 445.61L917.574 449.465L932.724 475.705L932.715 475.711Z" fill="#DBD14D"/>
<path opacity="0.7" d="M596.01 735.732L600.837 747.876C601.272 748.974 602.327 749.692 603.501 749.692H610.035C612.046 749.692 613.427 747.681 612.72 745.8L587.53 679.296C587.106 678.176 586.041 677.437 584.845 677.437H578.159C576.952 677.437 575.887 678.187 575.463 679.317L550.914 745.821C550.219 747.691 551.61 749.681 553.611 749.681H560.253C561.449 749.681 562.525 748.942 562.939 747.822L567.45 735.776C567.874 734.656 568.94 733.917 570.136 733.917H593.336C594.521 733.928 595.575 734.645 596.01 735.732ZM584.823 702.442L591.085 720.729C591.727 722.588 590.335 724.534 588.367 724.534H575.484C573.495 724.534 572.103 722.555 572.788 720.685L579.409 702.399C580.333 699.844 583.953 699.876 584.823 702.442Z" fill="#43BA81"/>
<path d="M1026.94 583.423C1025.71 584.195 1024.07 583.374 1024 581.921C1023.93 580.347 1023.44 578.842 1022.53 577.397C1020.88 574.773 1018.41 573.256 1015.13 572.85C1011.86 572.445 1008.82 573.109 1006.04 574.867C1003.35 576.555 1001.49 578.947 1000.46 582.049C999.437 585.151 999.742 588.004 1001.39 590.629C1002.3 592.074 1003.46 593.179 1004.89 593.948C1006.18 594.639 1006.2 596.47 1004.97 597.252L1003.55 598.15C1002.91 598.552 1002.08 598.564 1001.46 598.127C999.374 596.684 997.777 595.104 996.701 593.378C994.193 589.393 993.551 585.12 994.779 580.546C996.006 575.972 998.657 572.411 1002.75 569.842C1006.98 567.175 1011.46 566.259 1016.17 567.086C1020.89 567.913 1024.51 570.35 1027.07 574.396C1028.19 576.181 1028.92 578.224 1029.28 580.519C1029.4 581.295 1029.06 582.075 1028.4 582.493L1026.94 583.423Z" fill="#E5CC61"/>
<path d="M1184.77 619.728V618.293C1184.77 617.13 1183.83 616.195 1182.67 616.195H1167.32C1166.15 616.195 1165.22 617.13 1165.22 618.293V653.388C1165.22 654.551 1166.15 655.486 1167.32 655.486H1169.79C1170.95 655.486 1171.88 654.551 1171.88 653.388V639.787C1171.88 638.624 1172.82 637.689 1173.98 637.689H1181.89C1183.05 637.689 1183.98 636.754 1183.98 635.59V634.155C1183.98 632.992 1183.05 632.057 1181.89 632.057H1173.98C1172.82 632.057 1171.88 631.122 1171.88 629.959V623.925C1171.88 622.761 1172.82 621.826 1173.98 621.826H1182.67C1183.83 621.826 1184.77 620.88 1184.77 619.728Z" fill="#43BA81"/>
<path d="M1168.89 619.163H1168.6C1167.85 619.163 1167.24 618.554 1167.24 617.804V598.027C1167.24 597.277 1167.85 596.668 1168.6 596.668H1168.89C1169.64 596.668 1170.25 597.277 1170.25 598.027V617.804C1170.25 618.554 1169.64 619.163 1168.89 619.163Z" fill="#724E07"/>
<path d="M1184.35 609.16H1170.87C1170.22 609.16 1169.68 608.638 1169.68 607.997V599.082C1169.68 598.441 1170.21 597.919 1170.87 597.919H1178.58C1178.99 597.919 1179.36 598.125 1179.59 598.462L1185.37 607.377C1185.87 608.149 1185.29 609.16 1184.35 609.16Z" fill="#36A9E2"/>
<path d="M1211.61 704.399C1212.53 700.474 1213.94 696.854 1215.66 693.527C1217.13 690.7 1219.47 687.787 1222.13 687.515C1224.99 687.221 1227.51 690.494 1229.09 693.527C1230.82 696.854 1232.22 700.474 1233.15 704.399C1234.99 712.26 1235.22 725.926 1227.09 726.339C1226.05 726.393 1225.02 726.111 1224.08 725.578C1223 724.958 1221.77 724.958 1220.7 725.578C1219.75 726.121 1218.73 726.393 1217.69 726.339C1209.53 725.926 1209.76 712.26 1211.61 704.399Z" fill="#88CDD8"/>
<path d="M1222.83 713.271C1222.7 712.629 1222.05 712.629 1221.92 713.271L1219.36 725.697L1216.52 739.494C1216.44 739.918 1216.66 740.353 1216.98 740.353H1222.38H1227.78C1228.09 740.353 1228.32 739.929 1228.23 739.494L1225.39 725.697L1222.83 713.271Z" fill="#D17A39"/>
<path d="M1064.64 665.431C1072.33 665.431 1078.56 659.201 1078.56 651.515C1078.56 643.83 1072.33 637.599 1064.64 637.599C1056.96 637.599 1050.73 643.83 1050.73 651.515C1050.73 659.201 1056.96 665.431 1064.64 665.431Z" fill="#FFE5D2"/>
<path d="M1074.07 632.826C1073.79 632.315 1073.24 632 1072.65 632H1065.43H1063.85H1056.62C1056.03 632 1055.5 632.315 1055.21 632.826L1047.27 646.992C1046.66 648.069 1047.44 649.395 1048.68 649.395H1063.85H1065.43H1080.59C1081.83 649.395 1082.6 648.069 1082 646.992L1074.07 632.826Z" fill="#AA8A3A"/>
<path d="M1076.84 693.557L1064.62 683.272C1048.73 671.02 1041.41 689.122 1041.41 689.122L1036.54 702.222L1035.41 705.267L1034.28 708.311L1029.43 721.422C1028.89 722.89 1029.36 724.423 1030.49 724.847L1039.12 728.13C1040.27 728.565 1041.65 727.706 1042.19 726.228L1048.18 710.007C1049.24 707.18 1050.28 704.353 1051.34 701.537C1051.74 700.461 1052.14 699.385 1052.54 698.298C1052.89 697.363 1053.14 696.352 1053.79 695.569C1055.89 693.09 1058.54 696.221 1060.16 697.58C1061.74 698.906 1063.32 700.233 1064.89 701.559C1065.33 701.929 1065.77 702.299 1066.21 702.668C1066.75 703.125 1067.05 703.821 1066.99 704.538L1065.88 718.128C1065.78 719.335 1066.68 720.4 1067.88 720.509L1077.07 721.335C1078.29 721.444 1079.37 720.542 1079.47 719.313L1080.77 703.407C1081.2 697.95 1077.95 694.547 1076.84 693.557Z" fill="#F78B61"/>
<path d="M1075.22 692.187H1040.88C1040.54 692.187 1040.27 691.916 1040.27 691.579V678.01C1040.27 668.193 1048.23 660.235 1058.04 660.235C1067.86 660.235 1075.82 668.193 1075.82 678.01V691.579C1075.83 691.905 1075.56 692.187 1075.22 692.187Z" fill="#FFDC46"/>
<path d="M1044.31 730.631L1031.46 729.185C1029.1 728.924 1027.41 726.793 1027.67 724.434C1027.93 722.075 1030.06 720.379 1032.42 720.64L1045.27 722.086C1047.63 722.346 1049.32 724.477 1049.06 726.837C1048.79 729.196 1046.67 730.903 1044.31 730.631Z" fill="#7C73BF"/>
<path d="M1082.54 722.281L1070.1 725.825C1067.82 726.478 1065.44 725.151 1064.78 722.868C1064.13 720.585 1065.46 718.204 1067.74 717.552L1080.18 714.007C1082.46 713.355 1084.84 714.682 1085.49 716.965C1086.14 719.248 1084.82 721.629 1082.54 722.281Z" fill="#7C73BF"/>
<path d="M1053.97 669.813L1033.86 686.447C1033.26 686.958 1032.32 686.838 1031.78 686.186L1028.55 682.283C1028.02 681.631 1028.07 680.728 1028.68 680.217L1048.78 663.551C1049.39 663.04 1050.32 663.159 1050.87 663.811L1054.1 667.715C1054.64 668.367 1054.58 669.302 1053.97 669.813Z" fill="#FFDC46"/>
<path d="M1032.97 686.643C1032.3 688.969 1029.72 689.98 1027.61 689.165C1025.5 688.35 1024.47 685.892 1025.34 683.696C1026.21 681.5 1028.59 680.359 1030.7 681.174C1032.81 681.989 1033.63 684.381 1032.97 686.643Z" fill="#FFE5D2"/>
<path d="M1027 681.62L1032.63 687.48L1036.12 684.588L1034.32 678.402L1030.93 678.369L1027 681.62Z" fill="#FFDC46"/>
<path d="M1094.06 668.921L1090.52 665.497C1089.89 664.888 1088.88 664.899 1088.27 665.54L1081.84 672.194C1081.45 672.607 1080.86 672.77 1080.31 672.629L1071.34 670.389C1070.48 670.172 1069.62 670.694 1069.4 671.552L1068.21 676.336C1067.99 677.195 1068.51 678.054 1069.37 678.271L1080.49 681.044C1081.1 681.185 1083.89 681.696 1085.85 679.717L1094.09 671.183C1094.71 670.53 1094.69 669.53 1094.06 668.921Z" fill="#FFDC46"/>
<path d="M1096.6 669.694C1097.93 667.611 1097.01 664.662 1094.57 663.108C1092.12 661.553 1089.06 661.982 1087.74 664.065C1086.42 666.149 1087.33 669.098 1089.78 670.652C1092.22 672.207 1095.28 671.778 1096.6 669.694Z" fill="#FFE5D2"/>
<path d="M1066.44 687.48H1045.13C1043.3 687.48 1041.81 686.001 1041.81 684.164V670.585C1041.81 668.758 1043.29 667.269 1045.13 667.269H1066.44C1068.26 667.269 1069.75 668.747 1069.75 670.585V684.164C1069.74 685.99 1068.26 687.48 1066.44 687.48Z" fill="#D17A39"/>
<path d="M1066.44 667.269H1045.13C1044.79 667.269 1044.48 667.334 1044.17 667.432C1044.26 673.781 1049.42 678.902 1055.79 678.902C1062.16 678.902 1067.33 673.781 1067.41 667.432C1067.09 667.334 1066.77 667.269 1066.44 667.269Z" fill="#E29969"/>
<path d="M1049.28 667.269C1049.49 664.051 1051.68 661.409 1054.66 660.539C1051.91 661.072 1049.39 662.235 1047.25 663.877C1046.65 664.877 1046.27 666.029 1046.19 667.269H1049.28Z" fill="#D17A39"/>
<path d="M1063.99 667.291H1066.33C1066.57 667.291 1066.8 667.334 1067.02 667.389C1067.46 666.16 1068.19 665.073 1069.14 664.225C1068.68 663.844 1068.18 663.485 1067.66 663.148C1065.97 663.996 1064.65 665.486 1063.99 667.291Z" fill="#D17A39"/>
<path d="M1055 680.239C1055.76 680.239 1056.38 679.621 1056.38 678.858C1056.38 678.096 1055.76 677.478 1055 677.478C1054.24 677.478 1053.62 678.096 1053.62 678.858C1053.62 679.621 1054.24 680.239 1055 680.239Z" fill="#FFDC46"/>
<path d="M743.929 428.346L748.778 415.235C748.767 415.235 749.908 412.19 749.908 412.19L751.039 409.146C751.05 409.146 755.91 396.045 755.91 396.045C755.91 396.045 760.258 385.326 769.51 385.989C778.762 385.326 783.111 396.045 783.111 396.045L787.981 409.146L789.112 412.19L790.242 415.235L795.091 428.346C795.635 429.814 795.156 431.347 794.026 431.771L785.404 435.054C784.252 435.489 782.871 434.63 782.328 433.152L776.337 416.931C775.283 414.104 774.239 411.277 773.185 408.461C772.782 407.385 772.38 406.309 771.978 405.221C771.63 404.286 771.38 403.275 770.728 402.493C770.336 402.036 769.934 401.775 769.521 401.645C769.108 401.764 768.695 402.025 768.314 402.493C767.662 403.264 767.412 404.286 767.064 405.221C766.662 406.298 766.259 407.374 765.857 408.461C764.803 411.288 763.759 414.115 762.704 416.931L756.714 433.152C756.17 434.641 754.779 435.489 753.637 435.054L745.016 431.771C743.864 431.336 743.385 429.814 743.929 428.346Z" fill="#BC9F28"/>
<path d="M752.333 399.176H786.666C787.003 399.176 787.274 398.905 787.274 398.568V384.999C787.274 375.182 779.316 367.224 769.499 367.224C759.682 367.224 751.724 375.182 751.724 384.999V398.568C751.724 398.905 751.996 399.176 752.333 399.176Z" fill="#069176"/>
<path d="M778.066 381.629L798.168 364.995C798.776 364.484 799.711 364.604 800.255 365.256L803.484 369.159C804.017 369.811 803.962 370.714 803.354 371.225L783.252 387.892C782.643 388.403 781.708 388.283 781.164 387.631L777.935 383.728C777.392 383.075 777.446 382.129 778.066 381.629Z" fill="#069176"/>
<path d="M805.027 369.811L799.407 363.962L795.906 366.854L797.711 373.029L801.103 373.062L805.027 369.811Z" fill="#069176"/>
<path d="M761.737 380.216L741.635 363.582C741.026 363.071 740.091 363.19 739.548 363.842L736.319 367.746C735.786 368.398 735.841 369.3 736.449 369.811L756.551 386.478C757.16 386.989 758.095 386.869 758.638 386.217L761.867 382.314C762.411 381.662 762.346 380.727 761.737 380.216Z" fill="#069176"/>
<path d="M734.774 368.409L740.384 362.549L743.885 365.441L742.08 371.627L738.688 371.66L734.774 368.409Z" fill="#069176"/>
<path d="M799.059 364.788C799.733 362.462 802.31 361.451 804.419 362.266C806.528 363.081 807.561 365.539 806.691 367.735C805.821 369.931 803.44 371.072 801.331 370.257C799.222 369.442 798.396 367.061 799.059 364.788Z" fill="#FFE5D2"/>
<path d="M740.732 363.386C740.058 361.059 737.482 360.048 735.372 360.864C733.263 361.679 732.231 364.136 733.1 366.332C733.97 368.528 736.351 369.67 738.46 368.855C740.569 368.039 741.395 365.647 740.732 363.386Z" fill="#FFE5D2"/>
<path d="M769.499 372.432C761.814 372.432 755.583 366.201 755.583 358.515C755.583 350.83 761.814 344.599 769.499 344.599C777.185 344.599 783.415 350.83 783.415 358.515C783.415 366.201 777.185 372.432 769.499 372.432Z" fill="#FFE5D2"/>
<path d="M760.073 339.826C760.356 339.315 760.9 339 761.487 339H768.716H770.293H777.523C778.11 339 778.642 339.315 778.936 339.826L786.872 353.993C787.481 355.069 786.698 356.395 785.459 356.395H770.293H768.716H753.55C752.311 356.395 751.539 355.069 752.137 353.993L760.073 339.826Z" fill="#AA8A3A"/>
<path d="M739.33 435.5L751.768 439.044C754.051 439.697 756.432 438.37 757.084 436.087C757.736 433.804 756.41 431.423 754.127 430.771L741.689 427.226C739.406 426.574 737.026 427.901 736.373 430.184C735.732 432.467 737.058 434.848 739.33 435.5Z" fill="#7C73BF"/>
<path d="M799.799 435.5L787.361 439.044C785.078 439.697 782.697 438.37 782.045 436.087C781.393 433.804 782.719 431.423 785.002 430.771L797.439 427.226C799.722 426.574 802.103 427.901 802.756 430.184C803.408 432.467 802.082 434.848 799.799 435.5Z" fill="#7C73BF"/>
<path d="M295.239 482L288.346 490.068C288.189 490.248 287.991 490.381 287.782 490.449L276.08 493.965C275.577 494.116 275.182 494.656 275.222 495.157L275.316 496.64C275.345 497.142 275.791 497.431 276.295 497.281L281.648 495.678C282.52 495.421 282.967 496.382 282.332 497.128L279.31 500.667C278.931 501.105 278.91 501.704 279.257 501.998L280.273 502.864C280.62 503.159 281.208 503.049 281.576 502.613L284.432 499.267C285.068 498.522 286.089 498.824 285.973 499.715L285.265 504.959C285.2 505.488 285.54 505.872 286.051 505.831L287.527 505.694C288.026 505.643 288.499 505.178 288.566 504.659L290.169 492.849C290.199 492.634 290.304 492.407 290.45 492.228L297.509 483.968C297.888 483.529 297.909 482.931 297.562 482.636L296.546 481.77C296.195 481.454 295.607 481.564 295.239 482Z" fill="#D17A39"/>
<path d="M293.001 475.949L282.401 476.436C282.16 476.443 281.931 476.394 281.736 476.283L271.173 470.15C270.71 469.886 270.061 469.962 269.716 470.339L268.708 471.423C268.361 471.79 268.447 472.305 268.911 472.569L273.746 475.374C274.528 475.827 274.132 476.819 273.158 476.861L268.509 477.079C267.93 477.11 267.487 477.492 267.509 477.952L267.568 479.287C267.59 479.746 268.065 480.085 268.646 480.065L273.045 479.868C274.029 479.824 274.509 480.78 273.77 481.301L269.455 484.361C269.021 484.665 268.977 485.191 269.352 485.525L270.465 486.507C270.841 486.841 271.505 486.861 271.929 486.559L281.641 479.661C281.818 479.532 282.049 479.461 282.288 479.442L293.14 478.946C293.719 478.915 294.162 478.532 294.14 478.073L294.082 476.738C294.06 476.278 293.572 475.93 293.001 475.949Z" fill="#D17A39"/>
<path d="M390.096 441.436C390.69 441.491 390.984 442.191 390.598 442.653L385.719 448.332L379.91 455.105L376.828 447.574L373.747 440.043L382.637 440.801L390.096 441.436Z" fill="#D17A39"/>
<path d="M371.566 473.924C376.065 466.011 376.661 457.861 372.898 455.721C369.135 453.582 362.437 458.262 357.938 466.175C353.439 474.088 352.843 482.237 356.606 484.377C360.369 486.517 367.067 481.837 371.566 473.924Z" fill="#43BA81"/>
<path d="M343.124 482.987C368.259 472.686 385.247 456.07 381.069 445.875C376.891 435.679 353.127 435.765 327.992 446.066C302.857 456.368 285.869 472.984 290.047 483.179C294.225 493.374 317.989 493.289 343.124 482.987Z" fill="#FFDC46"/>
<path d="M333.918 472.318C332.687 471.621 331.138 471.649 329.45 472.296C328.858 472.516 328.209 472.526 327.643 472.235C323.489 470.076 315.716 470.531 307.764 473.793C297.305 478.082 290.483 485.587 292.519 490.559C293.525 493.014 296.313 494.057 298.747 494.442C302.51 495.057 306.46 494.483 310.108 493.496C310.846 493.295 311.581 493.073 312.303 492.842C312.971 492.62 313.659 492.185 314.398 492.193C315.328 492.213 315.32 492.821 315.245 493.561C315.208 493.997 315.171 494.433 315.168 494.875C315.153 495.77 315.214 496.664 315.405 497.536C315.71 498.896 316.378 500.25 317.633 500.966C321.397 503.101 328.088 498.43 332.592 490.509C337.077 482.614 337.673 474.467 333.918 472.318Z" fill="#43BA81"/>
<path d="M360.457 449.668C362.316 449.357 363.571 447.597 363.259 445.737C362.947 443.878 361.187 442.623 359.328 442.935C357.468 443.247 356.214 445.007 356.525 446.866C356.837 448.726 358.597 449.98 360.457 449.668Z" fill="#D17A39"/>
<path d="M996.52 219.295C1043.66 223.367 1085.8 188.504 1090.75 141.322C1091.73 131.889 1091.19 122.654 1089.32 113.878C1088.98 112.304 1090.7 111.133 1092.04 112.013C1118.36 129.308 1134.45 160.359 1131.01 194.055C1126.28 240.488 1085.41 275.305 1038.95 272.433C1002.02 270.155 972.141 245.302 961.4 212.364C960.853 210.68 962.611 209.164 964.185 209.973C973.966 215.022 984.877 218.285 996.52 219.295Z" fill="#FFDC46"/>
<path d="M455.957 712.973C456.088 712.987 456.219 713 456.35 713H461.235H478.723H501.305H517.008H536.965C538.882 713 540.746 712.39 542.256 711.197C547.573 707.009 551 700.474 551 693.131C551 683.389 544.987 675.079 536.505 671.765C535.849 671.513 535.297 671.023 534.969 670.4C531.148 663.176 523.612 658.259 514.934 658.259C514.461 658.259 514.001 658.272 513.529 658.299C512.242 658.378 511.047 657.636 510.562 656.443C506.334 646.197 496.343 639 484.671 639C469.178 639 456.626 651.671 456.626 667.312C456.626 667.351 456.626 667.378 456.626 667.418C445.059 668.478 436 678.286 436 690.229C436 701.946 444.705 711.608 455.957 712.973Z" fill="#EAEAEA"/>
<path d="M1105 192.198C1105 183.486 1112.11 176.416 1120.87 176.416C1123.08 176.416 1125.19 176.864 1127.1 177.685C1127.57 171.191 1134.37 166.041 1142.7 166.041C1146.18 166.041 1149.39 166.948 1151.99 168.462C1151.95 168.089 1151.93 167.715 1151.93 167.331C1151.93 161.499 1156.58 156.615 1162.85 155.304C1163.4 146.219 1172.06 139 1182.69 139C1191.42 139 1198.83 143.884 1201.5 150.665C1202.57 150.548 1203.66 150.495 1204.76 150.495C1219.38 150.495 1231.23 160.763 1231.23 173.431C1231.23 175.99 1230.74 178.453 1229.84 180.756C1235.19 182.761 1239 187.9 1239 193.925C1239 201.698 1232.66 208 1224.85 208C1224.62 208 1224.38 207.989 1224.16 207.979V208H1120.69C1112 207.883 1105 200.856 1105 192.198Z" fill="#EAEAEA"/>
</g>
<path d="M1414 525.785C1414 515.174 1422.59 506.569 1433.19 506.569C1435.86 506.569 1438.41 507.117 1440.72 508.106C1441.29 500.199 1449.52 493.918 1459.58 493.918C1463.79 493.918 1467.67 495.013 1470.81 496.869C1470.77 496.418 1470.74 495.959 1470.74 495.491C1470.74 488.387 1476.38 482.442 1483.96 480.851C1484.61 469.79 1495.1 461 1507.93 461C1518.48 461 1527.45 466.937 1530.67 475.197C1531.95 475.056 1533.27 474.985 1534.6 474.985C1552.27 474.985 1566.6 487.486 1566.6 502.912C1566.6 506.03 1566.01 509.034 1564.93 511.835C1571.4 514.282 1576 520.537 1576 527.87C1576 537.332 1568.34 545 1558.89 545C1558.62 545 1558.34 544.991 1558.07 544.982V545H1432.97V544.991C1422.47 544.876 1414 536.324 1414 525.785Z" fill="#EAEAEA"/>
<path d="M298.047 721.577C302.026 718.859 304.635 714.348 304.635 709.238C304.635 702.497 300.091 696.789 293.839 694.876C293.861 694.593 293.872 694.31 293.872 694.028C293.872 686.45 287.588 680.307 279.837 680.307C278.891 680.307 277.967 680.405 277.075 680.579C277.064 673.077 272.346 667 266.519 667C260.768 667 256.093 672.936 255.973 680.307C255.973 680.307 255.973 680.307 255.962 680.307C248.211 680.307 241.927 686.45 241.927 694.028C241.927 694.213 241.938 694.408 241.938 694.593C235.143 696.159 230.088 702.117 230.088 709.238C230.088 714.021 232.382 718.283 235.948 721.045C230.359 724.056 227 727.905 227 732.102C227 741.734 244.688 749.54 266.519 749.54C288.338 749.54 306.037 741.734 306.037 732.102C306.037 728.144 303.059 724.502 298.047 721.577Z" fill="#E5CC61"/>
<path d="M265.616 712.565C265.877 711.293 267.16 711.293 267.421 712.565L272.465 737.081L278.064 764.294C278.238 765.142 277.781 765.979 277.162 765.979H266.518H255.875C255.244 765.979 254.799 765.142 254.972 764.294L260.571 737.081L265.616 712.565Z" fill="#D17A39"/>
<path d="M1073.16 363L1069.03 352.392H1055.45L1051.37 363H1047L1060.39 328.584H1064.28L1077.62 363H1073.16ZM1063.9 338.184C1063.8 337.928 1063.64 337.464 1063.42 336.792C1063.19 336.12 1062.97 335.432 1062.74 334.728C1062.55 333.992 1062.39 333.432 1062.26 333.048C1062.04 334.04 1061.78 335.016 1061.5 335.976C1061.21 336.904 1060.97 337.64 1060.78 338.184L1056.89 348.552H1067.74L1063.9 338.184ZM1127.13 348.456C1126.72 347.144 1126.35 345.864 1126.03 344.616C1125.74 343.336 1125.52 342.344 1125.36 341.64H1125.17C1125.04 342.344 1124.83 343.336 1124.54 344.616C1124.25 345.864 1123.89 347.16 1123.44 348.504L1118.83 362.952H1114.03L1106.97 337.224H1111.34L1114.89 350.952C1115.25 352.328 1115.58 353.72 1115.9 355.128C1116.22 356.536 1116.45 357.704 1116.57 358.632H1116.77C1116.89 358.088 1117.04 357.416 1117.2 356.616C1117.39 355.816 1117.6 354.984 1117.82 354.12C1118.05 353.224 1118.27 352.424 1118.49 351.72L1123.05 337.224H1127.66L1132.08 351.72C1132.43 352.808 1132.77 353.992 1133.09 355.272C1133.44 356.552 1133.68 357.656 1133.81 358.584H1134C1134.09 357.784 1134.3 356.68 1134.62 355.272C1134.97 353.864 1135.34 352.424 1135.73 350.952L1139.33 337.224H1143.65L1136.49 362.952H1131.55L1127.13 348.456ZM1177.83 350.088C1177.83 354.344 1176.74 357.64 1174.57 359.976C1172.42 362.312 1169.51 363.48 1165.83 363.48C1163.56 363.48 1161.53 362.968 1159.73 361.944C1157.97 360.888 1156.58 359.368 1155.56 357.384C1154.53 355.368 1154.02 352.936 1154.02 350.088C1154.02 345.832 1155.09 342.552 1157.24 340.248C1159.38 337.944 1162.29 336.792 1165.97 336.792C1168.31 336.792 1170.36 337.32 1172.12 338.376C1173.91 339.4 1175.3 340.904 1176.29 342.888C1177.32 344.84 1177.83 347.24 1177.83 350.088ZM1158.39 350.088C1158.39 353.128 1158.98 355.544 1160.17 357.336C1161.38 359.096 1163.3 359.976 1165.93 359.976C1168.52 359.976 1170.42 359.096 1171.64 357.336C1172.85 355.544 1173.46 353.128 1173.46 350.088C1173.46 347.048 1172.85 344.664 1171.64 342.936C1170.42 341.208 1168.5 340.344 1165.88 340.344C1163.25 340.344 1161.35 341.208 1160.17 342.936C1158.98 344.664 1158.39 347.048 1158.39 350.088ZM1204.11 336.792C1207.18 336.792 1209.5 337.544 1211.07 339.048C1212.64 340.52 1213.42 342.92 1213.42 346.248V363H1209.24V346.536C1209.24 342.408 1207.32 340.344 1203.48 340.344C1200.64 340.344 1198.67 341.144 1197.58 342.744C1196.49 344.344 1195.95 346.648 1195.95 349.656V363H1191.72V337.272H1195.13L1195.76 340.776H1196C1196.83 339.432 1197.98 338.44 1199.45 337.8C1200.92 337.128 1202.48 336.792 1204.11 336.792ZM1237.72 363.48C1234.52 363.48 1231.96 362.376 1230.04 360.168C1228.12 357.928 1227.16 354.6 1227.16 350.184C1227.16 345.768 1228.12 342.44 1230.04 340.2C1231.99 337.928 1234.56 336.792 1237.76 336.792C1239.75 336.792 1241.36 337.16 1242.61 337.896C1243.89 338.632 1244.93 339.528 1245.73 340.584H1246.02C1245.99 340.168 1245.92 339.56 1245.83 338.76C1245.76 337.928 1245.73 337.272 1245.73 336.792V326.52H1249.96V363H1246.55L1245.92 359.544H1245.73C1244.96 360.632 1243.94 361.56 1242.66 362.328C1241.38 363.096 1239.73 363.48 1237.72 363.48ZM1238.39 359.976C1241.11 359.976 1243.01 359.24 1244.1 357.768C1245.22 356.264 1245.78 354.008 1245.78 351V350.232C1245.78 347.032 1245.25 344.584 1244.2 342.888C1243.14 341.16 1241.19 340.296 1238.34 340.296C1236.07 340.296 1234.36 341.208 1233.2 343.032C1232.08 344.824 1231.52 347.24 1231.52 350.28C1231.52 353.352 1232.08 355.736 1233.2 357.432C1234.36 359.128 1236.08 359.976 1238.39 359.976ZM1275.26 336.792C1277.47 336.792 1279.36 337.272 1280.93 338.232C1282.53 339.192 1283.74 340.552 1284.57 342.312C1285.44 344.04 1285.87 346.072 1285.87 348.408V350.952H1268.25C1268.32 353.864 1269.05 356.088 1270.46 357.624C1271.9 359.128 1273.9 359.88 1276.46 359.88C1278.09 359.88 1279.53 359.736 1280.78 359.448C1282.06 359.128 1283.37 358.68 1284.72 358.104V361.8C1283.41 362.376 1282.11 362.792 1280.83 363.048C1279.55 363.336 1278.03 363.48 1276.27 363.48C1273.84 363.48 1271.68 362.984 1269.79 361.992C1267.93 361 1266.48 359.528 1265.42 357.576C1264.4 355.592 1263.89 353.176 1263.89 350.328C1263.89 347.512 1264.35 345.096 1265.28 343.08C1266.24 341.064 1267.57 339.512 1269.26 338.424C1270.99 337.336 1272.99 336.792 1275.26 336.792ZM1275.21 340.248C1273.2 340.248 1271.6 340.904 1270.41 342.216C1269.26 343.496 1268.57 345.288 1268.35 347.592H1281.45C1281.42 345.416 1280.91 343.656 1279.92 342.312C1278.93 340.936 1277.36 340.248 1275.21 340.248ZM1311.62 336.792C1312.1 336.792 1312.61 336.824 1313.16 336.888C1313.73 336.92 1314.23 336.984 1314.64 337.08L1314.12 340.968C1313.7 340.872 1313.24 340.792 1312.72 340.728C1312.24 340.664 1311.78 340.632 1311.33 340.632C1310.02 340.632 1308.79 341 1307.64 341.736C1306.48 342.44 1305.56 343.448 1304.85 344.76C1304.18 346.04 1303.84 347.544 1303.84 349.272V363H1299.62V337.272H1303.08L1303.56 341.976H1303.75C1304.58 340.568 1305.65 339.352 1306.96 338.328C1308.28 337.304 1309.83 336.792 1311.62 336.792ZM1338.5 340.536H1332.02V363H1327.8V340.536H1323.29V338.568L1327.8 337.128V335.64C1327.8 332.312 1328.54 329.928 1330.01 328.488C1331.48 327.016 1333.53 326.28 1336.15 326.28C1337.18 326.28 1338.1 326.376 1338.94 326.568C1339.8 326.728 1340.54 326.92 1341.14 327.144L1340.04 330.456C1339.53 330.296 1338.94 330.136 1338.26 329.976C1337.59 329.816 1336.9 329.736 1336.2 329.736C1334.79 329.736 1333.74 330.216 1333.03 331.176C1332.36 332.104 1332.02 333.576 1332.02 335.592V337.272H1338.5V340.536ZM1371.85 337.272V363H1368.4L1367.77 359.592H1367.58C1366.75 360.936 1365.6 361.928 1364.12 362.568C1362.65 363.176 1361.08 363.48 1359.42 363.48C1356.32 363.48 1353.98 362.744 1352.41 361.272C1350.84 359.768 1350.06 357.384 1350.06 354.12V337.272H1354.33V353.832C1354.33 357.928 1356.24 359.976 1360.04 359.976C1362.89 359.976 1364.86 359.176 1365.95 357.576C1367.07 355.976 1367.63 353.672 1367.63 350.664V337.272H1371.85ZM1391.44 363H1387.22V326.52H1391.44V363ZM1456.13 363H1451.09L1432.75 334.536H1432.56C1432.63 335.656 1432.71 337.048 1432.8 338.712C1432.9 340.376 1432.95 342.088 1432.95 343.848V363H1428.96V328.728H1433.95L1452.24 357.096H1452.43C1452.4 356.584 1452.35 355.816 1452.29 354.792C1452.26 353.768 1452.21 352.648 1452.15 351.432C1452.11 350.216 1452.1 349.096 1452.1 348.072V328.728H1456.13V363ZM1474.22 327.624C1474.86 327.624 1475.42 327.848 1475.9 328.296C1476.41 328.712 1476.66 329.384 1476.66 330.312C1476.66 331.208 1476.41 331.88 1475.9 332.328C1475.42 332.776 1474.86 333 1474.22 333C1473.51 333 1472.92 332.776 1472.44 332.328C1471.96 331.88 1471.72 331.208 1471.72 330.312C1471.72 329.384 1471.96 328.712 1472.44 328.296C1472.92 327.848 1473.51 327.624 1474.22 327.624ZM1476.28 337.272V363H1472.06V337.272H1476.28ZM1500.75 336.792C1502.45 336.792 1503.97 337.112 1505.31 337.752C1506.69 338.392 1507.85 339.368 1508.81 340.68H1509.05L1509.63 337.272H1512.99V363.432C1512.99 367.112 1512.05 369.88 1510.16 371.736C1508.3 373.592 1505.41 374.52 1501.47 374.52C1497.69 374.52 1494.61 373.976 1492.21 372.888V369C1494.73 370.344 1497.9 371.016 1501.71 371.016C1503.92 371.016 1505.65 370.36 1506.89 369.048C1508.17 367.768 1508.81 366.008 1508.81 363.768V362.76C1508.81 362.376 1508.83 361.832 1508.86 361.128C1508.89 360.392 1508.93 359.88 1508.96 359.592H1508.77C1507.04 362.184 1504.38 363.48 1500.8 363.48C1497.47 363.48 1494.86 362.312 1492.97 359.976C1491.12 357.64 1490.19 354.376 1490.19 350.184C1490.19 346.088 1491.12 342.84 1492.97 340.44C1494.86 338.008 1497.45 336.792 1500.75 336.792ZM1501.33 340.344C1499.18 340.344 1497.52 341.208 1496.33 342.936C1495.15 344.632 1494.56 347.064 1494.56 350.232C1494.56 353.4 1495.13 355.832 1496.29 357.528C1497.47 359.192 1499.18 360.024 1501.42 360.024C1504.01 360.024 1505.9 359.336 1507.09 357.96C1508.27 356.552 1508.86 354.296 1508.86 351.192V350.184C1508.86 346.664 1508.25 344.152 1507.04 342.648C1505.82 341.112 1503.92 340.344 1501.33 340.344ZM1532.59 337.224C1532.59 338.504 1532.51 339.704 1532.35 340.824H1532.63C1533.47 339.512 1534.59 338.52 1535.99 337.848C1537.43 337.176 1538.99 336.84 1540.65 336.84C1543.79 336.84 1546.14 337.592 1547.71 339.096C1549.27 340.568 1550.06 342.952 1550.06 346.248V363H1545.88V346.536C1545.88 342.408 1543.96 340.344 1540.12 340.344C1537.24 340.344 1535.26 341.16 1534.17 342.792C1533.11 344.392 1532.59 346.696 1532.59 349.704V363H1528.36V326.52H1532.59V337.224ZM1573.83 360.024C1574.47 360.024 1575.12 359.976 1575.79 359.88C1576.47 359.752 1577.01 359.624 1577.43 359.496V362.712C1576.98 362.936 1576.34 363.112 1575.51 363.24C1574.67 363.4 1573.87 363.48 1573.11 363.48C1571.76 363.48 1570.51 363.256 1569.36 362.808C1568.24 362.328 1567.33 361.512 1566.63 360.36C1565.92 359.208 1565.57 357.592 1565.57 355.512V340.536H1561.92V338.52L1565.62 336.84L1567.3 331.368H1569.79V337.272H1577.23V340.536H1569.79V355.416C1569.79 356.984 1570.16 358.152 1570.9 358.92C1571.67 359.656 1572.64 360.024 1573.83 360.024Z" fill="white"/>
<path d="M1073.16 363L1072.23 363.363L1072.48 364H1073.16V363ZM1069.03 352.392L1069.96 352.029L1069.72 351.392H1069.03V352.392ZM1055.45 352.392V351.392H1054.76L1054.51 352.033L1055.45 352.392ZM1051.37 363V364H1052.05L1052.3 363.359L1051.37 363ZM1047 363L1046.07 362.637L1045.54 364H1047V363ZM1060.39 328.584V327.584H1059.71L1059.46 328.221L1060.39 328.584ZM1064.28 328.584L1065.21 328.222L1064.96 327.584H1064.28V328.584ZM1077.62 363V364H1079.08L1078.56 362.638L1077.62 363ZM1063.9 338.184L1064.83 337.837L1064.83 337.833L1063.9 338.184ZM1063.42 336.792L1062.47 337.108L1062.47 337.108L1063.42 336.792ZM1062.74 334.728L1061.78 334.98L1061.78 335.006L1061.79 335.031L1062.74 334.728ZM1062.26 333.048L1063.21 332.732L1062.08 329.329L1061.29 332.828L1062.26 333.048ZM1061.5 335.976L1062.45 336.272L1062.45 336.263L1061.5 335.976ZM1060.78 338.184L1061.71 338.535L1061.72 338.526L1061.72 338.517L1060.78 338.184ZM1056.89 348.552L1055.95 348.201L1055.45 349.552H1056.89V348.552ZM1067.74 348.552V349.552H1069.17L1068.67 348.205L1067.74 348.552ZM1074.09 362.637L1069.96 352.029L1068.1 352.755L1072.23 363.363L1074.09 362.637ZM1069.03 351.392H1055.45V353.392H1069.03V351.392ZM1054.51 352.033L1050.43 362.641L1052.3 363.359L1056.38 352.751L1054.51 352.033ZM1051.37 362H1047V364H1051.37V362ZM1047.93 363.363L1061.32 328.947L1059.46 328.221L1046.07 362.637L1047.93 363.363ZM1060.39 329.584H1064.28V327.584H1060.39V329.584ZM1063.35 328.946L1076.69 363.362L1078.56 362.638L1065.21 328.222L1063.35 328.946ZM1077.62 362H1073.16V364H1077.62V362ZM1064.83 337.833C1064.74 337.596 1064.59 337.149 1064.36 336.476L1062.47 337.108C1062.69 337.779 1062.86 338.26 1062.96 338.535L1064.83 337.833ZM1064.36 336.476C1064.14 335.808 1063.92 335.125 1063.7 334.425L1061.79 335.031C1062.02 335.739 1062.24 336.432 1062.47 337.108L1064.36 336.476ZM1063.71 334.476C1063.52 333.733 1063.35 333.148 1063.21 332.732L1061.32 333.364C1061.43 333.716 1061.59 334.251 1061.78 334.98L1063.71 334.476ZM1061.29 332.828C1061.07 333.798 1060.82 334.751 1060.54 335.689L1062.45 336.263C1062.75 335.281 1063.01 334.282 1063.24 333.268L1061.29 332.828ZM1060.54 335.68C1060.25 336.602 1060.02 337.325 1059.83 337.851L1061.72 338.517C1061.92 337.955 1062.16 337.206 1062.45 336.272L1060.54 335.68ZM1059.84 337.833L1055.95 348.201L1057.82 348.903L1061.71 338.535L1059.84 337.833ZM1056.89 349.552H1067.74V347.552H1056.89V349.552ZM1068.67 348.205L1064.83 337.837L1062.96 338.531L1066.8 348.899L1068.67 348.205ZM1127.13 348.456L1128.09 348.165L1128.09 348.154L1127.13 348.456ZM1126.03 344.616L1125.06 344.836L1125.06 344.85L1125.06 344.864L1126.03 344.616ZM1125.36 341.64L1126.33 341.418L1126.16 340.64H1125.36V341.64ZM1125.17 341.64V340.64H1124.33L1124.18 341.461L1125.17 341.64ZM1124.54 344.616L1125.52 344.841L1125.52 344.836L1124.54 344.616ZM1123.44 348.504L1122.49 348.188L1122.49 348.2L1123.44 348.504ZM1118.83 362.952V363.952H1119.56L1119.78 363.256L1118.83 362.952ZM1114.03 362.952L1113.07 363.216L1113.27 363.952H1114.03V362.952ZM1106.97 337.224V336.224H1105.66L1106.01 337.488L1106.97 337.224ZM1111.34 337.224L1112.31 336.974L1112.12 336.224H1111.34V337.224ZM1114.89 350.952L1115.86 350.704L1115.86 350.702L1114.89 350.952ZM1116.57 358.632L1115.58 358.769L1115.7 359.632H1116.57V358.632ZM1116.77 358.632V359.632H1117.56L1117.74 358.861L1116.77 358.632ZM1117.2 356.616L1116.23 356.383L1116.22 356.401L1116.22 356.42L1117.2 356.616ZM1117.82 354.12L1118.79 354.371L1118.79 354.363L1117.82 354.12ZM1118.49 351.72L1119.45 352.023L1119.45 352.02L1118.49 351.72ZM1123.05 337.224V336.224H1122.32L1122.1 336.924L1123.05 337.224ZM1127.66 337.224L1128.62 336.933L1128.4 336.224H1127.66V337.224ZM1132.08 351.72L1131.12 352.011L1131.12 352.02L1131.13 352.028L1132.08 351.72ZM1133.09 355.272L1132.12 355.515L1132.12 355.526L1132.12 355.537L1133.09 355.272ZM1133.81 358.584L1132.82 358.721L1132.94 359.584H1133.81V358.584ZM1134 358.584V359.584H1134.89L1134.99 358.703L1134 358.584ZM1134.62 355.272L1133.65 355.029L1133.65 355.04L1133.65 355.05L1134.62 355.272ZM1135.73 350.952L1134.76 350.698L1134.76 350.7L1135.73 350.952ZM1139.33 337.224V336.224H1138.56L1138.36 336.97L1139.33 337.224ZM1143.65 337.224L1144.61 337.492L1144.96 336.224H1143.65V337.224ZM1136.49 362.952V363.952H1137.25L1137.46 363.22L1136.49 362.952ZM1131.55 362.952L1130.59 363.243L1130.81 363.952H1131.55V362.952ZM1128.09 348.154C1127.68 346.858 1127.31 345.596 1127 344.368L1125.06 344.864C1125.39 346.132 1125.76 347.43 1126.18 348.758L1128.09 348.154ZM1127.01 344.396C1126.72 343.116 1126.49 342.123 1126.33 341.418L1124.38 341.862C1124.54 342.565 1124.77 343.556 1125.06 344.836L1127.01 344.396ZM1125.36 340.64H1125.17V342.64H1125.36V340.64ZM1124.18 341.461C1124.06 342.145 1123.85 343.121 1123.57 344.396L1125.52 344.836C1125.81 343.551 1126.02 342.543 1126.15 341.819L1124.18 341.461ZM1123.57 344.391C1123.29 345.605 1122.93 346.871 1122.49 348.188L1124.39 348.82C1124.84 347.449 1125.22 346.123 1125.52 344.841L1123.57 344.391ZM1122.49 348.2L1117.88 362.648L1119.78 363.256L1124.39 348.808L1122.49 348.2ZM1118.83 361.952H1114.03V363.952H1118.83V361.952ZM1115 362.688L1107.94 336.96L1106.01 337.488L1113.07 363.216L1115 362.688ZM1106.97 338.224H1111.34V336.224H1106.97V338.224ZM1110.37 337.474L1113.93 351.202L1115.86 350.702L1112.31 336.974L1110.37 337.474ZM1113.93 351.2C1114.28 352.567 1114.61 353.95 1114.93 355.35L1116.88 354.906C1116.56 353.49 1116.22 352.089 1115.86 350.704L1113.93 351.2ZM1114.93 355.35C1115.24 356.743 1115.46 357.88 1115.58 358.769L1117.57 358.495C1117.43 357.528 1117.2 356.329 1116.88 354.906L1114.93 355.35ZM1116.57 359.632H1116.77V357.632H1116.57V359.632ZM1117.74 358.861C1117.87 358.302 1118.02 357.619 1118.18 356.812L1116.22 356.42C1116.06 357.213 1115.92 357.874 1115.79 358.403L1117.74 358.861ZM1118.17 356.849C1118.36 356.056 1118.57 355.23 1118.79 354.371L1116.85 353.869C1116.63 354.738 1116.42 355.576 1116.23 356.383L1118.17 356.849ZM1118.79 354.363C1119.01 353.482 1119.23 352.703 1119.45 352.023L1117.54 351.417C1117.31 352.145 1117.08 352.966 1116.85 353.877L1118.79 354.363ZM1119.45 352.02L1124.01 337.524L1122.1 336.924L1117.54 351.42L1119.45 352.02ZM1123.05 338.224H1127.66V336.224H1123.05V338.224ZM1126.71 337.515L1131.12 352.011L1133.04 351.429L1128.62 336.933L1126.71 337.515ZM1131.13 352.028C1131.47 353.091 1131.8 354.253 1132.12 355.515L1134.06 355.029C1133.73 353.731 1133.39 352.525 1133.03 351.412L1131.13 352.028ZM1132.12 355.537C1132.47 356.791 1132.7 357.85 1132.82 358.721L1134.8 358.447C1134.66 357.462 1134.41 356.313 1134.05 355.007L1132.12 355.537ZM1133.81 359.584H1134V357.584H1133.81V359.584ZM1134.99 358.703C1135.08 357.954 1135.28 356.89 1135.6 355.494L1133.65 355.05C1133.33 356.47 1133.11 357.614 1133.01 358.465L1134.99 358.703ZM1135.59 355.515C1135.94 354.11 1136.31 352.673 1136.69 351.204L1134.76 350.7C1134.37 352.175 1134.01 353.618 1133.65 355.029L1135.59 355.515ZM1136.69 351.206L1140.29 337.478L1138.36 336.97L1134.76 350.698L1136.69 351.206ZM1139.33 338.224H1143.65V336.224H1139.33V338.224ZM1142.68 336.956L1135.53 362.684L1137.46 363.22L1144.61 337.492L1142.68 336.956ZM1136.49 361.952H1131.55V363.952H1136.49V361.952ZM1132.51 362.661L1128.09 348.165L1126.18 348.747L1130.59 363.243L1132.51 362.661ZM1174.57 359.976L1173.83 359.294L1173.83 359.3L1174.57 359.976ZM1159.73 361.944L1159.22 362.801L1159.23 362.807L1159.24 362.812L1159.73 361.944ZM1155.56 357.384L1154.67 357.837L1154.67 357.843L1155.56 357.384ZM1157.24 340.248L1156.51 339.567L1156.51 339.567L1157.24 340.248ZM1172.12 338.376L1171.6 339.233L1171.61 339.239L1171.62 339.244L1172.12 338.376ZM1176.29 342.888L1175.4 343.335L1175.4 343.344L1175.41 343.353L1176.29 342.888ZM1160.17 357.336L1159.33 357.887L1159.34 357.896L1159.34 357.904L1160.17 357.336ZM1171.64 357.336L1172.46 357.904L1172.46 357.898L1171.64 357.336ZM1171.64 342.936L1172.46 342.361L1172.46 342.361L1171.64 342.936ZM1160.17 342.936L1160.99 343.501L1160.99 343.501L1160.17 342.936ZM1176.83 350.088C1176.83 354.177 1175.79 357.198 1173.83 359.294L1175.3 360.658C1177.7 358.082 1178.83 354.511 1178.83 350.088H1176.83ZM1173.83 359.3C1171.9 361.396 1169.28 362.48 1165.83 362.48V364.48C1169.74 364.48 1172.94 363.228 1175.3 360.652L1173.83 359.3ZM1165.83 362.48C1163.71 362.48 1161.86 362.005 1160.23 361.076L1159.24 362.812C1161.2 363.931 1163.4 364.48 1165.83 364.48V362.48ZM1160.25 361.087C1158.66 360.134 1157.39 358.759 1156.45 356.925L1154.67 357.843C1155.77 359.977 1157.29 361.642 1159.22 362.801L1160.25 361.087ZM1156.45 356.931C1155.51 355.087 1155.02 352.818 1155.02 350.088H1153.02C1153.02 353.054 1153.55 355.649 1154.67 357.837L1156.45 356.931ZM1155.02 350.088C1155.02 345.994 1156.05 342.991 1157.97 340.929L1156.51 339.567C1154.14 342.113 1153.02 345.67 1153.02 350.088H1155.02ZM1157.97 340.929C1159.89 338.863 1162.52 337.792 1165.97 337.792V335.792C1162.07 335.792 1158.87 337.025 1156.51 339.567L1157.97 340.929ZM1165.97 337.792C1168.15 337.792 1170.02 338.283 1171.6 339.233L1172.63 337.519C1170.7 336.357 1168.46 335.792 1165.97 335.792V337.792ZM1171.62 339.244C1173.23 340.163 1174.49 341.514 1175.4 343.335L1177.19 342.441C1176.11 340.294 1174.59 338.637 1172.61 337.508L1171.62 339.244ZM1175.41 343.353C1176.34 345.126 1176.83 347.356 1176.83 350.088H1178.83C1178.83 347.124 1178.3 344.554 1177.18 342.423L1175.41 343.353ZM1157.39 350.088C1157.39 353.246 1158 355.877 1159.33 357.887L1161 356.785C1159.96 355.211 1159.39 353.01 1159.39 350.088H1157.39ZM1159.34 357.904C1160.79 359.997 1163.06 360.976 1165.93 360.976V358.976C1163.55 358.976 1161.97 358.195 1160.99 356.768L1159.34 357.904ZM1165.93 360.976C1168.77 360.976 1171.02 359.994 1172.46 357.904L1170.81 356.768C1169.83 358.198 1168.27 358.976 1165.93 358.976V360.976ZM1172.46 357.898C1173.83 355.885 1174.46 353.25 1174.46 350.088H1172.46C1172.46 353.006 1171.88 355.203 1170.81 356.774L1172.46 357.898ZM1174.46 350.088C1174.46 346.929 1173.83 344.316 1172.46 342.361L1170.82 343.511C1171.88 345.012 1172.46 347.167 1172.46 350.088H1174.46ZM1172.46 342.361C1171.01 340.301 1168.74 339.344 1165.88 339.344V341.344C1168.26 341.344 1169.84 342.115 1170.82 343.511L1172.46 342.361ZM1165.88 339.344C1163.02 339.344 1160.76 340.301 1159.34 342.371L1160.99 343.501C1161.94 342.115 1163.49 341.344 1165.88 341.344V339.344ZM1159.34 342.371C1158 344.325 1157.39 346.933 1157.39 350.088H1159.39C1159.39 347.163 1159.96 345.003 1160.99 343.501L1159.34 342.371ZM1211.07 339.048L1210.38 339.77L1210.38 339.777L1211.07 339.048ZM1213.42 363V364H1214.42V363H1213.42ZM1209.24 363H1208.24V364H1209.24V363ZM1197.58 342.744L1198.41 343.306L1198.41 343.306L1197.58 342.744ZM1195.95 363V364H1196.95V363H1195.95ZM1191.72 363H1190.72V364H1191.72V363ZM1191.72 337.272V336.272H1190.72V337.272H1191.72ZM1195.13 337.272L1196.12 337.097L1195.97 336.272H1195.13V337.272ZM1195.76 340.776L1194.77 340.951L1194.92 341.776H1195.76V340.776ZM1196 340.776V341.776H1196.55L1196.85 341.302L1196 340.776ZM1199.45 337.8L1199.85 338.717L1199.86 338.713L1199.87 338.71L1199.45 337.8ZM1204.11 337.792C1207.03 337.792 1209.06 338.507 1210.38 339.77L1211.76 338.326C1209.94 336.581 1207.33 335.792 1204.11 335.792V337.792ZM1210.38 339.777C1211.66 340.978 1212.42 343.047 1212.42 346.248H1214.42C1214.42 342.793 1213.61 340.062 1211.75 338.319L1210.38 339.777ZM1212.42 346.248V363H1214.42V346.248H1212.42ZM1213.42 362H1209.24V364H1213.42V362ZM1210.24 363V346.536H1208.24V363H1210.24ZM1210.24 346.536C1210.24 344.335 1209.73 342.498 1208.54 341.211C1207.33 339.91 1205.58 339.344 1203.48 339.344V341.344C1205.23 341.344 1206.36 341.81 1207.07 342.573C1207.79 343.35 1208.24 344.609 1208.24 346.536H1210.24ZM1203.48 339.344C1200.47 339.344 1198.1 340.194 1196.75 342.182L1198.41 343.306C1199.23 342.094 1200.8 341.344 1203.48 341.344V339.344ZM1196.75 342.182C1195.51 344.016 1194.95 346.551 1194.95 349.656H1196.95C1196.95 346.745 1197.48 344.672 1198.41 343.306L1196.75 342.182ZM1194.95 349.656V363H1196.95V349.656H1194.95ZM1195.95 362H1191.72V364H1195.95V362ZM1192.72 363V337.272H1190.72V363H1192.72ZM1191.72 338.272H1195.13V336.272H1191.72V338.272ZM1194.15 337.447L1194.77 340.951L1196.74 340.601L1196.12 337.097L1194.15 337.447ZM1195.76 341.776H1196V339.776H1195.76V341.776ZM1196.85 341.302C1197.57 340.134 1198.56 339.277 1199.85 338.717L1199.05 336.883C1197.4 337.603 1196.09 338.73 1195.15 340.25L1196.85 341.302ZM1199.87 338.71C1201.21 338.098 1202.62 337.792 1204.11 337.792V335.792C1202.33 335.792 1200.64 336.158 1199.04 336.89L1199.87 338.71ZM1230.04 360.168L1229.28 360.819L1229.28 360.824L1230.04 360.168ZM1230.04 340.2L1229.28 339.548L1229.28 339.549L1230.04 340.2ZM1242.61 337.896L1242.1 338.757L1242.11 338.763L1242.61 337.896ZM1245.73 340.584L1244.93 341.188L1245.23 341.584H1245.73V340.584ZM1246.02 340.584V341.584H1247.1L1247.02 340.507L1246.02 340.584ZM1245.83 338.76L1244.83 338.837L1244.83 338.858L1244.83 338.879L1245.83 338.76ZM1245.73 326.52V325.52H1244.73V326.52H1245.73ZM1249.96 326.52H1250.96V325.52H1249.96V326.52ZM1249.96 363V364H1250.96V363H1249.96ZM1246.55 363L1245.56 363.178L1245.71 364H1246.55V363ZM1245.92 359.544L1246.91 359.366L1246.76 358.544H1245.92V359.544ZM1245.73 359.544V358.544H1245.21L1244.91 358.967L1245.73 359.544ZM1242.66 362.328L1243.17 363.185L1242.66 362.328ZM1244.1 357.768L1243.3 357.171L1243.3 357.174L1244.1 357.768ZM1244.2 342.888L1243.34 343.409L1243.35 343.417L1244.2 342.888ZM1233.2 343.032L1232.36 342.498L1232.36 342.502L1233.2 343.032ZM1233.2 357.432L1232.37 357.983L1232.38 357.994L1233.2 357.432ZM1237.72 362.48C1234.77 362.48 1232.5 361.479 1230.79 359.512L1229.28 360.824C1231.41 363.273 1234.26 364.48 1237.72 364.48V362.48ZM1230.79 359.517C1229.09 357.53 1228.16 354.476 1228.16 350.184H1226.16C1226.16 354.724 1227.14 358.326 1229.28 360.819L1230.79 359.517ZM1228.16 350.184C1228.16 345.892 1229.09 342.838 1230.79 340.851L1229.28 339.549C1227.14 342.042 1226.16 345.644 1226.16 350.184H1228.16ZM1230.79 340.852C1232.54 338.817 1234.83 337.792 1237.76 337.792V335.792C1234.29 335.792 1231.43 337.039 1229.28 339.548L1230.79 340.852ZM1237.76 337.792C1239.63 337.792 1241.06 338.14 1242.1 338.757L1243.12 337.035C1241.67 336.18 1239.86 335.792 1237.76 335.792V337.792ZM1242.11 338.763C1243.29 339.44 1244.22 340.25 1244.93 341.188L1246.53 339.98C1245.64 338.806 1244.49 337.824 1243.11 337.029L1242.11 338.763ZM1245.73 341.584H1246.02V339.584H1245.73V341.584ZM1247.02 340.507C1246.98 340.07 1246.92 339.445 1246.82 338.641L1244.83 338.879C1244.93 339.675 1244.99 340.266 1245.02 340.661L1247.02 340.507ZM1246.82 338.683C1246.76 337.861 1246.73 337.234 1246.73 336.792H1244.73C1244.73 337.31 1244.77 337.995 1244.83 338.837L1246.82 338.683ZM1246.73 336.792V326.52H1244.73V336.792H1246.73ZM1245.73 327.52H1249.96V325.52H1245.73V327.52ZM1248.96 326.52V363H1250.96V326.52H1248.96ZM1249.96 362H1246.55V364H1249.96V362ZM1247.53 362.822L1246.91 359.366L1244.94 359.722L1245.56 363.178L1247.53 362.822ZM1245.92 358.544H1245.73V360.544H1245.92V358.544ZM1244.91 358.967C1244.24 359.929 1243.32 360.765 1242.15 361.471L1243.17 363.185C1244.56 362.355 1245.69 361.335 1246.55 360.121L1244.91 358.967ZM1242.15 361.471C1241.07 362.118 1239.61 362.48 1237.72 362.48V364.48C1239.85 364.48 1241.69 364.074 1243.17 363.185L1242.15 361.471ZM1238.39 360.976C1241.26 360.976 1243.55 360.196 1244.9 358.362L1243.3 357.174C1242.47 358.284 1240.95 358.976 1238.39 358.976V360.976ZM1244.9 358.365C1246.21 356.612 1246.78 354.103 1246.78 351H1244.78C1244.78 353.913 1244.23 355.916 1243.3 357.171L1244.9 358.365ZM1246.78 351V350.232H1244.78V351H1246.78ZM1246.78 350.232C1246.78 346.947 1246.24 344.283 1245.04 342.359L1243.35 343.417C1244.26 344.885 1244.78 347.117 1244.78 350.232H1246.78ZM1245.05 342.367C1243.74 340.229 1241.38 339.296 1238.34 339.296V341.296C1241 341.296 1242.54 342.091 1243.34 343.409L1245.05 342.367ZM1238.34 339.296C1235.75 339.296 1233.7 340.366 1232.36 342.498L1234.05 343.566C1235.01 342.05 1236.39 341.296 1238.34 341.296V339.296ZM1232.36 342.502C1231.1 344.508 1230.52 347.13 1230.52 350.28H1232.52C1232.52 347.35 1233.07 345.14 1234.05 343.562L1232.36 342.502ZM1230.52 350.28C1230.52 353.454 1231.1 356.06 1232.37 357.983L1234.04 356.881C1233.07 355.412 1232.52 353.25 1232.52 350.28H1230.52ZM1232.38 357.994C1233.74 360.001 1235.8 360.976 1238.39 360.976V358.976C1236.37 358.976 1234.97 358.255 1234.03 356.87L1232.38 357.994ZM1280.93 338.232L1280.4 339.085L1280.41 339.089L1280.93 338.232ZM1284.57 342.312L1283.67 342.739L1283.68 342.749L1283.68 342.759L1284.57 342.312ZM1285.87 350.952V351.952H1286.87V350.952H1285.87ZM1268.25 350.952V349.952H1267.23L1267.26 350.974L1268.25 350.952ZM1270.46 357.624L1269.73 358.3L1269.73 358.308L1269.74 358.316L1270.46 357.624ZM1280.78 359.448L1281.01 360.422L1281.02 360.42L1281.03 360.418L1280.78 359.448ZM1284.72 358.104H1285.72V356.587L1284.32 357.185L1284.72 358.104ZM1284.72 361.8L1285.12 362.716L1285.72 362.453V361.8H1284.72ZM1280.83 363.048L1280.63 362.067L1280.62 362.07L1280.61 362.072L1280.83 363.048ZM1269.79 361.992L1269.32 362.874L1269.33 362.877L1269.79 361.992ZM1265.42 357.576L1264.53 358.035L1264.54 358.043L1264.54 358.052L1265.42 357.576ZM1265.28 343.08L1264.38 342.65L1264.37 342.662L1265.28 343.08ZM1269.26 338.424L1268.73 337.578L1268.72 337.582L1269.26 338.424ZM1270.41 342.216L1269.67 341.546L1269.67 341.547L1270.41 342.216ZM1268.35 347.592L1267.36 347.495L1267.25 348.592H1268.35V347.592ZM1281.45 347.592V348.592H1282.47L1282.45 347.577L1281.45 347.592ZM1279.92 342.312L1279.11 342.897L1279.11 342.906L1279.92 342.312ZM1275.26 337.792C1277.32 337.792 1279.02 338.239 1280.4 339.085L1281.45 337.379C1279.69 336.305 1277.62 335.792 1275.26 335.792V337.792ZM1280.41 339.089C1281.84 339.943 1282.92 341.15 1283.67 342.739L1285.48 341.885C1284.57 339.954 1283.22 338.441 1281.44 337.375L1280.41 339.089ZM1283.68 342.759C1284.46 344.322 1284.87 346.195 1284.87 348.408H1286.87C1286.87 345.949 1286.42 343.758 1285.47 341.865L1283.68 342.759ZM1284.87 348.408V350.952H1286.87V348.408H1284.87ZM1285.87 349.952H1268.25V351.952H1285.87V349.952ZM1267.26 350.974C1267.32 354.032 1268.1 356.525 1269.73 358.3L1271.2 356.948C1270.01 355.651 1269.32 353.696 1269.25 350.93L1267.26 350.974ZM1269.74 358.316C1271.41 360.06 1273.7 360.88 1276.46 360.88V358.88C1274.11 358.88 1272.39 358.196 1271.19 356.932L1269.74 358.316ZM1276.46 360.88C1278.15 360.88 1279.67 360.731 1281.01 360.422L1280.56 358.474C1279.4 358.741 1278.04 358.88 1276.46 358.88V360.88ZM1281.03 360.418C1282.36 360.084 1283.72 359.618 1285.11 359.023L1284.32 357.185C1283.02 357.742 1281.76 358.172 1280.54 358.478L1281.03 360.418ZM1283.72 358.104V361.8H1285.72V358.104H1283.72ZM1284.32 360.884C1283.06 361.434 1281.84 361.827 1280.63 362.067L1281.03 364.029C1282.38 363.757 1283.75 363.318 1285.12 362.716L1284.32 360.884ZM1280.61 362.072C1279.42 362.34 1277.98 362.48 1276.27 362.48V364.48C1278.08 364.48 1279.68 364.332 1281.05 364.024L1280.61 362.072ZM1276.27 362.48C1273.98 362.48 1271.98 362.013 1270.26 361.107L1269.33 362.877C1271.38 363.955 1273.7 364.48 1276.27 364.48V362.48ZM1270.26 361.11C1268.59 360.216 1267.27 358.89 1266.3 357.1L1264.54 358.052C1265.69 360.166 1267.28 361.784 1269.32 362.874L1270.26 361.11ZM1266.31 357.117C1265.38 355.309 1264.89 353.059 1264.89 350.328H1262.89C1262.89 353.293 1263.42 355.875 1264.53 358.035L1266.31 357.117ZM1264.89 350.328C1264.89 347.619 1265.33 345.353 1266.19 343.498L1264.37 342.662C1263.37 344.839 1262.89 347.405 1262.89 350.328H1264.89ZM1266.18 343.51C1267.07 341.644 1268.28 340.242 1269.8 339.266L1268.72 337.582C1266.85 338.782 1265.41 340.484 1264.38 342.65L1266.18 343.51ZM1269.8 339.27C1271.35 338.294 1273.16 337.792 1275.26 337.792V335.792C1272.82 335.792 1270.64 336.378 1268.73 337.578L1269.8 339.27ZM1275.21 339.248C1272.96 339.248 1271.07 339.993 1269.67 341.546L1271.16 342.886C1272.12 341.815 1273.44 341.248 1275.21 341.248V339.248ZM1269.67 341.547C1268.33 343.033 1267.59 345.051 1267.36 347.495L1269.35 347.689C1269.56 345.525 1270.19 343.959 1271.16 342.885L1269.67 341.547ZM1268.35 348.592H1281.45V346.592H1268.35V348.592ZM1282.45 347.577C1282.42 345.256 1281.87 343.274 1280.72 341.718L1279.11 342.906C1279.95 344.038 1280.43 345.576 1280.45 347.607L1282.45 347.577ZM1280.73 341.727C1279.5 340.022 1277.59 339.248 1275.21 339.248V341.248C1277.13 341.248 1278.35 341.85 1279.11 342.897L1280.73 341.727ZM1313.16 336.888L1313.04 337.881L1313.07 337.885L1313.1 337.886L1313.16 336.888ZM1314.64 337.08L1315.64 337.215L1315.76 336.311L1314.87 336.106L1314.64 337.08ZM1314.12 340.968L1313.89 341.942L1314.96 342.189L1315.11 341.103L1314.12 340.968ZM1312.72 340.728L1312.59 341.719L1312.6 341.72L1312.72 340.728ZM1307.64 341.736L1308.16 342.589L1308.17 342.584L1308.18 342.579L1307.64 341.736ZM1304.85 344.76L1303.97 344.287L1303.97 344.295L1304.85 344.76ZM1303.84 363V364H1304.84V363H1303.84ZM1299.62 363H1298.62V364H1299.62V363ZM1299.62 337.272V336.272H1298.62V337.272H1299.62ZM1303.08 337.272L1304.07 337.17L1303.98 336.272H1303.08V337.272ZM1303.56 341.976L1302.56 342.078L1302.65 342.976H1303.56V341.976ZM1303.75 341.976V342.976H1304.32L1304.61 342.485L1303.75 341.976ZM1306.96 338.328L1307.58 339.116L1307.58 339.116L1306.96 338.328ZM1311.62 337.792C1312.06 337.792 1312.53 337.821 1313.04 337.881L1313.27 335.895C1312.7 335.827 1312.14 335.792 1311.62 335.792V337.792ZM1313.1 337.886C1313.64 337.916 1314.07 337.975 1314.42 338.054L1314.87 336.106C1314.38 335.993 1313.83 335.924 1313.21 335.89L1313.1 337.886ZM1313.65 336.945L1313.13 340.833L1315.11 341.103L1315.64 337.215L1313.65 336.945ZM1314.34 339.994C1313.89 339.889 1313.39 339.803 1312.85 339.736L1312.6 341.72C1313.09 341.781 1313.52 341.855 1313.89 341.942L1314.34 339.994ZM1312.86 339.737C1312.34 339.667 1311.83 339.632 1311.33 339.632V341.632C1311.73 341.632 1312.15 341.661 1312.59 341.719L1312.86 339.737ZM1311.33 339.632C1309.82 339.632 1308.4 340.059 1307.1 340.893L1308.18 342.579C1309.17 341.941 1310.22 341.632 1311.33 341.632V339.632ZM1307.12 340.883C1305.8 341.689 1304.75 342.835 1303.97 344.287L1305.73 345.233C1306.36 344.061 1307.17 343.191 1308.16 342.589L1307.12 340.883ZM1303.97 344.295C1303.21 345.744 1302.84 347.414 1302.84 349.272H1304.84C1304.84 347.674 1305.15 346.336 1305.74 345.225L1303.97 344.295ZM1302.84 349.272V363H1304.84V349.272H1302.84ZM1303.84 362H1299.62V364H1303.84V362ZM1300.62 363V337.272H1298.62V363H1300.62ZM1299.62 338.272H1303.08V336.272H1299.62V338.272ZM1302.08 337.374L1302.56 342.078L1304.55 341.874L1304.07 337.17L1302.08 337.374ZM1303.56 342.976H1303.75V340.976H1303.56V342.976ZM1304.61 342.485C1305.38 341.186 1306.36 340.065 1307.58 339.116L1306.35 337.54C1304.94 338.639 1303.78 339.95 1302.89 341.467L1304.61 342.485ZM1307.58 339.116C1308.7 338.24 1310.03 337.792 1311.62 337.792V335.792C1309.62 335.792 1307.85 336.368 1306.35 337.54L1307.58 339.116ZM1338.5 340.536V341.536H1339.5V340.536H1338.5ZM1332.02 340.536V339.536H1331.02V340.536H1332.02ZM1332.02 363V364H1333.02V363H1332.02ZM1327.8 363H1326.8V364H1327.8V363ZM1327.8 340.536H1328.8V339.536H1327.8V340.536ZM1323.29 340.536H1322.29V341.536H1323.29V340.536ZM1323.29 338.568L1322.98 337.615L1322.29 337.837V338.568H1323.29ZM1327.8 337.128L1328.1 338.081L1328.8 337.859V337.128H1327.8ZM1330.01 328.488L1330.71 329.203L1330.72 329.195L1330.01 328.488ZM1338.94 326.568L1338.71 327.542L1338.73 327.547L1338.75 327.551L1338.94 326.568ZM1341.14 327.144L1342.09 327.46L1342.4 326.541L1341.49 326.206L1341.14 327.144ZM1340.04 330.456L1339.74 331.41L1340.68 331.703L1340.99 330.772L1340.04 330.456ZM1333.03 331.176L1332.23 330.585L1332.22 330.589L1333.03 331.176ZM1332.02 337.272H1331.02V338.272H1332.02V337.272ZM1338.5 337.272H1339.5V336.272H1338.5V337.272ZM1338.5 339.536H1332.02V341.536H1338.5V339.536ZM1331.02 340.536V363H1333.02V340.536H1331.02ZM1332.02 362H1327.8V364H1332.02V362ZM1328.8 363V340.536H1326.8V363H1328.8ZM1327.8 339.536H1323.29V341.536H1327.8V339.536ZM1324.29 340.536V338.568H1322.29V340.536H1324.29ZM1323.59 339.521L1328.1 338.081L1327.5 336.175L1322.98 337.615L1323.59 339.521ZM1328.8 337.128V335.64H1326.8V337.128H1328.8ZM1328.8 335.64C1328.8 332.422 1329.52 330.367 1330.71 329.203L1329.31 327.773C1327.56 329.489 1326.8 332.202 1326.8 335.64H1328.8ZM1330.72 329.195C1331.95 327.956 1333.72 327.28 1336.15 327.28V325.28C1333.34 325.28 1331.01 326.076 1329.3 327.781L1330.72 329.195ZM1336.15 327.28C1337.12 327.28 1337.97 327.37 1338.71 327.542L1339.16 325.594C1338.24 325.382 1337.24 325.28 1336.15 325.28V327.28ZM1338.75 327.551C1339.58 327.704 1340.26 327.883 1340.8 328.082L1341.49 326.206C1340.81 325.957 1340.02 325.752 1339.12 325.585L1338.75 327.551ZM1340.2 326.828L1339.09 330.14L1340.99 330.772L1342.09 327.46L1340.2 326.828ZM1340.34 329.502C1339.8 329.333 1339.18 329.167 1338.5 329.003L1338.03 330.949C1338.69 331.105 1339.26 331.259 1339.74 331.41L1340.34 329.502ZM1338.5 329.003C1337.75 328.825 1336.98 328.736 1336.2 328.736V330.736C1336.83 330.736 1337.44 330.807 1338.03 330.949L1338.5 329.003ZM1336.2 328.736C1334.54 328.736 1333.15 329.319 1332.23 330.585L1333.84 331.767C1334.32 331.113 1335.05 330.736 1336.2 330.736V328.736ZM1332.22 330.589C1331.36 331.775 1331.02 333.507 1331.02 335.592H1333.02C1333.02 333.645 1333.36 332.433 1333.84 331.763L1332.22 330.589ZM1331.02 335.592V337.272H1333.02V335.592H1331.02ZM1332.02 338.272H1338.5V336.272H1332.02V338.272ZM1337.5 337.272V340.536H1339.5V337.272H1337.5ZM1371.85 337.272H1372.85V336.272H1371.85V337.272ZM1371.85 363V364H1372.85V363H1371.85ZM1368.4 363L1367.41 363.18L1367.56 364H1368.4V363ZM1367.77 359.592L1368.76 359.412L1368.61 358.592H1367.77V359.592ZM1367.58 359.592V358.592H1367.02L1366.73 359.066L1367.58 359.592ZM1364.12 362.568L1364.51 363.492L1364.52 363.489L1364.52 363.485L1364.12 362.568ZM1352.41 361.272L1351.72 361.994L1351.73 362.001L1352.41 361.272ZM1350.06 337.272V336.272H1349.06V337.272H1350.06ZM1354.33 337.272H1355.33V336.272H1354.33V337.272ZM1365.95 357.576L1365.13 357.002L1365.12 357.014L1365.95 357.576ZM1367.63 337.272V336.272H1366.63V337.272H1367.63ZM1370.85 337.272V363H1372.85V337.272H1370.85ZM1371.85 362H1368.4V364H1371.85V362ZM1369.38 362.82L1368.76 359.412L1366.79 359.772L1367.41 363.18L1369.38 362.82ZM1367.77 358.592H1367.58V360.592H1367.77V358.592ZM1366.73 359.066C1366.01 360.234 1365.01 361.091 1363.73 361.651L1364.52 363.485C1366.18 362.765 1367.49 361.638 1368.43 360.118L1366.73 359.066ZM1363.74 361.644C1362.4 362.2 1360.96 362.48 1359.42 362.48V364.48C1361.21 364.48 1362.91 364.152 1364.51 363.492L1363.74 361.644ZM1359.42 362.48C1356.46 362.48 1354.41 361.777 1353.1 360.543L1351.73 362.001C1353.55 363.711 1356.17 364.48 1359.42 364.48V362.48ZM1353.1 360.55C1351.81 359.312 1351.06 357.248 1351.06 354.12H1349.06C1349.06 357.52 1349.88 360.224 1351.72 361.994L1353.1 360.55ZM1351.06 354.12V337.272H1349.06V354.12H1351.06ZM1350.06 338.272H1354.33V336.272H1350.06V338.272ZM1353.33 337.272V353.832H1355.33V337.272H1353.33ZM1353.33 353.832C1353.33 356.017 1353.84 357.842 1355.03 359.121C1356.23 360.414 1357.97 360.976 1360.04 360.976V358.976C1358.31 358.976 1357.2 358.514 1356.49 357.759C1355.78 356.99 1355.33 355.743 1355.33 353.832H1353.33ZM1360.04 360.976C1363.06 360.976 1365.42 360.126 1366.78 358.138L1365.12 357.014C1364.3 358.226 1362.73 358.976 1360.04 358.976V360.976ZM1366.77 358.149C1368.05 356.313 1368.63 353.774 1368.63 350.664H1366.63C1366.63 353.57 1366.08 355.639 1365.13 357.003L1366.77 358.149ZM1368.63 350.664V337.272H1366.63V350.664H1368.63ZM1367.63 338.272H1371.85V336.272H1367.63V338.272ZM1391.44 363V364H1392.44V363H1391.44ZM1387.22 363H1386.22V364H1387.22V363ZM1387.22 326.52V325.52H1386.22V326.52H1387.22ZM1391.44 326.52H1392.44V325.52H1391.44V326.52ZM1391.44 362H1387.22V364H1391.44V362ZM1388.22 363V326.52H1386.22V363H1388.22ZM1387.22 327.52H1391.44V325.52H1387.22V327.52ZM1390.44 326.52V363H1392.44V326.52H1390.44ZM1456.13 363V364H1457.13V363H1456.13ZM1451.09 363L1450.25 363.542L1450.54 364H1451.09V363ZM1432.75 334.536L1433.59 333.994L1433.3 333.536H1432.75V334.536ZM1432.56 334.536V333.536H1431.5L1431.56 334.593L1432.56 334.536ZM1432.8 338.712L1431.8 338.77L1431.8 338.77L1432.8 338.712ZM1432.95 363V364H1433.95V363H1432.95ZM1428.96 363H1427.96V364H1428.96V363ZM1428.96 328.728V327.728H1427.96V328.728H1428.96ZM1433.95 328.728L1434.79 328.186L1434.5 327.728H1433.95V328.728ZM1452.24 357.096L1451.4 357.638L1451.7 358.096H1452.24V357.096ZM1452.43 357.096V358.096H1453.5L1453.43 357.034L1452.43 357.096ZM1452.29 354.792L1451.29 354.823L1451.29 354.839L1451.29 354.854L1452.29 354.792ZM1452.15 351.432L1451.15 351.458L1451.15 351.471L1451.15 351.485L1452.15 351.432ZM1452.1 328.728V327.728H1451.1V328.728H1452.1ZM1456.13 328.728H1457.13V327.728H1456.13V328.728ZM1456.13 362H1451.09V364H1456.13V362ZM1451.93 362.458L1433.59 333.994L1431.91 335.078L1450.25 363.542L1451.93 362.458ZM1432.75 333.536H1432.56V335.536H1432.75V333.536ZM1431.56 334.593C1431.63 335.713 1431.71 337.105 1431.8 338.77L1433.8 338.654C1433.7 336.991 1433.62 335.599 1433.56 334.479L1431.56 334.593ZM1431.8 338.77C1431.9 340.413 1431.95 342.106 1431.95 343.848H1433.95C1433.95 342.07 1433.9 340.339 1433.8 338.654L1431.8 338.77ZM1431.95 343.848V363H1433.95V343.848H1431.95ZM1432.95 362H1428.96V364H1432.95V362ZM1429.96 363V328.728H1427.96V363H1429.96ZM1428.96 329.728H1433.95V327.728H1428.96V329.728ZM1433.11 329.27L1451.4 357.638L1453.08 356.554L1434.79 328.186L1433.11 329.27ZM1452.24 358.096H1452.43V356.096H1452.24V358.096ZM1453.43 357.034C1453.4 356.522 1453.35 355.754 1453.29 354.73L1451.29 354.854C1451.36 355.878 1451.4 356.646 1451.44 357.158L1453.43 357.034ZM1453.29 354.761C1453.26 353.728 1453.21 352.601 1453.14 351.379L1451.15 351.485C1451.21 352.695 1451.26 353.808 1451.29 354.823L1453.29 354.761ZM1453.15 351.406C1453.11 350.197 1453.1 349.086 1453.1 348.072H1451.1C1451.1 349.106 1451.11 350.235 1451.15 351.458L1453.15 351.406ZM1453.1 348.072V328.728H1451.1V348.072H1453.1ZM1452.1 329.728H1456.13V327.728H1452.1V329.728ZM1455.13 328.728V363H1457.13V328.728H1455.13ZM1475.9 328.296L1475.21 329.027L1475.24 329.05L1475.26 329.072L1475.9 328.296ZM1475.9 332.328L1475.24 331.575L1475.22 331.586L1475.21 331.597L1475.9 332.328ZM1472.44 332.328L1473.12 331.597L1473.12 331.597L1472.44 332.328ZM1472.44 328.296L1473.09 329.052L1473.11 329.04L1473.12 329.027L1472.44 328.296ZM1476.28 337.272H1477.28V336.272H1476.28V337.272ZM1476.28 363V364H1477.28V363H1476.28ZM1472.06 363H1471.06V364H1472.06V363ZM1472.06 337.272V336.272H1471.06V337.272H1472.06ZM1474.22 328.624C1474.59 328.624 1474.91 328.747 1475.21 329.027L1476.58 327.565C1475.92 326.949 1475.12 326.624 1474.22 326.624V328.624ZM1475.26 329.072C1475.46 329.23 1475.66 329.557 1475.66 330.312H1477.66C1477.66 329.211 1477.36 328.194 1476.53 327.52L1475.26 329.072ZM1475.66 330.312C1475.66 331.017 1475.47 331.373 1475.24 331.575L1476.55 333.081C1477.35 332.387 1477.66 331.399 1477.66 330.312H1475.66ZM1475.21 331.597C1474.91 331.877 1474.59 332 1474.22 332V334C1475.12 334 1475.92 333.675 1476.58 333.059L1475.21 331.597ZM1474.22 332C1473.74 332 1473.4 331.859 1473.12 331.597L1471.76 333.059C1472.44 333.693 1473.28 334 1474.22 334V332ZM1473.12 331.597C1472.91 331.399 1472.72 331.036 1472.72 330.312H1470.72C1470.72 331.38 1471.01 332.361 1471.76 333.059L1473.12 331.597ZM1472.72 330.312C1472.72 329.537 1472.92 329.204 1473.09 329.052L1471.78 327.54C1471 328.22 1470.72 329.231 1470.72 330.312H1472.72ZM1473.12 329.027C1473.4 328.765 1473.74 328.624 1474.22 328.624V326.624C1473.28 326.624 1472.44 326.931 1471.76 327.565L1473.12 329.027ZM1475.28 337.272V363H1477.28V337.272H1475.28ZM1476.28 362H1472.06V364H1476.28V362ZM1473.06 363V337.272H1471.06V363H1473.06ZM1472.06 338.272H1476.28V336.272H1472.06V338.272ZM1505.31 337.752L1504.88 338.655L1504.89 338.659L1505.31 337.752ZM1508.81 340.68L1508.01 341.271L1508.31 341.68H1508.81V340.68ZM1509.05 340.68V341.68H1509.9L1510.04 340.847L1509.05 340.68ZM1509.63 337.272V336.272H1508.78L1508.64 337.105L1509.63 337.272ZM1512.99 337.272H1513.99V336.272H1512.99V337.272ZM1510.16 371.736L1509.46 371.023L1509.45 371.029L1510.16 371.736ZM1492.21 372.888H1491.21V373.533L1491.79 373.799L1492.21 372.888ZM1492.21 369L1492.68 368.117L1491.21 367.336V369H1492.21ZM1506.89 369.048L1506.19 368.341L1506.18 368.35L1506.17 368.359L1506.89 369.048ZM1508.86 361.128L1509.86 361.173L1509.86 361.171L1508.86 361.128ZM1508.96 359.592L1509.95 359.702L1510.08 358.592H1508.96V359.592ZM1508.77 359.592V358.592H1508.23L1507.93 359.037L1508.77 359.592ZM1492.97 359.976L1492.19 360.598L1492.2 360.605L1492.97 359.976ZM1492.97 340.44L1492.18 339.827L1492.18 339.828L1492.97 340.44ZM1496.33 342.936L1497.15 343.508L1497.16 343.501L1496.33 342.936ZM1496.29 357.528L1495.46 358.09L1495.46 358.099L1495.47 358.108L1496.29 357.528ZM1507.09 357.96L1507.84 358.612L1507.85 358.604L1507.09 357.96ZM1507.04 342.648L1506.25 343.269L1506.26 343.277L1507.04 342.648ZM1500.75 337.792C1502.32 337.792 1503.69 338.087 1504.88 338.655L1505.74 336.849C1504.24 336.137 1502.57 335.792 1500.75 335.792V337.792ZM1504.89 338.659C1506.1 339.222 1507.14 340.085 1508.01 341.271L1509.62 340.089C1508.57 338.651 1507.27 337.562 1505.73 336.845L1504.89 338.659ZM1508.81 341.68H1509.05V339.68H1508.81V341.68ZM1510.04 340.847L1510.62 337.439L1508.64 337.105L1508.07 340.513L1510.04 340.847ZM1509.63 338.272H1512.99V336.272H1509.63V338.272ZM1511.99 337.272V363.432H1513.99V337.272H1511.99ZM1511.99 363.432C1511.99 366.951 1511.09 369.418 1509.46 371.023L1510.86 372.449C1513 370.342 1513.99 367.273 1513.99 363.432H1511.99ZM1509.45 371.029C1507.86 372.622 1505.27 373.52 1501.47 373.52V375.52C1505.54 375.52 1508.75 374.562 1510.87 372.443L1509.45 371.029ZM1501.47 373.52C1497.78 373.52 1494.85 372.987 1492.62 371.977L1491.79 373.799C1494.37 374.965 1497.61 375.52 1501.47 375.52V373.52ZM1493.21 372.888V369H1491.21V372.888H1493.21ZM1491.74 369.883C1494.45 371.325 1497.79 372.016 1501.71 372.016V370.016C1498.01 370.016 1495.02 369.363 1492.68 368.117L1491.74 369.883ZM1501.71 372.016C1504.13 372.016 1506.14 371.29 1507.62 369.737L1506.17 368.359C1505.15 369.43 1503.71 370.016 1501.71 370.016V372.016ZM1507.6 369.755C1509.11 368.245 1509.81 366.206 1509.81 363.768H1507.81C1507.81 365.81 1507.24 367.291 1506.19 368.341L1507.6 369.755ZM1509.81 363.768V362.76H1507.81V363.768H1509.81ZM1509.81 362.76C1509.81 362.399 1509.83 361.873 1509.86 361.173L1507.86 361.083C1507.83 361.791 1507.81 362.353 1507.81 362.76H1509.81ZM1509.86 361.171C1509.89 360.434 1509.92 359.953 1509.95 359.702L1507.96 359.482C1507.93 359.807 1507.89 360.35 1507.86 361.085L1509.86 361.171ZM1508.96 358.592H1508.77V360.592H1508.96V358.592ZM1507.93 359.037C1506.42 361.306 1504.11 362.48 1500.8 362.48V364.48C1504.66 364.48 1507.65 363.062 1509.6 360.147L1507.93 359.037ZM1500.8 362.48C1497.73 362.48 1495.43 361.421 1493.75 359.347L1492.2 360.605C1494.3 363.203 1497.21 364.48 1500.8 364.48V362.48ZM1493.76 359.354C1492.09 357.254 1491.19 354.24 1491.19 350.184H1489.19C1489.19 354.512 1490.15 358.026 1492.19 360.598L1493.76 359.354ZM1491.19 350.184C1491.19 346.233 1492.09 343.224 1493.77 341.052L1492.18 339.828C1490.15 342.456 1489.19 345.943 1489.19 350.184H1491.19ZM1493.76 341.053C1495.45 338.884 1497.74 337.792 1500.75 337.792V335.792C1497.17 335.792 1494.28 337.132 1492.18 339.827L1493.76 341.053ZM1501.33 339.344C1498.86 339.344 1496.88 340.363 1495.51 342.371L1497.16 343.501C1498.15 342.053 1499.5 341.344 1501.33 341.344V339.344ZM1495.51 342.364C1494.17 344.295 1493.56 346.961 1493.56 350.232H1495.56C1495.56 347.167 1496.13 344.969 1497.15 343.508L1495.51 342.364ZM1493.56 350.232C1493.56 353.499 1494.15 356.16 1495.46 358.09L1497.11 356.966C1496.12 355.504 1495.56 353.301 1495.56 350.232H1493.56ZM1495.47 358.108C1496.86 360.064 1498.89 361.024 1501.42 361.024V359.024C1499.47 359.024 1498.08 358.32 1497.1 356.948L1495.47 358.108ZM1501.42 361.024C1504.18 361.024 1506.4 360.291 1507.84 358.612L1506.33 357.308C1505.4 358.381 1503.85 359.024 1501.42 359.024V361.024ZM1507.85 358.604C1509.26 356.927 1509.86 354.383 1509.86 351.192H1507.86C1507.86 354.209 1507.28 356.177 1506.32 357.316L1507.85 358.604ZM1509.86 351.192V350.184H1507.86V351.192H1509.86ZM1509.86 350.184C1509.86 346.601 1509.25 343.797 1507.82 342.019L1506.26 343.277C1507.25 344.507 1507.86 346.727 1507.86 350.184H1509.86ZM1507.82 342.027C1506.36 340.179 1504.12 339.344 1501.33 339.344V341.344C1503.72 341.344 1505.29 342.045 1506.25 343.269L1507.82 342.027ZM1532.35 340.824L1531.36 340.683L1531.19 341.824H1532.35V340.824ZM1532.63 340.824V341.824H1533.18L1533.48 341.36L1532.63 340.824ZM1535.99 337.848L1535.57 336.942L1535.56 336.946L1535.99 337.848ZM1547.71 339.096L1547.01 339.818L1547.02 339.825L1547.71 339.096ZM1550.06 363V364H1551.06V363H1550.06ZM1545.88 363H1544.88V364H1545.88V363ZM1534.17 342.792L1533.34 342.237L1533.33 342.241L1534.17 342.792ZM1532.59 363V364H1533.59V363H1532.59ZM1528.36 363H1527.36V364H1528.36V363ZM1528.36 326.52V325.52H1527.36V326.52H1528.36ZM1532.59 326.52H1533.59V325.52H1532.59V326.52ZM1531.59 337.224C1531.59 338.463 1531.51 339.615 1531.36 340.683L1533.34 340.965C1533.5 339.793 1533.59 338.545 1533.59 337.224H1531.59ZM1532.35 341.824H1532.63V339.824H1532.35V341.824ZM1533.48 341.36C1534.21 340.207 1535.18 339.342 1536.42 338.75L1535.56 336.946C1533.99 337.698 1532.72 338.817 1531.79 340.288L1533.48 341.36ZM1536.42 338.754C1537.72 338.147 1539.12 337.84 1540.65 337.84V335.84C1538.85 335.84 1537.15 336.205 1535.57 336.942L1536.42 338.754ZM1540.65 337.84C1543.64 337.84 1545.7 338.558 1547.01 339.818L1548.4 338.374C1546.57 336.626 1543.93 335.84 1540.65 335.84V337.84ZM1547.02 339.825C1548.3 341.027 1549.06 343.083 1549.06 346.248H1551.06C1551.06 342.821 1550.24 340.109 1548.39 338.367L1547.02 339.825ZM1549.06 346.248V363H1551.06V346.248H1549.06ZM1550.06 362H1545.88V364H1550.06V362ZM1546.88 363V346.536H1544.88V363H1546.88ZM1546.88 346.536C1546.88 344.335 1546.37 342.498 1545.17 341.211C1543.96 339.91 1542.21 339.344 1540.12 339.344V341.344C1541.87 341.344 1543 341.81 1543.71 342.573C1544.43 343.35 1544.88 344.609 1544.88 346.536H1546.88ZM1540.12 339.344C1537.07 339.344 1534.69 340.212 1533.34 342.237L1535 343.347C1535.83 342.108 1537.41 341.344 1540.12 341.344V339.344ZM1533.33 342.241C1532.13 344.073 1531.59 346.603 1531.59 349.704H1533.59C1533.59 346.789 1534.1 344.711 1535 343.343L1533.33 342.241ZM1531.59 349.704V363H1533.59V349.704H1531.59ZM1532.59 362H1528.36V364H1532.59V362ZM1529.36 363V326.52H1527.36V363H1529.36ZM1528.36 327.52H1532.59V325.52H1528.36V327.52ZM1531.59 326.52V337.224H1533.59V326.52H1531.59ZM1575.79 359.88L1575.93 360.87L1575.96 360.867L1575.98 360.862L1575.79 359.88ZM1577.43 359.496H1578.43V358.142L1577.13 358.54L1577.43 359.496ZM1577.43 362.712L1577.87 363.606L1578.43 363.33V362.712H1577.43ZM1575.51 363.24L1575.35 362.252L1575.33 362.254L1575.32 362.258L1575.51 363.24ZM1569.36 362.808L1568.97 363.727L1568.98 363.734L1569 363.74L1569.36 362.808ZM1565.57 340.536H1566.57V339.536H1565.57V340.536ZM1561.92 340.536H1560.92V341.536H1561.92V340.536ZM1561.92 338.52L1561.51 337.61L1560.92 337.876V338.52H1561.92ZM1565.62 336.84L1566.03 337.75L1566.44 337.564L1566.57 337.133L1565.62 336.84ZM1567.3 331.368V330.368H1566.56L1566.34 331.075L1567.3 331.368ZM1569.79 331.368H1570.79V330.368H1569.79V331.368ZM1569.79 337.272H1568.79V338.272H1569.79V337.272ZM1577.23 337.272H1578.23V336.272H1577.23V337.272ZM1577.23 340.536V341.536H1578.23V340.536H1577.23ZM1569.79 340.536V339.536H1568.79V340.536H1569.79ZM1570.9 358.92L1570.18 359.612L1570.19 359.627L1570.21 359.642L1570.9 358.92ZM1573.83 361.024C1574.52 361.024 1575.22 360.972 1575.93 360.87L1575.65 358.89C1575.02 358.98 1574.42 359.024 1573.83 359.024V361.024ZM1575.98 360.862C1576.67 360.731 1577.25 360.595 1577.72 360.452L1577.13 358.54C1576.76 358.653 1576.26 358.773 1575.61 358.898L1575.98 360.862ZM1576.43 359.496V362.712H1578.43V359.496H1576.43ZM1576.98 361.818C1576.66 361.974 1576.14 362.13 1575.35 362.252L1575.66 364.228C1576.53 364.094 1577.29 363.898 1577.87 363.606L1576.98 361.818ZM1575.32 362.258C1574.54 362.407 1573.8 362.48 1573.11 362.48V364.48C1573.94 364.48 1574.81 364.393 1575.69 364.222L1575.32 362.258ZM1573.11 362.48C1571.87 362.48 1570.75 362.275 1569.72 361.876L1569 363.74C1570.28 364.237 1571.65 364.48 1573.11 364.48V362.48ZM1569.76 361.889C1568.85 361.499 1568.09 360.834 1567.48 359.839L1565.77 360.881C1566.57 362.19 1567.64 363.157 1568.97 363.727L1569.76 361.889ZM1567.48 359.839C1566.91 358.907 1566.57 357.5 1566.57 355.512H1564.57C1564.57 357.684 1564.93 359.509 1565.77 360.881L1567.48 359.839ZM1566.57 355.512V340.536H1564.57V355.512H1566.57ZM1565.57 339.536H1561.92V341.536H1565.57V339.536ZM1562.92 340.536V338.52H1560.92V340.536H1562.92ZM1562.33 339.43L1566.03 337.75L1565.2 335.93L1561.51 337.61L1562.33 339.43ZM1566.57 337.133L1568.25 331.661L1566.34 331.075L1564.66 336.547L1566.57 337.133ZM1567.3 332.368H1569.79V330.368H1567.3V332.368ZM1568.79 331.368V337.272H1570.79V331.368H1568.79ZM1569.79 338.272H1577.23V336.272H1569.79V338.272ZM1576.23 337.272V340.536H1578.23V337.272H1576.23ZM1577.23 339.536H1569.79V341.536H1577.23V339.536ZM1568.79 340.536V355.416H1570.79V340.536H1568.79ZM1568.79 355.416C1568.79 357.121 1569.19 358.586 1570.18 359.612L1571.62 358.228C1571.13 357.718 1570.79 356.847 1570.79 355.416H1568.79ZM1570.21 359.642C1571.18 360.577 1572.41 361.024 1573.83 361.024V359.024C1572.87 359.024 1572.15 358.735 1571.59 358.198L1570.21 359.642Z" fill="white"/>
<defs>
<clipPath id="clip0">
<rect width="51.17" height="51.17" fill="white" transform="translate(48 357)"/>
</clipPath>
<clipPath id="clip1">
<rect width="51.17" height="51.17" fill="white" transform="translate(1873.17 408) rotate(-180)"/>
</clipPath>
<clipPath id="clip2">
<rect width="1326" height="676" fill="white" transform="matrix(-1 0 0 1 1540 90)"/>
</clipPath>
</defs>
</svg>
