<svg width="1920" height="766" viewBox="0 0 1920 766" fill="none" xmlns="http://www.w3.org/2000/svg">
<path d="M1920 0H0V766H1920V0Z" fill="#FDDD8C"/>
<g clip-path="url(#clip0)">
<path opacity="0.7" d="M98.4738 388.465C101.72 374.717 93.2065 360.939 79.4577 357.693C65.7088 354.446 51.9314 362.96 48.6849 376.709C45.4384 390.458 53.9523 404.235 67.7011 407.482C81.4499 410.728 95.2274 402.214 98.4738 388.465Z" fill="#38AF7E"/>
<path d="M66.2402 382.52L80.9302 369.05" stroke="#EDEDED" stroke-width="4" stroke-miterlimit="10" stroke-linecap="round" stroke-linejoin="round"/>
<path d="M80.9302 396.11L66.2402 382.65" stroke="#EDEDED" stroke-width="4" stroke-miterlimit="10" stroke-linecap="round" stroke-linejoin="round"/>
</g>
<g clip-path="url(#clip1)">
<path opacity="0.7" d="M1822.7 376.535C1819.45 390.283 1827.96 404.061 1841.71 407.307C1855.46 410.554 1869.24 402.04 1872.48 388.291C1875.73 374.542 1867.22 360.765 1853.47 357.518C1839.72 354.272 1825.94 362.786 1822.7 376.535Z" fill="#38AF7E"/>
<path d="M1854.93 382.48L1840.24 395.95" stroke="#EDEDED" stroke-width="4" stroke-miterlimit="10" stroke-linecap="round" stroke-linejoin="round"/>
<path d="M1840.24 368.89L1854.93 382.35" stroke="#EDEDED" stroke-width="4" stroke-miterlimit="10" stroke-linecap="round" stroke-linejoin="round"/>
</g>
<path d="M1554 670.785C1554 660.174 1562.59 651.569 1573.19 651.569C1575.86 651.569 1578.41 652.117 1580.72 653.106C1581.29 645.199 1589.52 638.918 1599.58 638.918C1603.79 638.918 1607.67 640.013 1610.81 641.869C1610.77 641.418 1610.74 640.959 1610.74 640.491C1610.74 633.387 1616.38 627.442 1623.96 625.851C1624.61 614.79 1635.1 606 1647.93 606C1658.48 606 1667.45 611.937 1670.67 620.197C1671.95 620.056 1673.27 619.985 1674.6 619.985C1692.27 619.985 1706.6 632.486 1706.6 647.912C1706.6 651.03 1706.01 654.034 1704.93 656.835C1711.4 659.282 1716 665.537 1716 672.87C1716 682.332 1708.34 690 1698.89 690C1698.62 690 1698.34 689.991 1698.07 689.982V690H1572.97V689.991C1562.47 689.876 1554 681.324 1554 670.785Z" fill="#F7F4F4"/>
<path d="M1471.44 735.351C1474.21 733.441 1476.02 730.271 1476.02 726.68C1476.02 721.943 1472.86 717.933 1468.51 716.588C1468.53 716.389 1468.53 716.191 1468.53 715.992C1468.53 710.667 1464.16 706.351 1458.77 706.351C1458.11 706.351 1457.47 706.42 1456.85 706.542C1456.84 701.271 1453.56 697 1449.5 697C1445.5 697 1442.24 701.171 1442.16 706.351C1442.16 706.351 1442.16 706.351 1442.15 706.351C1436.76 706.351 1432.39 710.667 1432.39 715.992C1432.39 716.122 1432.39 716.259 1432.39 716.389C1427.67 717.489 1424.15 721.676 1424.15 726.68C1424.15 730.041 1425.74 733.036 1428.23 734.977C1424.34 737.093 1422 739.797 1422 742.746C1422 749.515 1434.31 755 1449.5 755C1464.68 755 1477 749.515 1477 742.746C1477 739.965 1474.93 737.406 1471.44 735.351Z" fill="#E5CC61"/>
<path d="M1448.84 728.667C1449.03 727.778 1449.97 727.778 1450.16 728.667L1453.86 745.802L1457.97 764.822C1458.1 765.415 1457.77 766 1457.31 766H1449.5H1441.69C1441.23 766 1440.9 765.415 1441.03 764.822L1445.14 745.802L1448.84 728.667Z" fill="#D17A39"/>
<path d="M1131.16 331.396H1144.01V349.596C1142 350.255 1139.97 350.74 1137.92 351.052C1135.88 351.364 1133.56 351.52 1130.96 351.52C1127.11 351.52 1123.87 350.757 1121.23 349.232C1118.6 347.672 1116.59 345.471 1115.2 342.628C1113.85 339.751 1113.17 336.353 1113.17 332.436C1113.17 328.553 1113.93 325.191 1115.46 322.348C1116.99 319.505 1119.17 317.304 1122.01 315.744C1124.89 314.149 1128.36 313.352 1132.41 313.352C1134.49 313.352 1136.45 313.543 1138.29 313.924C1140.16 314.305 1141.89 314.843 1143.49 315.536L1141.72 319.592C1140.4 319.003 1138.91 318.5 1137.25 318.084C1135.62 317.668 1133.92 317.46 1132.15 317.46C1127.71 317.46 1124.25 318.795 1121.75 321.464C1119.29 324.133 1118.06 327.791 1118.06 332.436C1118.06 335.383 1118.53 338 1119.46 340.288C1120.43 342.541 1121.94 344.309 1123.99 345.592C1126.03 346.84 1128.72 347.464 1132.05 347.464C1133.68 347.464 1135.06 347.377 1136.21 347.204C1137.35 347.031 1138.39 346.823 1139.33 346.58V335.556H1131.16V331.396ZM1184.28 337.012C1184.28 341.623 1183.11 345.193 1180.75 347.724C1178.43 350.255 1175.27 351.52 1171.28 351.52C1168.82 351.52 1166.62 350.965 1164.68 349.856C1162.77 348.712 1161.27 347.065 1160.16 344.916C1159.05 342.732 1158.49 340.097 1158.49 337.012C1158.49 332.401 1159.65 328.848 1161.98 326.352C1164.3 323.856 1167.45 322.608 1171.44 322.608C1173.97 322.608 1176.19 323.18 1178.1 324.324C1180.04 325.433 1181.55 327.063 1182.62 329.212C1183.73 331.327 1184.28 333.927 1184.28 337.012ZM1163.22 337.012C1163.22 340.305 1163.87 342.923 1165.15 344.864C1166.47 346.771 1168.55 347.724 1171.39 347.724C1174.2 347.724 1176.26 346.771 1177.58 344.864C1178.89 342.923 1179.55 340.305 1179.55 337.012C1179.55 333.719 1178.89 331.136 1177.58 329.264C1176.26 327.392 1174.18 326.456 1171.34 326.456C1168.49 326.456 1166.43 327.392 1165.15 329.264C1163.87 331.136 1163.22 333.719 1163.22 337.012ZM1223.57 337.012C1223.57 341.623 1222.39 345.193 1220.03 347.724C1217.71 350.255 1214.56 351.52 1210.57 351.52C1208.11 351.52 1205.91 350.965 1203.96 349.856C1202.06 348.712 1200.55 347.065 1199.44 344.916C1198.33 342.732 1197.78 340.097 1197.78 337.012C1197.78 332.401 1198.94 328.848 1201.26 326.352C1203.58 323.856 1206.74 322.608 1210.72 322.608C1213.26 322.608 1215.47 323.18 1217.38 324.324C1219.32 325.433 1220.83 327.063 1221.9 329.212C1223.01 331.327 1223.57 333.927 1223.57 337.012ZM1202.51 337.012C1202.51 340.305 1203.15 342.923 1204.43 344.864C1205.75 346.771 1207.83 347.724 1210.67 347.724C1213.48 347.724 1215.54 346.771 1216.86 344.864C1218.18 342.923 1218.84 340.305 1218.84 337.012C1218.84 333.719 1218.18 331.136 1216.86 329.264C1215.54 327.392 1213.46 326.456 1210.62 326.456C1207.78 326.456 1205.72 327.392 1204.43 329.264C1203.15 331.136 1202.51 333.719 1202.51 337.012ZM1248.5 351.52C1245.03 351.52 1242.26 350.324 1240.18 347.932C1238.1 345.505 1237.06 341.9 1237.06 337.116C1237.06 332.332 1238.1 328.727 1240.18 326.3C1242.3 323.839 1245.09 322.608 1248.55 322.608C1250.7 322.608 1252.45 323.007 1253.8 323.804C1255.19 324.601 1256.32 325.572 1257.18 326.716H1257.5C1257.46 326.265 1257.39 325.607 1257.29 324.74C1257.22 323.839 1257.18 323.128 1257.18 322.608V311.48H1261.76V351H1258.07L1257.39 347.256H1257.18C1256.35 348.435 1255.24 349.44 1253.86 350.272C1252.47 351.104 1250.68 351.52 1248.5 351.52ZM1249.23 347.724C1252.18 347.724 1254.24 346.927 1255.42 345.332C1256.63 343.703 1257.24 341.259 1257.24 338V337.168C1257.24 333.701 1256.66 331.049 1255.52 329.212C1254.38 327.34 1252.26 326.404 1249.18 326.404C1246.72 326.404 1244.86 327.392 1243.61 329.368C1242.4 331.309 1241.79 333.927 1241.79 337.22C1241.79 340.548 1242.4 343.131 1243.61 344.968C1244.86 346.805 1246.73 347.724 1249.23 347.724ZM1311.68 351.52C1308.22 351.52 1305.44 350.324 1303.36 347.932C1301.28 345.505 1300.24 341.9 1300.24 337.116C1300.24 332.332 1301.28 328.727 1303.36 326.3C1305.48 323.839 1308.27 322.608 1311.73 322.608C1313.88 322.608 1315.63 323.007 1316.99 323.804C1318.37 324.601 1319.5 325.572 1320.37 326.716H1320.68C1320.64 326.265 1320.57 325.607 1320.47 324.74C1320.4 323.839 1320.37 323.128 1320.37 322.608V311.48H1324.94V351H1321.25L1320.57 347.256H1320.37C1319.53 348.435 1318.43 349.44 1317.04 350.272C1315.65 351.104 1313.87 351.52 1311.68 351.52ZM1312.41 347.724C1315.36 347.724 1317.42 346.927 1318.6 345.332C1319.81 343.703 1320.42 341.259 1320.42 338V337.168C1320.42 333.701 1319.85 331.049 1318.7 329.212C1317.56 327.34 1315.44 326.404 1312.36 326.404C1309.9 326.404 1308.04 327.392 1306.79 329.368C1305.58 331.309 1304.97 333.927 1304.97 337.22C1304.97 340.548 1305.58 343.131 1306.79 344.968C1308.04 346.805 1309.91 347.724 1312.41 347.724ZM1352.15 322.66C1355.55 322.66 1358.06 323.405 1359.69 324.896C1361.32 326.387 1362.14 328.761 1362.14 332.02V351H1358.81L1357.92 347.048H1357.72C1356.5 348.573 1355.22 349.7 1353.87 350.428C1352.55 351.156 1350.71 351.52 1348.36 351.52C1345.82 351.52 1343.73 350.861 1342.06 349.544C1340.4 348.192 1339.57 346.095 1339.57 343.252C1339.57 340.479 1340.66 338.347 1342.84 336.856C1345.03 335.331 1348.39 334.499 1352.93 334.36L1357.66 334.204V332.54C1357.66 330.217 1357.16 328.605 1356.16 327.704C1355.15 326.803 1353.73 326.352 1351.89 326.352C1350.44 326.352 1349.05 326.577 1347.73 327.028C1346.41 327.444 1345.18 327.929 1344.04 328.484L1342.64 325.052C1343.85 324.393 1345.29 323.839 1346.95 323.388C1348.62 322.903 1350.35 322.66 1352.15 322.66ZM1353.5 337.532C1350.04 337.671 1347.63 338.225 1346.28 339.196C1344.96 340.167 1344.3 341.536 1344.3 343.304C1344.3 344.864 1344.77 346.008 1345.7 346.736C1346.67 347.464 1347.9 347.828 1349.4 347.828C1351.75 347.828 1353.71 347.187 1355.27 345.904C1356.83 344.587 1357.61 342.576 1357.61 339.872V337.376L1353.5 337.532ZM1374.18 323.128H1379.06L1385.1 338.988C1385.62 340.375 1386.08 341.709 1386.5 342.992C1386.92 344.24 1387.23 345.436 1387.44 346.58H1387.64C1387.85 345.713 1388.18 344.587 1388.63 343.2C1389.08 341.779 1389.55 340.357 1390.04 338.936L1395.7 323.128H1400.64L1388.63 354.848C1387.66 357.483 1386.4 359.58 1384.84 361.14C1383.31 362.7 1381.2 363.48 1378.49 363.48C1377.66 363.48 1376.93 363.428 1376.31 363.324C1375.68 363.255 1375.15 363.168 1374.7 363.064V359.424C1375.08 359.493 1375.53 359.563 1376.05 359.632C1376.6 359.701 1377.17 359.736 1377.76 359.736C1379.36 359.736 1380.64 359.285 1381.61 358.384C1382.62 357.483 1383.4 356.287 1383.95 354.796L1385.41 351.104L1374.18 323.128ZM1445.55 347.776C1446.24 347.776 1446.95 347.724 1447.68 347.62C1448.41 347.481 1449 347.343 1449.45 347.204V350.688C1448.96 350.931 1448.27 351.121 1447.37 351.26C1446.47 351.433 1445.6 351.52 1444.77 351.52C1443.31 351.52 1441.96 351.277 1440.71 350.792C1439.5 350.272 1438.51 349.388 1437.75 348.14C1436.99 346.892 1436.61 345.141 1436.61 342.888V326.664H1432.65V324.48L1436.66 322.66L1438.48 316.732H1441.18V323.128H1449.24V326.664H1441.18V342.784C1441.18 344.483 1441.58 345.748 1442.38 346.58C1443.21 347.377 1444.27 347.776 1445.55 347.776ZM1487.06 337.012C1487.06 341.623 1485.88 345.193 1483.53 347.724C1481.2 350.255 1478.05 351.52 1474.06 351.52C1471.6 351.52 1469.4 350.965 1467.46 349.856C1465.55 348.712 1464.04 347.065 1462.93 344.916C1461.82 342.732 1461.27 340.097 1461.27 337.012C1461.27 332.401 1462.43 328.848 1464.75 326.352C1467.08 323.856 1470.23 322.608 1474.22 322.608C1476.75 322.608 1478.97 323.18 1480.87 324.324C1482.82 325.433 1484.32 327.063 1485.4 329.212C1486.51 331.327 1487.06 333.927 1487.06 337.012ZM1466 337.012C1466 340.305 1466.64 342.923 1467.93 344.864C1469.24 346.771 1471.32 347.724 1474.17 347.724C1476.97 347.724 1479.04 346.771 1480.35 344.864C1481.67 342.923 1482.33 340.305 1482.33 337.012C1482.33 333.719 1481.67 331.136 1480.35 329.264C1479.04 327.392 1476.96 326.456 1474.11 326.456C1471.27 326.456 1469.21 327.392 1467.93 329.264C1466.64 331.136 1466 333.719 1466 337.012ZM1521.14 323.128H1526.02L1532.06 338.988C1532.58 340.375 1533.04 341.709 1533.46 342.992C1533.88 344.24 1534.19 345.436 1534.4 346.58H1534.6C1534.81 345.713 1535.14 344.587 1535.59 343.2C1536.04 341.779 1536.51 340.357 1537 338.936L1542.66 323.128H1547.6L1535.59 354.848C1534.62 357.483 1533.36 359.58 1531.8 361.14C1530.27 362.7 1528.16 363.48 1525.45 363.48C1524.62 363.48 1523.89 363.428 1523.27 363.324C1522.64 363.255 1522.11 363.168 1521.66 363.064V359.424C1522.04 359.493 1522.49 359.563 1523.01 359.632C1523.56 359.701 1524.14 359.736 1524.72 359.736C1526.32 359.736 1527.6 359.285 1528.57 358.384C1529.58 357.483 1530.36 356.287 1530.91 354.796L1532.37 351.104L1521.14 323.128ZM1584.04 337.012C1584.04 341.623 1582.87 345.193 1580.51 347.724C1578.19 350.255 1575.03 351.52 1571.04 351.52C1568.58 351.52 1566.38 350.965 1564.44 349.856C1562.53 348.712 1561.03 347.065 1559.92 344.916C1558.81 342.732 1558.25 340.097 1558.25 337.012C1558.25 332.401 1559.41 328.848 1561.74 326.352C1564.06 323.856 1567.21 322.608 1571.2 322.608C1573.73 322.608 1575.95 323.18 1577.86 324.324C1579.8 325.433 1581.31 327.063 1582.38 329.212C1583.49 331.327 1584.04 333.927 1584.04 337.012ZM1562.98 337.012C1562.98 340.305 1563.63 342.923 1564.91 344.864C1566.23 346.771 1568.31 347.724 1571.15 347.724C1573.96 347.724 1576.02 346.771 1577.34 344.864C1578.65 342.923 1579.31 340.305 1579.31 337.012C1579.31 333.719 1578.65 331.136 1577.34 329.264C1576.02 327.392 1573.94 326.456 1571.1 326.456C1568.25 326.456 1566.19 327.392 1564.91 329.264C1563.63 331.136 1562.98 333.719 1562.98 337.012ZM1622.39 323.128V351H1618.65L1617.97 347.308H1617.76C1616.86 348.764 1615.62 349.839 1614.02 350.532C1612.43 351.191 1610.73 351.52 1608.92 351.52C1605.56 351.52 1603.03 350.723 1601.33 349.128C1599.63 347.499 1598.78 344.916 1598.78 341.38V323.128H1603.41V341.068C1603.41 345.505 1605.48 347.724 1609.6 347.724C1612.69 347.724 1614.82 346.857 1616 345.124C1617.21 343.391 1617.82 340.895 1617.82 337.636V323.128H1622.39Z" fill="white"/>
<path d="M1131.16 331.396V330.396H1130.16V331.396H1131.16ZM1144.01 331.396H1145.01V330.396H1144.01V331.396ZM1144.01 349.596L1144.32 350.546L1145.01 350.321V349.596H1144.01ZM1137.92 351.052L1137.77 350.063L1137.77 350.063L1137.92 351.052ZM1121.23 349.232L1120.72 350.093L1120.73 350.097L1121.23 349.232ZM1115.2 342.628L1114.29 343.053L1114.3 343.06L1114.3 343.066L1115.2 342.628ZM1115.46 322.348L1116.34 322.821L1116.34 322.821L1115.46 322.348ZM1122.01 315.744L1122.49 316.621L1122.5 316.619L1122.01 315.744ZM1138.29 313.924L1138.08 314.903L1138.09 314.904L1138.29 313.924ZM1143.49 315.536L1144.4 315.936L1144.8 315.018L1143.89 314.619L1143.49 315.536ZM1141.72 319.592L1141.31 320.505L1142.23 320.917L1142.64 319.992L1141.72 319.592ZM1137.25 318.084L1137 319.053L1137.01 319.054L1137.25 318.084ZM1121.75 321.464L1121.02 320.781L1121.02 320.786L1121.75 321.464ZM1119.46 340.288L1118.54 340.667L1118.54 340.675L1118.55 340.684L1119.46 340.288ZM1123.99 345.592L1123.46 346.439L1123.47 346.446L1123.99 345.592ZM1136.21 347.204L1136.06 346.215L1136.06 346.215L1136.21 347.204ZM1139.33 346.58L1139.58 347.548L1140.33 347.354V346.58H1139.33ZM1139.33 335.556H1140.33V334.556H1139.33V335.556ZM1131.16 335.556H1130.16V336.556H1131.16V335.556ZM1131.16 332.396H1144.01V330.396H1131.16V332.396ZM1143.01 331.396V349.596H1145.01V331.396H1143.01ZM1143.7 348.646C1141.74 349.288 1139.76 349.76 1137.77 350.063L1138.07 352.041C1140.18 351.72 1142.26 351.222 1144.32 350.546L1143.7 348.646ZM1137.77 350.063C1135.79 350.366 1133.52 350.52 1130.96 350.52V352.52C1133.59 352.52 1135.97 352.362 1138.07 352.041L1137.77 350.063ZM1130.96 350.52C1127.24 350.52 1124.18 349.783 1121.73 348.367L1120.73 350.097C1123.55 351.731 1126.98 352.52 1130.96 352.52V350.52ZM1121.74 348.372C1119.28 346.915 1117.4 344.863 1116.1 342.19L1114.3 343.066C1115.77 346.079 1117.91 348.429 1120.72 350.092L1121.74 348.372ZM1116.11 342.203C1114.83 339.486 1114.17 336.24 1114.17 332.436H1112.17C1112.17 336.467 1112.87 340.016 1114.29 343.053L1116.11 342.203ZM1114.17 332.436C1114.17 328.685 1114.91 325.491 1116.34 322.821L1114.58 321.875C1112.96 324.89 1112.17 328.422 1112.17 332.436H1114.17ZM1116.34 322.821C1117.77 320.15 1119.82 318.088 1122.49 316.621L1121.53 314.867C1118.52 316.52 1116.2 318.861 1114.58 321.875L1116.34 322.821ZM1122.5 316.619C1125.19 315.123 1128.49 314.352 1132.41 314.352V312.352C1128.23 312.352 1124.58 313.175 1121.53 314.869L1122.5 316.619ZM1132.41 314.352C1134.43 314.352 1136.32 314.537 1138.08 314.903L1138.49 312.945C1136.58 312.548 1134.55 312.352 1132.41 312.352V314.352ZM1138.09 314.904C1139.9 315.273 1141.56 315.79 1143.09 316.453L1143.89 314.619C1142.22 313.895 1140.42 313.338 1138.49 312.944L1138.09 314.904ZM1142.57 315.136L1140.8 319.192L1142.64 319.992L1144.4 315.936L1142.57 315.136ZM1142.13 318.679C1140.75 318.062 1139.2 317.541 1137.49 317.114L1137.01 319.054C1138.62 319.458 1140.06 319.943 1141.31 320.505L1142.13 318.679ZM1137.5 317.115C1135.78 316.677 1134 316.46 1132.15 316.46V318.46C1133.84 318.46 1135.46 318.659 1137 319.053L1137.5 317.115ZM1132.15 316.46C1127.5 316.46 1123.75 317.867 1121.02 320.781L1122.48 322.147C1124.75 319.722 1127.93 318.46 1132.15 318.46V316.46ZM1121.02 320.786C1118.34 323.687 1117.06 327.612 1117.06 332.436H1119.06C1119.06 327.969 1120.24 324.579 1122.49 322.142L1121.02 320.786ZM1117.06 332.436C1117.06 335.488 1117.54 338.238 1118.54 340.667L1120.39 339.909C1119.51 337.762 1119.06 335.277 1119.06 332.436H1117.06ZM1118.55 340.684C1119.6 343.12 1121.24 345.047 1123.46 346.439L1124.52 344.745C1122.65 343.572 1121.27 341.963 1120.38 339.892L1118.55 340.684ZM1123.47 346.446C1125.72 347.82 1128.6 348.464 1132.05 348.464V346.464C1128.84 346.464 1126.35 345.86 1124.51 344.738L1123.47 346.446ZM1132.05 348.464C1133.71 348.464 1135.15 348.376 1136.36 348.193L1136.06 346.215C1134.98 346.379 1133.65 346.464 1132.05 346.464V348.464ZM1136.36 348.193C1137.53 348.015 1138.6 347.801 1139.58 347.548L1139.08 345.612C1138.18 345.845 1137.17 346.046 1136.06 346.215L1136.36 348.193ZM1140.33 346.58V335.556H1138.33V346.58H1140.33ZM1139.33 334.556H1131.16V336.556H1139.33V334.556ZM1132.16 335.556V331.396H1130.16V335.556H1132.16ZM1180.75 347.724L1180.02 347.042L1180.01 347.048L1180.75 347.724ZM1164.68 349.856L1164.17 350.713L1164.17 350.719L1164.18 350.724L1164.68 349.856ZM1160.16 344.916L1159.26 345.369L1159.27 345.375L1160.16 344.916ZM1161.98 326.352L1161.24 325.671L1161.24 325.671L1161.98 326.352ZM1178.1 324.324L1177.58 325.181L1177.59 325.187L1177.6 325.192L1178.1 324.324ZM1182.62 329.212L1181.73 329.659L1181.73 329.668L1181.73 329.677L1182.62 329.212ZM1165.15 344.864L1164.31 345.415L1164.32 345.424L1164.33 345.432L1165.15 344.864ZM1177.58 344.864L1178.4 345.432L1178.4 345.426L1177.58 344.864ZM1177.58 329.264L1178.39 328.689L1178.39 328.689L1177.58 329.264ZM1165.15 329.264L1165.97 329.829L1165.97 329.829L1165.15 329.264ZM1183.28 337.012C1183.28 341.456 1182.15 344.751 1180.02 347.042L1181.48 348.406C1184.06 345.635 1185.28 341.789 1185.28 337.012H1183.28ZM1180.01 347.048C1177.91 349.338 1175.04 350.52 1171.28 350.52V352.52C1175.5 352.52 1178.94 351.171 1181.48 348.4L1180.01 347.048ZM1171.28 350.52C1168.98 350.52 1166.95 350.002 1165.18 348.988L1164.18 350.724C1166.29 351.928 1168.67 352.52 1171.28 352.52V350.52ZM1165.19 348.999C1163.46 347.958 1162.08 346.457 1161.04 344.457L1159.27 345.375C1160.45 347.674 1162.09 349.466 1164.17 350.713L1165.19 348.999ZM1161.05 344.463C1160.03 342.451 1159.49 339.98 1159.49 337.012H1157.49C1157.49 340.215 1158.07 343.013 1159.26 345.369L1161.05 344.463ZM1159.49 337.012C1159.49 332.564 1160.61 329.287 1162.71 327.033L1161.24 325.671C1158.7 328.409 1157.49 332.239 1157.49 337.012H1159.49ZM1162.71 327.033C1164.81 324.775 1167.68 323.608 1171.44 323.608V321.608C1167.23 321.608 1163.79 322.937 1161.24 325.671L1162.71 327.033ZM1171.44 323.608C1173.82 323.608 1175.85 324.143 1177.58 325.181L1178.61 323.467C1176.53 322.217 1174.13 321.608 1171.44 321.608V323.608ZM1177.6 325.192C1179.36 326.196 1180.73 327.673 1181.73 329.659L1183.51 328.765C1182.36 326.453 1180.72 324.67 1178.59 323.456L1177.6 325.192ZM1181.73 329.677C1182.75 331.612 1183.28 334.043 1183.28 337.012H1185.28C1185.28 333.811 1184.71 331.041 1183.51 328.747L1181.73 329.677ZM1162.22 337.012C1162.22 340.423 1162.89 343.256 1164.31 345.415L1165.98 344.313C1164.84 342.59 1164.22 340.187 1164.22 337.012H1162.22ZM1164.33 345.432C1165.87 347.672 1168.3 348.724 1171.39 348.724V346.724C1168.79 346.724 1167.06 345.869 1165.97 344.296L1164.33 345.432ZM1171.39 348.724C1174.45 348.724 1176.85 347.668 1178.4 345.432L1176.75 344.296C1175.66 345.873 1173.95 346.724 1171.39 346.724V348.724ZM1178.4 345.426C1179.87 343.264 1180.55 340.428 1180.55 337.012H1178.55C1178.55 340.183 1177.92 342.581 1176.75 344.302L1178.4 345.426ZM1180.55 337.012C1180.55 333.599 1179.87 330.788 1178.39 328.689L1176.76 329.839C1177.92 331.484 1178.55 333.838 1178.55 337.012H1180.55ZM1178.39 328.689C1176.84 326.485 1174.42 325.456 1171.34 325.456V327.456C1173.94 327.456 1175.67 328.299 1176.76 329.839L1178.39 328.689ZM1171.34 325.456C1168.26 325.456 1165.84 326.485 1164.32 328.699L1165.97 329.829C1167.02 328.299 1168.73 327.456 1171.34 327.456V325.456ZM1164.32 328.699C1162.89 330.797 1162.22 333.604 1162.22 337.012H1164.22C1164.22 333.834 1164.85 331.475 1165.97 329.829L1164.32 328.699ZM1220.03 347.724L1219.3 347.042L1219.3 347.048L1220.03 347.724ZM1203.96 349.856L1203.45 350.713L1203.46 350.719L1203.47 350.724L1203.96 349.856ZM1199.44 344.916L1198.55 345.369L1198.55 345.375L1199.44 344.916ZM1201.26 326.352L1200.53 325.671L1200.53 325.671L1201.26 326.352ZM1217.38 324.324L1216.87 325.181L1216.88 325.187L1216.88 325.192L1217.38 324.324ZM1221.9 329.212L1221.01 329.659L1221.01 329.668L1221.02 329.677L1221.9 329.212ZM1204.43 344.864L1203.6 345.415L1203.6 345.424L1203.61 345.432L1204.43 344.864ZM1216.86 344.864L1217.68 345.432L1217.69 345.426L1216.86 344.864ZM1216.86 329.264L1217.68 328.689L1217.68 328.689L1216.86 329.264ZM1204.43 329.264L1205.26 329.829L1205.26 329.829L1204.43 329.264ZM1222.57 337.012C1222.57 341.456 1221.43 344.751 1219.3 347.042L1220.76 348.406C1223.34 345.635 1224.57 341.789 1224.57 337.012H1222.57ZM1219.3 347.048C1217.19 349.338 1214.32 350.52 1210.57 350.52V352.52C1214.79 352.52 1218.23 351.171 1220.77 348.4L1219.3 347.048ZM1210.57 350.52C1208.26 350.52 1206.24 350.002 1204.46 348.988L1203.47 350.724C1205.58 351.928 1207.95 352.52 1210.57 352.52V350.52ZM1204.48 348.999C1202.75 347.958 1201.36 346.457 1200.33 344.457L1198.55 345.375C1199.74 347.674 1201.37 349.466 1203.45 350.713L1204.48 348.999ZM1200.33 344.463C1199.31 342.451 1198.78 339.98 1198.78 337.012H1196.78C1196.78 340.215 1197.35 343.013 1198.55 345.369L1200.33 344.463ZM1198.78 337.012C1198.78 332.564 1199.9 329.287 1201.99 327.033L1200.53 325.671C1197.98 328.409 1196.78 332.239 1196.78 337.012H1198.78ZM1201.99 327.033C1204.09 324.775 1206.96 323.608 1210.72 323.608V321.608C1206.51 321.608 1203.07 322.937 1200.53 325.671L1201.99 327.033ZM1210.72 323.608C1213.1 323.608 1215.14 324.143 1216.87 325.181L1217.89 323.467C1215.81 322.217 1213.41 321.608 1210.72 321.608V323.608ZM1216.88 325.192C1218.64 326.196 1220.02 327.673 1221.01 329.659L1222.8 328.765C1221.64 326.453 1220 324.67 1217.88 323.456L1216.88 325.192ZM1221.02 329.677C1222.03 331.612 1222.57 334.043 1222.57 337.012H1224.57C1224.57 333.811 1223.99 331.041 1222.79 328.747L1221.02 329.677ZM1201.51 337.012C1201.51 340.423 1202.17 343.256 1203.6 345.415L1205.27 344.313C1204.13 342.59 1203.51 340.187 1203.51 337.012H1201.51ZM1203.61 345.432C1205.16 347.672 1207.59 348.724 1210.67 348.724V346.724C1208.07 346.724 1206.34 345.869 1205.26 344.296L1203.61 345.432ZM1210.67 348.724C1213.73 348.724 1216.14 347.668 1217.68 345.432L1216.04 344.296C1214.95 345.873 1213.23 346.724 1210.67 346.724V348.724ZM1217.69 345.426C1219.15 343.264 1219.84 340.428 1219.84 337.012H1217.84C1217.84 340.183 1217.2 342.581 1216.03 344.302L1217.69 345.426ZM1219.84 337.012C1219.84 333.599 1219.16 330.788 1217.68 328.689L1216.04 329.839C1217.2 331.484 1217.84 333.838 1217.84 337.012H1219.84ZM1217.68 328.689C1216.13 326.485 1213.7 325.456 1210.62 325.456V327.456C1213.23 327.456 1214.96 328.299 1216.04 329.839L1217.68 328.689ZM1210.62 325.456C1207.54 325.456 1205.12 326.485 1203.61 328.699L1205.26 329.829C1206.31 328.299 1208.01 327.456 1210.62 327.456V325.456ZM1203.61 328.699C1202.17 330.797 1201.51 333.604 1201.51 337.012H1203.51C1203.51 333.834 1204.13 331.475 1205.26 329.829L1203.61 328.699ZM1240.18 347.932L1239.42 348.583L1239.43 348.588L1240.18 347.932ZM1240.18 326.3L1239.42 325.648L1239.42 325.649L1240.18 326.3ZM1253.8 323.804L1253.3 324.665L1253.31 324.671L1253.8 323.804ZM1257.18 326.716L1256.39 327.32L1256.69 327.716H1257.18V326.716ZM1257.5 326.716V327.716H1258.58L1258.49 326.639L1257.5 326.716ZM1257.29 324.74L1256.29 324.817L1256.29 324.838L1256.3 324.859L1257.29 324.74ZM1257.18 311.48V310.48H1256.18V311.48H1257.18ZM1261.76 311.48H1262.76V310.48H1261.76V311.48ZM1261.76 351V352H1262.76V351H1261.76ZM1258.07 351L1257.08 351.178L1257.23 352H1258.07V351ZM1257.39 347.256L1258.38 347.078L1258.23 346.256H1257.39V347.256ZM1257.18 347.256V346.256H1256.67L1256.37 346.679L1257.18 347.256ZM1253.86 350.272L1254.37 351.129L1254.37 351.129L1253.86 350.272ZM1255.42 345.332L1254.61 344.735L1254.61 344.738L1255.42 345.332ZM1255.52 329.212L1254.67 329.733L1254.67 329.741L1255.52 329.212ZM1243.61 329.368L1242.77 328.834L1242.76 328.838L1243.61 329.368ZM1243.61 344.968L1242.78 345.519L1242.79 345.53L1243.61 344.968ZM1248.5 350.52C1245.29 350.52 1242.81 349.427 1240.94 347.276L1239.43 348.588C1241.72 351.221 1244.78 352.52 1248.5 352.52V350.52ZM1240.94 347.281C1239.08 345.107 1238.06 341.776 1238.06 337.116H1236.06C1236.06 342.024 1237.13 345.904 1239.42 348.583L1240.94 347.281ZM1238.06 337.116C1238.06 332.456 1239.08 329.125 1240.94 326.951L1239.42 325.649C1237.13 328.328 1236.06 332.208 1236.06 337.116H1238.06ZM1240.94 326.952C1242.85 324.728 1245.36 323.608 1248.55 323.608V321.608C1244.82 321.608 1241.74 322.949 1239.42 325.648L1240.94 326.952ZM1248.55 323.608C1250.59 323.608 1252.15 323.986 1253.3 324.665L1254.31 322.943C1252.76 322.027 1250.82 321.608 1248.55 321.608V323.608ZM1253.31 324.671C1254.59 325.409 1255.61 326.294 1256.39 327.32L1257.98 326.112C1257.03 324.85 1255.79 323.794 1254.3 322.937L1253.31 324.671ZM1257.18 327.716H1257.5V325.716H1257.18V327.716ZM1258.49 326.639C1258.46 326.167 1258.39 325.491 1258.28 324.621L1256.3 324.859C1256.4 325.722 1256.47 326.364 1256.5 326.793L1258.49 326.639ZM1258.29 324.663C1258.22 323.772 1258.18 323.09 1258.18 322.608H1256.18C1256.18 323.166 1256.22 323.905 1256.29 324.817L1258.29 324.663ZM1258.18 322.608V311.48H1256.18V322.608H1258.18ZM1257.18 312.48H1261.76V310.48H1257.18V312.48ZM1260.76 311.48V351H1262.76V311.48H1260.76ZM1261.76 350H1258.07V352H1261.76V350ZM1259.05 350.822L1258.38 347.078L1256.41 347.434L1257.08 351.178L1259.05 350.822ZM1257.39 346.256H1257.18V348.256H1257.39V346.256ZM1256.37 346.679C1255.63 347.731 1254.62 348.645 1253.34 349.415L1254.37 351.129C1255.86 350.235 1257.08 349.138 1258 347.833L1256.37 346.679ZM1253.34 349.415C1252.16 350.126 1250.56 350.52 1248.5 350.52V352.52C1250.8 352.52 1252.78 352.082 1254.37 351.129L1253.34 349.415ZM1249.23 348.724C1252.33 348.724 1254.78 347.883 1256.22 345.926L1254.61 344.738C1253.7 345.971 1252.02 346.724 1249.23 346.724V348.724ZM1256.22 345.929C1257.62 344.051 1258.24 341.354 1258.24 338H1256.24C1256.24 341.164 1255.64 343.354 1254.61 344.735L1256.22 345.929ZM1258.24 338V337.168H1256.24V338H1258.24ZM1258.24 337.168C1258.24 333.617 1257.66 330.748 1256.37 328.683L1254.67 329.741C1255.67 331.351 1256.24 333.786 1256.24 337.168H1258.24ZM1256.37 328.691C1254.98 326.409 1252.45 325.404 1249.18 325.404V327.404C1252.07 327.404 1253.77 328.271 1254.67 329.733L1256.37 328.691ZM1249.18 325.404C1246.39 325.404 1244.21 326.55 1242.77 328.834L1244.46 329.902C1245.51 328.234 1247.04 327.404 1249.18 327.404V325.404ZM1242.76 328.838C1241.42 330.993 1240.79 333.817 1240.79 337.22H1242.79C1242.79 334.036 1243.38 331.625 1244.46 329.898L1242.76 328.838ZM1240.79 337.22C1240.79 340.65 1241.41 343.455 1242.78 345.519L1244.45 344.417C1243.38 342.807 1242.79 340.446 1242.79 337.22H1240.79ZM1242.79 345.53C1244.25 347.679 1246.45 348.724 1249.23 348.724V346.724C1247.02 346.724 1245.48 345.932 1244.44 344.406L1242.79 345.53ZM1303.36 347.932L1302.6 348.583L1302.61 348.588L1303.36 347.932ZM1303.36 326.3L1302.6 325.648L1302.6 325.649L1303.36 326.3ZM1316.99 323.804L1316.48 324.665L1316.49 324.671L1316.99 323.804ZM1320.37 326.716L1319.57 327.32L1319.87 327.716H1320.37V326.716ZM1320.68 326.716V327.716H1321.76L1321.68 326.639L1320.68 326.716ZM1320.47 324.74L1319.47 324.817L1319.48 324.838L1319.48 324.859L1320.47 324.74ZM1320.37 311.48V310.48H1319.37V311.48H1320.37ZM1324.94 311.48H1325.94V310.48H1324.94V311.48ZM1324.94 351V352H1325.94V351H1324.94ZM1321.25 351L1320.27 351.178L1320.42 352H1321.25V351ZM1320.57 347.256L1321.56 347.078L1321.41 346.256H1320.57V347.256ZM1320.37 347.256V346.256H1319.85L1319.55 346.679L1320.37 347.256ZM1317.04 350.272L1317.55 351.129L1317.55 351.129L1317.04 350.272ZM1318.6 345.332L1317.8 344.735L1317.79 344.738L1318.6 345.332ZM1318.7 329.212L1317.85 329.733L1317.85 329.741L1318.7 329.212ZM1306.79 329.368L1305.95 328.834L1305.95 328.838L1306.79 329.368ZM1306.79 344.968L1305.96 345.519L1305.97 345.53L1306.79 344.968ZM1311.68 350.52C1308.48 350.52 1305.99 349.427 1304.12 347.276L1302.61 348.588C1304.9 351.221 1307.96 352.52 1311.68 352.52V350.52ZM1304.12 347.281C1302.26 345.107 1301.24 341.776 1301.24 337.116H1299.24C1299.24 342.024 1300.31 345.904 1302.6 348.583L1304.12 347.281ZM1301.24 337.116C1301.24 332.456 1302.26 329.125 1304.12 326.951L1302.6 325.649C1300.31 328.328 1299.24 332.208 1299.24 337.116H1301.24ZM1304.12 326.952C1306.03 324.728 1308.54 323.608 1311.73 323.608V321.608C1308 321.608 1304.92 322.949 1302.6 325.648L1304.12 326.952ZM1311.73 323.608C1313.77 323.608 1315.33 323.986 1316.48 324.665L1317.49 322.943C1315.94 322.027 1314 321.608 1311.73 321.608V323.608ZM1316.49 324.671C1317.77 325.409 1318.79 326.294 1319.57 327.32L1321.16 326.112C1320.21 324.85 1318.97 323.794 1317.49 322.937L1316.49 324.671ZM1320.37 327.716H1320.68V325.716H1320.37V327.716ZM1321.68 326.639C1321.64 326.167 1321.57 325.491 1321.46 324.621L1319.48 324.859C1319.58 325.722 1319.65 326.364 1319.68 326.793L1321.68 326.639ZM1321.47 324.663C1321.4 323.772 1321.37 323.09 1321.37 322.608H1319.37C1319.37 323.166 1319.4 323.905 1319.47 324.817L1321.47 324.663ZM1321.37 322.608V311.48H1319.37V322.608H1321.37ZM1320.37 312.48H1324.94V310.48H1320.37V312.48ZM1323.94 311.48V351H1325.94V311.48H1323.94ZM1324.94 350H1321.25V352H1324.94V350ZM1322.23 350.822L1321.56 347.078L1319.59 347.434L1320.27 351.178L1322.23 350.822ZM1320.57 346.256H1320.37V348.256H1320.57V346.256ZM1319.55 346.679C1318.81 347.731 1317.81 348.645 1316.52 349.415L1317.55 351.129C1319.04 350.235 1320.26 349.138 1321.18 347.833L1319.55 346.679ZM1316.52 349.415C1315.34 350.126 1313.75 350.52 1311.68 350.52V352.52C1313.99 352.52 1315.97 352.082 1317.55 351.129L1316.52 349.415ZM1312.41 348.724C1315.51 348.724 1317.96 347.883 1319.4 345.926L1317.79 344.738C1316.88 345.971 1315.2 346.724 1312.41 346.724V348.724ZM1319.4 345.929C1320.8 344.051 1321.42 341.354 1321.42 338H1319.42C1319.42 341.164 1318.82 343.354 1317.8 344.735L1319.4 345.929ZM1321.42 338V337.168H1319.42V338H1321.42ZM1321.42 337.168C1321.42 333.617 1320.84 330.748 1319.55 328.683L1317.85 329.741C1318.86 331.351 1319.42 333.786 1319.42 337.168H1321.42ZM1319.56 328.691C1318.16 326.409 1315.64 325.404 1312.36 325.404V327.404C1315.25 327.404 1316.96 328.271 1317.85 329.733L1319.56 328.691ZM1312.36 325.404C1309.58 325.404 1307.39 326.55 1305.95 328.834L1307.64 329.902C1308.69 328.234 1310.22 327.404 1312.36 327.404V325.404ZM1305.95 328.838C1304.6 330.993 1303.97 333.817 1303.97 337.22H1305.97C1305.97 334.036 1306.56 331.625 1307.64 329.898L1305.95 328.838ZM1303.97 337.22C1303.97 340.65 1304.6 343.455 1305.96 345.519L1307.63 344.417C1306.57 342.807 1305.97 340.446 1305.97 337.22H1303.97ZM1305.97 345.53C1307.43 347.679 1309.63 348.724 1312.41 348.724V346.724C1310.2 346.724 1308.66 345.932 1307.62 344.406L1305.97 345.53ZM1359.69 324.896L1360.37 324.158L1360.37 324.158L1359.69 324.896ZM1362.14 351V352H1363.14V351H1362.14ZM1358.81 351L1357.83 351.218L1358.01 352H1358.81V351ZM1357.92 347.048L1358.9 346.83L1358.72 346.048H1357.92V347.048ZM1357.72 347.048V346.048H1357.23L1356.93 346.425L1357.72 347.048ZM1353.87 350.428L1353.39 349.547L1353.38 349.553L1353.87 350.428ZM1342.06 349.544L1341.43 350.32L1341.44 350.328L1342.06 349.544ZM1342.84 336.856L1343.41 337.682L1343.42 337.676L1342.84 336.856ZM1352.93 334.36L1352.96 335.36L1352.96 335.359L1352.93 334.36ZM1357.66 334.204L1357.7 335.203L1358.66 335.172V334.204H1357.66ZM1356.16 327.704L1355.49 328.449L1355.49 328.449L1356.16 327.704ZM1347.73 327.028L1348.03 327.982L1348.04 327.978L1348.05 327.974L1347.73 327.028ZM1344.04 328.484L1343.11 328.863L1343.52 329.849L1344.48 329.384L1344.04 328.484ZM1342.64 325.052L1342.16 324.173L1341.37 324.601L1341.71 325.431L1342.64 325.052ZM1346.95 323.388L1347.21 324.353L1347.22 324.351L1347.23 324.348L1346.95 323.388ZM1353.5 337.532L1353.47 336.533L1353.46 336.533L1353.5 337.532ZM1346.28 339.196L1345.69 338.384L1345.68 338.391L1346.28 339.196ZM1345.7 346.736L1345.09 347.525L1345.1 347.531L1345.1 347.536L1345.7 346.736ZM1355.27 345.904L1355.91 346.676L1355.92 346.668L1355.27 345.904ZM1357.61 337.376H1358.61V336.337L1357.57 336.377L1357.61 337.376ZM1352.15 323.66C1355.43 323.66 1357.65 324.383 1359.02 325.634L1360.37 324.158C1358.47 322.428 1355.67 321.66 1352.15 321.66V323.66ZM1359.02 325.634C1360.36 326.86 1361.14 328.907 1361.14 332.02H1363.14C1363.14 328.615 1362.28 325.913 1360.37 324.158L1359.02 325.634ZM1361.14 332.02V351H1363.14V332.02H1361.14ZM1362.14 350H1358.81V352H1362.14V350ZM1359.78 350.782L1358.9 346.83L1356.95 347.266L1357.83 351.218L1359.78 350.782ZM1357.92 346.048H1357.72V348.048H1357.92V346.048ZM1356.93 346.425C1355.78 347.872 1354.6 348.899 1353.39 349.548L1354.34 351.308C1355.84 350.501 1357.22 349.274 1358.5 347.671L1356.93 346.425ZM1353.38 349.553C1352.27 350.165 1350.63 350.52 1348.36 350.52V352.52C1350.79 352.52 1352.82 352.147 1354.35 351.303L1353.38 349.553ZM1348.36 350.52C1346 350.52 1344.14 349.912 1342.68 348.76L1341.44 350.328C1343.32 351.811 1345.64 352.52 1348.36 352.52V350.52ZM1342.69 348.768C1341.33 347.663 1340.57 345.899 1340.57 343.252H1338.57C1338.57 346.291 1339.46 348.721 1341.43 350.32L1342.69 348.768ZM1340.57 343.252C1340.57 340.79 1341.51 338.976 1343.41 337.682L1342.28 336.03C1339.81 337.718 1338.57 340.167 1338.57 343.252H1340.57ZM1343.42 337.676C1345.36 336.315 1348.49 335.496 1352.96 335.36L1352.9 333.36C1348.29 333.501 1344.69 334.346 1342.27 336.036L1343.42 337.676ZM1352.96 335.359L1357.7 335.203L1357.63 333.205L1352.9 333.361L1352.96 335.359ZM1358.66 334.204V332.54H1356.66V334.204H1358.66ZM1358.66 332.54C1358.66 330.127 1358.15 328.15 1356.82 326.959L1355.49 328.449C1356.17 329.061 1356.66 330.307 1356.66 332.54H1358.66ZM1356.82 326.959C1355.58 325.842 1353.89 325.352 1351.89 325.352V327.352C1353.57 327.352 1354.72 327.763 1355.49 328.449L1356.82 326.959ZM1351.89 325.352C1350.33 325.352 1348.83 325.594 1347.41 326.082L1348.05 327.974C1349.26 327.561 1350.54 327.352 1351.89 327.352V325.352ZM1347.43 326.074C1346.07 326.504 1344.79 327.007 1343.6 327.584L1344.48 329.384C1345.57 328.852 1346.76 328.384 1348.03 327.982L1347.43 326.074ZM1344.96 328.105L1343.56 324.673L1341.71 325.431L1343.11 328.863L1344.96 328.105ZM1343.11 325.931C1344.24 325.317 1345.61 324.788 1347.21 324.353L1346.69 322.423C1344.97 322.889 1343.45 323.47 1342.16 324.173L1343.11 325.931ZM1347.23 324.348C1348.8 323.89 1350.44 323.66 1352.15 323.66V321.66C1350.26 321.66 1348.43 321.915 1346.67 322.428L1347.23 324.348ZM1353.46 336.533C1349.97 336.672 1347.3 337.229 1345.69 338.384L1346.86 340.008C1347.95 339.222 1350.1 338.669 1353.54 338.531L1353.46 336.533ZM1345.68 338.391C1344.09 339.567 1343.3 341.248 1343.3 343.304H1345.3C1345.3 341.824 1345.83 340.766 1346.87 340.001L1345.68 338.391ZM1343.3 343.304C1343.3 345.067 1343.84 346.551 1345.09 347.525L1346.32 345.947C1345.7 345.465 1345.3 344.661 1345.3 343.304H1343.3ZM1345.1 347.536C1346.28 348.421 1347.74 348.828 1349.4 348.828V346.828C1348.07 346.828 1347.06 346.507 1346.3 345.936L1345.1 347.536ZM1349.4 348.828C1351.94 348.828 1354.14 348.13 1355.91 346.676L1354.64 345.132C1353.28 346.243 1351.56 346.828 1349.4 346.828V348.828ZM1355.92 346.668C1357.77 345.104 1358.61 342.769 1358.61 339.872H1356.61C1356.61 342.383 1355.89 344.07 1354.63 345.14L1355.92 346.668ZM1358.61 339.872V337.376H1356.61V339.872H1358.61ZM1357.57 336.377L1353.47 336.533L1353.54 338.531L1357.65 338.375L1357.57 336.377ZM1374.18 323.128V322.128H1372.7L1373.25 323.501L1374.18 323.128ZM1379.06 323.128L1380 322.773L1379.75 322.128H1379.06V323.128ZM1385.1 338.988L1386.03 338.637L1386.03 338.633L1385.1 338.988ZM1386.5 342.992L1385.55 343.301L1385.55 343.308L1386.5 342.992ZM1387.44 346.58L1386.45 346.759L1386.6 347.58H1387.44V346.58ZM1387.64 346.58V347.58H1388.43L1388.62 346.813L1387.64 346.58ZM1388.63 343.2L1389.58 343.509L1389.58 343.502L1388.63 343.2ZM1390.04 338.936L1389.09 338.598L1389.09 338.606L1389.09 338.613L1390.04 338.936ZM1395.7 323.128V322.128H1395L1394.76 322.79L1395.7 323.128ZM1400.64 323.128L1401.58 323.482L1402.09 322.128H1400.64V323.128ZM1388.63 354.848L1387.7 354.494L1387.69 354.502L1388.63 354.848ZM1384.84 361.14L1384.13 360.433L1384.12 360.441L1384.84 361.14ZM1376.31 363.324L1376.47 362.338L1376.44 362.333L1376.42 362.33L1376.31 363.324ZM1374.7 363.064H1373.7V363.86L1374.47 364.038L1374.7 363.064ZM1374.7 359.424L1374.87 358.44L1373.7 358.226V359.424H1374.7ZM1376.05 359.632L1375.92 360.623L1375.92 360.624L1376.05 359.632ZM1381.61 358.384L1380.94 357.639L1380.94 357.645L1380.93 357.651L1381.61 358.384ZM1383.95 354.796L1383.02 354.429L1383.02 354.438L1383.01 354.447L1383.95 354.796ZM1385.41 351.104L1386.34 351.471L1386.48 351.101L1386.34 350.731L1385.41 351.104ZM1374.18 324.128H1379.06V322.128H1374.18V324.128ZM1378.13 323.483L1384.16 339.343L1386.03 338.633L1380 322.773L1378.13 323.483ZM1384.16 339.339C1384.67 340.713 1385.14 342.033 1385.55 343.301L1387.45 342.683C1387.03 341.385 1386.56 340.036 1386.03 338.637L1384.16 339.339ZM1385.55 343.308C1385.95 344.517 1386.25 345.667 1386.45 346.759L1388.42 346.401C1388.2 345.205 1387.88 343.963 1387.45 342.676L1385.55 343.308ZM1387.44 347.58H1387.64V345.58H1387.44V347.58ZM1388.62 346.813C1388.82 345.983 1389.14 344.884 1389.58 343.509L1387.68 342.891C1387.23 344.289 1386.89 345.444 1386.67 346.347L1388.62 346.813ZM1389.58 343.502C1390.03 342.088 1390.5 340.674 1390.98 339.259L1389.09 338.613C1388.6 340.041 1388.13 341.469 1387.68 342.898L1389.58 343.502ZM1390.98 339.274L1396.64 323.466L1394.76 322.79L1389.09 338.598L1390.98 339.274ZM1395.7 324.128H1400.64V322.128H1395.7V324.128ZM1399.71 322.774L1387.7 354.494L1389.57 355.202L1401.58 323.482L1399.71 322.774ZM1387.69 354.502C1386.76 357.037 1385.56 358.999 1384.13 360.433L1385.54 361.847C1387.23 360.161 1388.56 357.928 1389.57 355.194L1387.69 354.502ZM1384.12 360.441C1382.83 361.764 1380.99 362.48 1378.49 362.48V364.48C1381.4 364.48 1383.79 363.636 1385.55 361.839L1384.12 360.441ZM1378.49 362.48C1377.7 362.48 1377.03 362.43 1376.47 362.338L1376.14 364.31C1376.84 364.426 1377.62 364.48 1378.49 364.48V362.48ZM1376.42 362.33C1375.82 362.264 1375.32 362.182 1374.92 362.09L1374.47 364.038C1374.97 364.154 1375.55 364.246 1376.2 364.318L1376.42 362.33ZM1375.7 363.064V359.424H1373.7V363.064H1375.7ZM1374.52 360.408C1374.92 360.481 1375.38 360.552 1375.92 360.623L1376.18 358.641C1375.67 358.573 1375.24 358.506 1374.87 358.44L1374.52 360.408ZM1375.92 360.624C1376.52 360.699 1377.13 360.736 1377.76 360.736V358.736C1377.21 358.736 1376.68 358.704 1376.17 358.64L1375.92 360.624ZM1377.76 360.736C1379.56 360.736 1381.1 360.224 1382.29 359.117L1380.93 357.651C1380.18 358.347 1379.16 358.736 1377.76 358.736V360.736ZM1382.28 359.129C1383.42 358.101 1384.29 356.76 1384.89 355.145L1383.01 354.447C1382.51 355.813 1381.81 356.864 1380.94 357.639L1382.28 359.129ZM1384.88 355.163L1386.34 351.471L1384.48 350.737L1383.02 354.429L1384.88 355.163ZM1386.34 350.731L1375.1 322.755L1373.25 323.501L1384.48 351.477L1386.34 350.731ZM1447.68 347.62L1447.82 348.61L1447.85 348.607L1447.87 348.602L1447.68 347.62ZM1449.45 347.204H1450.45V345.85L1449.16 346.248L1449.45 347.204ZM1449.45 350.688L1449.9 351.582L1450.45 351.306V350.688H1449.45ZM1447.37 351.26L1447.22 350.272L1447.2 350.274L1447.18 350.278L1447.37 351.26ZM1440.71 350.792L1440.32 351.711L1440.33 351.718L1440.35 351.724L1440.71 350.792ZM1437.75 348.14L1436.9 348.661L1437.75 348.14ZM1436.61 326.664H1437.61V325.664H1436.61V326.664ZM1432.65 326.664H1431.65V327.664H1432.65V326.664ZM1432.65 324.48L1432.24 323.57L1431.65 323.836V324.48H1432.65ZM1436.66 322.66L1437.07 323.57L1437.48 323.384L1437.61 322.953L1436.66 322.66ZM1438.48 316.732V315.732H1437.74L1437.52 316.439L1438.48 316.732ZM1441.18 316.732H1442.18V315.732H1441.18V316.732ZM1441.18 323.128H1440.18V324.128H1441.18V323.128ZM1449.24 323.128H1450.24V322.128H1449.24V323.128ZM1449.24 326.664V327.664H1450.24V326.664H1449.24ZM1441.18 326.664V325.664H1440.18V326.664H1441.18ZM1442.38 346.58L1441.66 347.272L1441.67 347.287L1441.69 347.302L1442.38 346.58ZM1445.55 348.776C1446.29 348.776 1447.05 348.72 1447.82 348.61L1447.54 346.63C1446.86 346.728 1446.19 346.776 1445.55 346.776V348.776ZM1447.87 348.602C1448.61 348.46 1449.24 348.314 1449.74 348.16L1449.16 346.248C1448.75 346.372 1448.2 346.502 1447.49 346.638L1447.87 348.602ZM1448.45 347.204V350.688H1450.45V347.204H1448.45ZM1449 349.794C1448.65 349.969 1448.08 350.14 1447.22 350.272L1447.52 352.248C1448.47 352.103 1449.28 351.893 1449.9 351.582L1449 349.794ZM1447.18 350.278C1446.33 350.441 1445.53 350.52 1444.77 350.52V352.52C1445.67 352.52 1446.6 352.426 1447.56 352.242L1447.18 350.278ZM1444.77 350.52C1443.43 350.52 1442.2 350.297 1441.08 349.86L1440.35 351.724C1441.72 352.258 1443.2 352.52 1444.77 352.52V350.52ZM1441.11 349.873C1440.1 349.443 1439.27 348.71 1438.6 347.619L1436.9 348.661C1437.75 350.066 1438.89 351.101 1440.32 351.711L1441.11 349.873ZM1438.6 347.619C1437.97 346.591 1437.61 345.049 1437.61 342.888H1435.61C1435.61 345.234 1436 347.193 1436.9 348.661L1438.6 347.619ZM1437.61 342.888V326.664H1435.61V342.888H1437.61ZM1436.61 325.664H1432.65V327.664H1436.61V325.664ZM1433.65 326.664V324.48H1431.65V326.664H1433.65ZM1433.07 325.39L1437.07 323.57L1436.24 321.75L1432.24 323.57L1433.07 325.39ZM1437.61 322.953L1439.43 317.025L1437.52 316.439L1435.7 322.367L1437.61 322.953ZM1438.48 317.732H1441.18V315.732H1438.48V317.732ZM1440.18 316.732V323.128H1442.18V316.732H1440.18ZM1441.18 324.128H1449.24V322.128H1441.18V324.128ZM1448.24 323.128V326.664H1450.24V323.128H1448.24ZM1449.24 325.664H1441.18V327.664H1449.24V325.664ZM1440.18 326.664V342.784H1442.18V326.664H1440.18ZM1440.18 342.784C1440.18 344.62 1440.61 346.182 1441.66 347.272L1443.1 345.888C1442.55 345.314 1442.18 344.346 1442.18 342.784H1440.18ZM1441.69 347.302C1442.73 348.299 1444.04 348.776 1445.55 348.776V346.776C1444.49 346.776 1443.69 346.456 1443.07 345.858L1441.69 347.302ZM1483.53 347.724L1482.79 347.042L1482.79 347.048L1483.53 347.724ZM1467.46 349.856L1466.94 350.713L1466.95 350.719L1466.96 350.724L1467.46 349.856ZM1462.93 344.916L1462.04 345.369L1462.05 345.375L1462.93 344.916ZM1464.75 326.352L1464.02 325.671L1464.02 325.671L1464.75 326.352ZM1480.87 324.324L1480.36 325.181L1480.37 325.187L1480.38 325.192L1480.87 324.324ZM1485.4 329.212L1484.5 329.659L1484.51 329.668L1484.51 329.677L1485.4 329.212ZM1467.93 344.864L1467.09 345.415L1467.1 345.424L1467.1 345.432L1467.93 344.864ZM1480.35 344.864L1481.18 345.432L1481.18 345.426L1480.35 344.864ZM1480.35 329.264L1481.17 328.689L1481.17 328.689L1480.35 329.264ZM1467.93 329.264L1468.75 329.829L1468.75 329.829L1467.93 329.264ZM1486.06 337.012C1486.06 341.456 1484.93 344.751 1482.79 347.042L1484.26 348.406C1486.84 345.635 1488.06 341.789 1488.06 337.012H1486.06ZM1482.79 347.048C1480.69 349.338 1477.82 350.52 1474.06 350.52V352.52C1478.28 352.52 1481.72 351.171 1484.26 348.4L1482.79 347.048ZM1474.06 350.52C1471.76 350.52 1469.73 350.002 1467.95 348.988L1466.96 350.724C1469.07 351.928 1471.44 352.52 1474.06 352.52V350.52ZM1467.97 348.999C1466.24 347.958 1464.85 346.457 1463.82 344.457L1462.05 345.375C1463.23 347.674 1464.86 349.466 1466.94 350.713L1467.97 348.999ZM1463.83 344.463C1462.8 342.451 1462.27 339.98 1462.27 337.012H1460.27C1460.27 340.215 1460.85 343.013 1462.04 345.369L1463.83 344.463ZM1462.27 337.012C1462.27 332.564 1463.39 329.287 1465.49 327.033L1464.02 325.671C1461.47 328.409 1460.27 332.239 1460.27 337.012H1462.27ZM1465.49 327.033C1467.59 324.775 1470.46 323.608 1474.22 323.608V321.608C1470.01 321.608 1466.57 322.937 1464.02 325.671L1465.49 327.033ZM1474.22 323.608C1476.59 323.608 1478.63 324.143 1480.36 325.181L1481.39 323.467C1479.31 322.217 1476.9 321.608 1474.22 321.608V323.608ZM1480.38 325.192C1482.13 326.196 1483.51 327.673 1484.5 329.659L1486.29 328.765C1485.14 326.453 1483.5 324.67 1481.37 323.456L1480.38 325.192ZM1484.51 329.677C1485.53 331.612 1486.06 334.043 1486.06 337.012H1488.06C1488.06 333.811 1487.49 331.041 1486.28 328.747L1484.51 329.677ZM1465 337.012C1465 340.423 1465.66 343.256 1467.09 345.415L1468.76 344.313C1467.62 342.59 1467 340.187 1467 337.012H1465ZM1467.1 345.432C1468.65 347.672 1471.08 348.724 1474.17 348.724V346.724C1471.57 346.724 1469.84 345.869 1468.75 344.296L1467.1 345.432ZM1474.17 348.724C1477.22 348.724 1479.63 347.668 1481.18 345.432L1479.53 344.296C1478.44 345.873 1476.72 346.724 1474.17 346.724V348.724ZM1481.18 345.426C1482.65 343.264 1483.33 340.428 1483.33 337.012H1481.33C1481.33 340.183 1480.69 342.581 1479.53 344.302L1481.18 345.426ZM1483.33 337.012C1483.33 333.599 1482.65 330.788 1481.17 328.689L1479.54 329.839C1480.69 331.484 1481.33 333.838 1481.33 337.012H1483.33ZM1481.17 328.689C1479.62 326.485 1477.19 325.456 1474.11 325.456V327.456C1476.72 327.456 1478.45 328.299 1479.54 329.839L1481.17 328.689ZM1474.11 325.456C1471.04 325.456 1468.62 326.485 1467.1 328.699L1468.75 329.829C1469.8 328.299 1471.51 327.456 1474.11 327.456V325.456ZM1467.1 328.699C1465.66 330.797 1465 333.604 1465 337.012H1467C1467 333.834 1467.62 331.475 1468.75 329.829L1467.1 328.699ZM1521.14 323.128V322.128H1519.66L1520.21 323.501L1521.14 323.128ZM1526.02 323.128L1526.96 322.773L1526.71 322.128H1526.02V323.128ZM1532.06 338.988L1532.99 338.637L1532.99 338.633L1532.06 338.988ZM1533.46 342.992L1532.51 343.301L1532.51 343.308L1533.46 342.992ZM1534.4 346.58L1533.41 346.759L1533.56 347.58H1534.4V346.58ZM1534.6 346.58V347.58H1535.39L1535.58 346.813L1534.6 346.58ZM1535.59 343.2L1536.54 343.509L1536.55 343.502L1535.59 343.2ZM1537 338.936L1536.06 338.598L1536.05 338.606L1536.05 338.613L1537 338.936ZM1542.66 323.128V322.128H1541.96L1541.72 322.79L1542.66 323.128ZM1547.6 323.128L1548.54 323.482L1549.05 322.128H1547.6V323.128ZM1535.59 354.848L1534.66 354.494L1534.65 354.502L1535.59 354.848ZM1531.8 361.14L1531.09 360.433L1531.08 360.441L1531.8 361.14ZM1523.27 363.324L1523.43 362.338L1523.41 362.333L1523.38 362.33L1523.27 363.324ZM1521.66 363.064H1520.66V363.86L1521.43 364.038L1521.66 363.064ZM1521.66 359.424L1521.84 358.44L1520.66 358.226V359.424H1521.66ZM1523.01 359.632L1522.88 360.623L1522.88 360.624L1523.01 359.632ZM1528.57 358.384L1527.9 357.639L1527.9 357.645L1527.89 357.651L1528.57 358.384ZM1530.91 354.796L1529.98 354.429L1529.98 354.438L1529.98 354.447L1530.91 354.796ZM1532.37 351.104L1533.3 351.471L1533.44 351.101L1533.3 350.731L1532.37 351.104ZM1521.14 324.128H1526.02V322.128H1521.14V324.128ZM1525.09 323.483L1531.12 339.343L1532.99 338.633L1526.96 322.773L1525.09 323.483ZM1531.12 339.339C1531.64 340.713 1532.1 342.033 1532.51 343.301L1534.41 342.683C1533.99 341.385 1533.52 340.036 1532.99 338.637L1531.12 339.339ZM1532.51 343.308C1532.91 344.517 1533.21 345.667 1533.41 346.759L1535.38 346.401C1535.16 345.205 1534.84 343.963 1534.41 342.676L1532.51 343.308ZM1534.4 347.58H1534.6V345.58H1534.4V347.58ZM1535.58 346.813C1535.78 345.983 1536.1 344.884 1536.54 343.509L1534.64 342.891C1534.19 344.289 1533.85 345.444 1533.63 346.347L1535.58 346.813ZM1536.55 343.502C1536.99 342.088 1537.46 340.674 1537.94 339.259L1536.05 338.613C1535.56 340.041 1535.09 341.469 1534.64 342.898L1536.55 343.502ZM1537.94 339.274L1543.61 323.466L1541.72 322.79L1536.06 338.598L1537.94 339.274ZM1542.66 324.128H1547.6V322.128H1542.66V324.128ZM1546.67 322.774L1534.66 354.494L1536.53 355.202L1548.54 323.482L1546.67 322.774ZM1534.65 354.502C1533.72 357.037 1532.52 358.999 1531.09 360.433L1532.5 361.847C1534.19 360.161 1535.52 357.928 1536.53 355.194L1534.65 354.502ZM1531.08 360.441C1529.79 361.764 1527.96 362.48 1525.45 362.48V364.48C1528.36 364.48 1530.75 363.636 1532.51 361.839L1531.08 360.441ZM1525.45 362.48C1524.66 362.48 1523.99 362.43 1523.43 362.338L1523.1 364.31C1523.8 364.426 1524.58 364.48 1525.45 364.48V362.48ZM1523.38 362.33C1522.78 362.264 1522.28 362.182 1521.88 362.09L1521.43 364.038C1521.93 364.154 1522.51 364.246 1523.16 364.318L1523.38 362.33ZM1522.66 363.064V359.424H1520.66V363.064H1522.66ZM1521.48 360.408C1521.88 360.481 1522.35 360.552 1522.88 360.623L1523.14 358.641C1522.63 358.573 1522.2 358.506 1521.84 358.44L1521.48 360.408ZM1522.88 360.624C1523.48 360.699 1524.1 360.736 1524.72 360.736V358.736C1524.17 358.736 1523.64 358.704 1523.13 358.64L1522.88 360.624ZM1524.72 360.736C1526.52 360.736 1528.06 360.224 1529.25 359.117L1527.89 357.651C1527.14 358.347 1526.12 358.736 1524.72 358.736V360.736ZM1529.24 359.129C1530.39 358.101 1531.25 356.76 1531.85 355.145L1529.98 354.447C1529.47 355.813 1528.77 356.864 1527.9 357.639L1529.24 359.129ZM1531.84 355.163L1533.3 351.471L1531.44 350.737L1529.98 354.429L1531.84 355.163ZM1533.3 350.731L1522.06 322.755L1520.21 323.501L1531.44 351.477L1533.3 350.731ZM1580.51 347.724L1579.78 347.042L1579.77 347.048L1580.51 347.724ZM1564.44 349.856L1563.93 350.713L1563.93 350.719L1563.94 350.724L1564.44 349.856ZM1559.92 344.916L1559.02 345.369L1559.03 345.375L1559.92 344.916ZM1561.74 326.352L1561 325.671L1561 325.671L1561.74 326.352ZM1577.86 324.324L1577.34 325.181L1577.35 325.187L1577.36 325.192L1577.86 324.324ZM1582.38 329.212L1581.49 329.659L1581.49 329.668L1581.49 329.677L1582.38 329.212ZM1564.91 344.864L1564.07 345.415L1564.08 345.424L1564.09 345.432L1564.91 344.864ZM1577.34 344.864L1578.16 345.432L1578.16 345.426L1577.34 344.864ZM1577.34 329.264L1578.15 328.689L1578.15 328.689L1577.34 329.264ZM1564.91 329.264L1565.73 329.829L1565.73 329.829L1564.91 329.264ZM1583.04 337.012C1583.04 341.456 1581.91 344.751 1579.78 347.042L1581.24 348.406C1583.82 345.635 1585.04 341.789 1585.04 337.012H1583.04ZM1579.77 347.048C1577.67 349.338 1574.8 350.52 1571.04 350.52V352.52C1575.26 352.52 1578.7 351.171 1581.24 348.4L1579.77 347.048ZM1571.04 350.52C1568.74 350.52 1566.71 350.002 1564.94 348.988L1563.94 350.724C1566.05 351.928 1568.43 352.52 1571.04 352.52V350.52ZM1564.95 348.999C1563.22 347.958 1561.84 346.457 1560.8 344.457L1559.03 345.375C1560.21 347.674 1561.85 349.466 1563.93 350.713L1564.95 348.999ZM1560.81 344.463C1559.79 342.451 1559.25 339.98 1559.25 337.012H1557.25C1557.25 340.215 1557.83 343.013 1559.02 345.369L1560.81 344.463ZM1559.25 337.012C1559.25 332.564 1560.37 329.287 1562.47 327.033L1561 325.671C1558.46 328.409 1557.25 332.239 1557.25 337.012H1559.25ZM1562.47 327.033C1564.57 324.775 1567.44 323.608 1571.2 323.608V321.608C1566.99 321.608 1563.55 322.937 1561 325.671L1562.47 327.033ZM1571.2 323.608C1573.58 323.608 1575.61 324.143 1577.34 325.181L1578.37 323.467C1576.29 322.217 1573.89 321.608 1571.2 321.608V323.608ZM1577.36 325.192C1579.12 326.196 1580.49 327.673 1581.49 329.659L1583.27 328.765C1582.12 326.453 1580.48 324.67 1578.35 323.456L1577.36 325.192ZM1581.49 329.677C1582.51 331.612 1583.04 334.043 1583.04 337.012H1585.04C1585.04 333.811 1584.47 331.041 1583.27 328.747L1581.49 329.677ZM1561.98 337.012C1561.98 340.423 1562.65 343.256 1564.07 345.415L1565.74 344.313C1564.6 342.59 1563.98 340.187 1563.98 337.012H1561.98ZM1564.09 345.432C1565.63 347.672 1568.06 348.724 1571.15 348.724V346.724C1568.55 346.724 1566.82 345.869 1565.73 344.296L1564.09 345.432ZM1571.15 348.724C1574.21 348.724 1576.61 347.668 1578.16 345.432L1576.51 344.296C1575.42 345.873 1573.71 346.724 1571.15 346.724V348.724ZM1578.16 345.426C1579.63 343.264 1580.31 340.428 1580.31 337.012H1578.31C1578.31 340.183 1577.68 342.581 1576.51 344.302L1578.16 345.426ZM1580.31 337.012C1580.31 333.599 1579.63 330.788 1578.15 328.689L1576.52 329.839C1577.68 331.484 1578.31 333.838 1578.31 337.012H1580.31ZM1578.15 328.689C1576.6 326.485 1574.18 325.456 1571.1 325.456V327.456C1573.7 327.456 1575.43 328.299 1576.52 329.839L1578.15 328.689ZM1571.1 325.456C1568.02 325.456 1565.6 326.485 1564.08 328.699L1565.73 329.829C1566.78 328.299 1568.49 327.456 1571.1 327.456V325.456ZM1564.08 328.699C1562.65 330.797 1561.98 333.604 1561.98 337.012H1563.98C1563.98 333.834 1564.61 331.475 1565.73 329.829L1564.08 328.699ZM1622.39 323.128H1623.39V322.128H1622.39V323.128ZM1622.39 351V352H1623.39V351H1622.39ZM1618.65 351L1617.66 351.18L1617.82 352H1618.65V351ZM1617.97 347.308L1618.96 347.128L1618.81 346.308H1617.97V347.308ZM1617.76 347.308V346.308H1617.21L1616.91 346.782L1617.76 347.308ZM1614.02 350.532L1614.4 351.456L1614.41 351.453L1614.42 351.449L1614.02 350.532ZM1601.33 349.128L1600.64 349.85L1600.65 349.857L1601.33 349.128ZM1598.78 323.128V322.128H1597.78V323.128H1598.78ZM1603.41 323.128H1604.41V322.128H1603.41V323.128ZM1616 345.124L1615.18 344.55L1615.17 344.562L1616 345.124ZM1617.82 323.128V322.128H1616.82V323.128H1617.82ZM1621.39 323.128V351H1623.39V323.128H1621.39ZM1622.39 350H1618.65V352H1622.39V350ZM1619.63 350.82L1618.96 347.128L1616.99 347.488L1617.66 351.18L1619.63 350.82ZM1617.97 346.308H1617.76V348.308H1617.97V346.308ZM1616.91 346.782C1616.12 348.062 1615.03 349.001 1613.62 349.615L1614.42 351.449C1616.2 350.676 1617.6 349.466 1618.61 347.834L1616.91 346.782ZM1613.64 349.608C1612.17 350.214 1610.6 350.52 1608.92 350.52V352.52C1610.85 352.52 1612.68 352.167 1614.4 351.456L1613.64 349.608ZM1608.92 350.52C1605.7 350.52 1603.46 349.756 1602.02 348.399L1600.65 349.857C1602.6 351.69 1605.42 352.52 1608.92 352.52V350.52ZM1602.02 348.406C1600.6 347.043 1599.78 344.78 1599.78 341.38H1597.78C1597.78 345.052 1598.66 347.955 1600.64 349.85L1602.02 348.406ZM1599.78 341.38V323.128H1597.78V341.38H1599.78ZM1598.78 324.128H1603.41V322.128H1598.78V324.128ZM1602.41 323.128V341.068H1604.41V323.128H1602.41ZM1602.41 341.068C1602.41 343.423 1602.96 345.376 1604.23 346.741C1605.51 348.119 1607.36 348.724 1609.6 348.724V346.724C1607.71 346.724 1606.47 346.219 1605.69 345.379C1604.9 344.525 1604.41 343.15 1604.41 341.068H1602.41ZM1609.6 348.724C1612.85 348.724 1615.38 347.807 1616.82 345.686L1615.17 344.562C1614.25 345.908 1612.52 346.724 1609.6 346.724V348.724ZM1616.82 345.697C1618.19 343.728 1618.82 340.996 1618.82 337.636H1616.82C1616.82 340.793 1616.23 343.054 1615.18 344.551L1616.82 345.697ZM1618.82 337.636V323.128H1616.82V337.636H1618.82ZM1617.82 324.128H1622.39V322.128H1617.82V324.128Z" fill="white"/>
<g clip-path="url(#clip2)">
<path d="M463.428 349.635C463.428 336.328 452.513 325.526 439.041 325.526C435.645 325.526 432.409 326.22 429.473 327.461C428.748 317.535 418.304 309.67 405.512 309.67C400.17 309.67 395.23 311.047 391.246 313.369C391.304 312.8 391.338 312.231 391.338 311.651C391.338 302.738 384.176 295.282 374.551 293.29C373.722 279.415 360.4 268.385 344.084 268.385C330.682 268.385 319.283 275.841 315.195 286.199C313.56 286.028 311.891 285.937 310.198 285.937C287.745 285.937 269.542 301.622 269.542 320.962C269.542 324.877 270.29 328.634 271.66 332.151C263.439 335.201 257.59 343.055 257.59 352.253C257.59 364.125 267.319 373.743 279.329 373.743C279.686 373.743 280.031 373.732 280.376 373.72V373.743H439.329V373.732C452.663 373.584 463.428 362.85 463.428 349.635Z" fill="#F6F4F4"/>
<path d="M348.755 503.541C418.082 386.826 591.406 386.826 660.733 503.541L816.715 766.15H504.737H192.759L348.755 503.541Z" fill="#43BA81"/>
<path d="M607.631 529.796C626.585 518.548 645.077 511.313 662.988 507.33L660.719 503.526C591.392 386.811 418.068 386.811 348.741 503.526L314.339 561.451C349.413 573.489 416.993 523.65 470.932 539.179C510.707 550.636 561.408 557.214 607.631 529.796Z" fill="#52C189"/>
<path d="M687.198 400.564C768.659 238.156 972.311 238.156 1053.76 400.564L1237.05 766H870.492H503.934L687.198 400.564Z" fill="#9E964A"/>
<path d="M778.151 710.014C781.688 707.598 784.002 703.6 784.002 699.065C784.002 693.083 779.972 688.011 774.42 686.325C774.435 686.072 774.45 685.833 774.45 685.579C774.45 678.851 768.868 673.407 761.987 673.407C761.151 673.407 760.331 673.496 759.54 673.645C759.525 666.992 755.346 661.607 750.167 661.607C745.062 661.607 740.913 666.873 740.809 673.421C733.928 673.421 728.346 678.866 728.346 685.594C728.346 685.758 728.346 685.937 728.361 686.101C722.331 687.489 717.839 692.77 717.839 699.095C717.839 703.346 719.869 707.12 723.033 709.567C718.078 712.237 715.093 715.653 715.093 719.368C715.093 727.915 730.794 734.837 750.167 734.837C769.539 734.837 785.24 727.915 785.24 719.368C785.24 715.832 782.599 712.61 778.151 710.014Z" fill="#38AF7E"/>
<path d="M749.361 702.018C749.6 700.885 750.734 700.885 750.958 702.018L755.435 723.768L760.406 747.92C760.555 748.666 760.152 749.411 759.6 749.411H750.152H740.704C740.152 749.411 739.749 748.666 739.899 747.92L744.869 723.768L749.361 702.018Z" fill="#D17A39"/>
<path d="M719.913 409.186C734.524 401.25 746.479 390.286 760.807 382.007C775.135 373.727 793.493 368.208 809.851 373.131C838.238 381.678 847.686 416.884 877.312 421.598C896.55 424.656 914.565 412.811 927.177 400.176C939.788 387.541 951.057 372.713 969.011 366.104C997.861 355.498 1024.95 373.772 1047.56 389.779C1007.71 318.652 943.325 281.701 877.954 278.926C877.431 278.911 876.909 278.866 876.387 278.851C875.431 278.822 874.476 278.822 873.521 278.807C872.267 278.777 871.029 278.747 869.775 278.747C798.582 278.851 727.435 319.442 686.749 400.549L678.152 417.689C692.182 420.196 707.585 415.884 719.913 409.186Z" fill="#C5CC36"/>
<path d="M488.065 428.863C486.214 428.863 484.707 427.401 484.707 425.581V381.888C484.707 380.083 486.214 378.606 488.065 378.606C489.916 378.606 491.423 380.068 491.423 381.888V425.581C491.423 427.401 489.916 428.863 488.065 428.863Z" fill="#724E07"/>
<path d="M522.959 406.532H492.811C491.348 406.532 490.154 405.368 490.154 403.936V384.006C490.154 382.574 491.348 381.41 492.811 381.41H510.049C510.96 381.41 511.811 381.873 512.303 382.619L525.213 402.549C526.318 404.264 525.049 406.532 522.959 406.532Z" fill="#F48EA6"/>
<path d="M304.223 592.609C302.984 587.358 301.104 582.525 298.805 578.065C296.85 574.275 293.716 570.382 290.149 570.024C286.313 569.636 282.94 574.022 280.836 578.065C278.522 582.525 276.642 587.358 275.418 592.609C272.94 603.126 272.642 621.4 283.522 621.952C284.925 622.027 286.298 621.654 287.552 620.938C289 620.102 290.641 620.102 292.074 620.938C293.328 621.654 294.701 622.027 296.104 621.952C306.984 621.385 306.686 603.111 304.223 592.609Z" fill="#D5EF3A"/>
<path d="M289.194 604.469C289.373 603.604 290.238 603.604 290.418 604.469L293.835 621.087L297.641 639.54C297.761 640.107 297.447 640.689 297.029 640.689H289.806H282.582C282.164 640.689 281.851 640.122 281.97 639.54L285.776 621.102L289.194 604.469Z" fill="#D17A39"/>
<path d="M656.602 571.982C661.781 568.447 665.169 562.584 665.169 555.931C665.169 547.159 659.258 539.745 651.124 537.254C651.154 536.896 651.169 536.523 651.169 536.15C651.169 526.289 642.99 518.309 632.916 518.309C631.677 518.309 630.483 518.428 629.319 518.652C629.304 508.896 623.17 501.004 615.588 501.004C608.095 501.004 602.021 508.717 601.872 518.309C601.872 518.309 601.872 518.309 601.857 518.309C591.767 518.309 583.603 526.304 583.603 536.15C583.603 536.404 583.618 536.642 583.618 536.881C574.783 538.91 568.201 546.667 568.201 555.916C568.201 562.136 571.186 567.686 575.812 571.266C568.544 575.174 564.171 580.187 564.171 585.632C564.171 598.162 587.185 608.306 615.573 608.306C643.96 608.306 666.974 598.147 666.974 585.632C666.989 580.515 663.124 575.786 656.602 571.982Z" fill="#E5CC61"/>
<path d="M614.409 560.257C614.752 558.601 616.424 558.601 616.752 560.257L623.319 592.136L630.602 627.52C630.826 628.609 630.244 629.713 629.423 629.713H615.573H601.722C600.902 629.713 600.32 628.624 600.543 627.52L607.827 592.136L614.409 560.257Z" fill="#D17A39"/>
<path d="M393.312 674.122C391.506 666.425 388.745 659.339 385.357 652.82C382.491 647.271 377.894 641.557 372.671 641.035C367.059 640.468 362.104 646.883 359.029 652.82C355.641 659.354 352.895 666.44 351.074 674.137C347.447 689.547 347.015 716.324 362.954 717.159C365.014 717.264 367.014 716.727 368.865 715.668C370.984 714.444 373.387 714.444 375.506 715.668C377.357 716.727 379.357 717.264 381.417 717.159C397.372 716.309 396.939 689.532 393.312 674.122Z" fill="#88CDD8"/>
<path d="M371.462 695.813C371.671 694.783 372.716 694.783 372.925 695.813L377.029 715.742L381.581 737.865C381.716 738.551 381.358 739.238 380.85 739.238H372.194H363.537C363.03 739.238 362.656 738.551 362.806 737.865L367.358 715.742L371.462 695.813Z" fill="#D17A39"/>
<path d="M1137.47 567.462C1094.7 576.681 1059.83 606.427 1044.2 645.585C1040.68 654.417 1030.77 659.145 1021.58 656.147C1010.62 652.582 998.803 650.881 986.505 651.433C936.461 653.671 895.91 693.68 894.089 742.609C893.79 750.65 894.537 758.482 896.178 765.985H1237.07L1137.47 567.462Z" fill="#D0D83A"/>
<path d="M1117.43 705.494C1119.34 705.494 1120.89 703.988 1120.89 702.123V657.132C1120.89 655.267 1119.34 653.76 1117.43 653.76C1115.52 653.76 1113.96 655.267 1113.96 657.132V702.123C1113.96 703.988 1115.52 705.494 1117.43 705.494Z" fill="#724E07"/>
<path d="M1081.5 682.491H1112.53C1114.04 682.491 1115.28 681.298 1115.28 679.806V659.295C1115.28 657.818 1114.05 656.609 1112.53 656.609H1094.79C1093.85 656.609 1092.98 657.072 1092.47 657.862L1079.19 678.374C1078.02 680.164 1079.34 682.491 1081.5 682.491Z" fill="#F49138"/>
<path opacity="0.52" d="M540.63 455.819C540.63 453.388 542.6 451.404 545.048 451.404H562.062C572.987 451.404 581.883 455.014 588.733 462.234C595.584 469.454 599.002 478.569 599.002 489.578C599.002 500.587 595.539 509.717 588.599 516.982C581.659 524.246 572.778 527.886 561.928 527.886H545.048C542.615 527.886 540.63 525.917 540.63 523.471V455.819ZM553.615 511.775C553.615 514.207 555.585 516.191 558.032 516.191C576.36 516.191 585.51 507.345 585.51 489.667C585.51 471.99 576.346 463.144 558.032 463.144C555.6 463.144 553.615 465.113 553.615 467.56V511.775Z" fill="#A1E2E2"/>
<path opacity="0.69" d="M844.687 504.987H858.955C860.463 504.987 861.283 506.732 860.328 507.896L829.971 544.683C829.448 545.309 829.433 546.219 829.911 546.876L862.507 590.539C863.388 591.718 862.552 593.389 861.075 593.389H845.567C845 593.389 844.463 593.12 844.135 592.658L815.956 553.961C814.941 552.574 812.747 553.275 812.732 555.006L812.613 591.628C812.613 592.613 811.807 593.404 810.837 593.404H799.389C798.404 593.404 797.613 592.613 797.613 591.628V506.792C797.613 505.808 798.404 505.017 799.389 505.017H810.837C811.822 505.017 812.613 505.808 812.613 506.792V541.043C812.613 542.758 814.792 543.474 815.822 542.117L843.269 505.718C843.612 505.256 844.135 504.987 844.687 504.987Z" fill="#D3C333"/>
<path d="M1031.38 453.939H1001.97V491.889H985.773V453.939H950.774V493.202H934.58V434.785H1047.58V493.202H1031.38V453.939V453.939Z" fill="#43BA81"/>
<path d="M802.179 518.279H806.851C807.88 518.279 808.716 517.443 808.716 516.414V457.325C808.716 456.296 807.88 455.461 806.851 455.461H802.179C801.149 455.461 800.313 456.296 800.313 457.325V516.414C800.328 517.443 801.149 518.279 802.179 518.279Z" fill="#724E07"/>
<path d="M760.912 490.353H798.583C800.419 490.353 801.911 488.891 801.911 487.101V462.203C801.911 460.413 800.419 458.951 798.583 458.951H777.046C775.912 458.951 774.852 459.518 774.24 460.458L758.106 485.356C756.703 487.519 758.285 490.353 760.912 490.353Z" fill="#36A9E2"/>
<path d="M1066 579.144C1066 564.861 1080.05 553.289 1097.39 553.289C1101.76 553.289 1105.93 554.029 1109.71 555.363C1110.64 544.722 1124.09 536.278 1140.56 536.278C1147.44 536.278 1153.79 537.751 1158.93 540.252C1158.85 539.642 1158.81 539.023 1158.81 538.404C1158.81 528.853 1168.02 520.845 1180.42 518.71C1181.49 503.825 1198.64 492 1219.65 492C1236.91 492 1251.57 499.991 1256.84 511.102C1258.95 510.919 1261.1 510.814 1263.28 510.814C1292.18 510.814 1315.61 527.633 1315.61 548.382C1315.61 552.583 1314.65 556.617 1312.88 560.382C1323.47 563.667 1331 572.086 1331 581.95C1331 594.682 1318.47 605 1303.01 605C1302.56 605 1302.11 604.991 1301.67 604.974V605H1097.02V604.991C1079.86 604.826 1066 593.323 1066 579.144Z" fill="#F6F4F4"/>
<path d="M446.61 543.431C454.296 543.431 460.526 537.201 460.526 529.515C460.526 521.83 454.296 515.599 446.61 515.599C438.925 515.599 432.694 521.83 432.694 529.515C432.694 537.201 438.925 543.431 446.61 543.431Z" fill="#FFE5D2"/>
<path d="M456.036 510.826C455.753 510.315 455.21 510 454.623 510H447.393H445.817H438.587C438 510 437.467 510.315 437.174 510.826L429.237 524.992C428.628 526.069 429.411 527.395 430.651 527.395H445.817H447.393H462.559C463.798 527.395 464.57 526.069 463.972 524.992L456.036 510.826Z" fill="#AA8A3A"/>
<path d="M458.809 571.557L446.589 561.272C430.694 549.02 423.378 567.122 423.378 567.122L418.507 580.222L417.377 583.267L416.246 586.311L411.397 599.422C410.854 600.89 411.332 602.423 412.463 602.847L421.084 606.13C422.236 606.565 423.617 605.706 424.161 604.228L430.151 588.007C431.205 585.18 432.249 582.353 433.304 579.537C433.706 578.461 434.108 577.385 434.51 576.298C434.858 575.363 435.108 574.352 435.761 573.569C437.859 571.09 440.512 574.221 442.132 575.58C443.708 576.906 445.284 578.233 446.861 579.559C447.296 579.929 447.741 580.299 448.176 580.668C448.72 581.125 449.013 581.821 448.959 582.538L447.85 596.128C447.752 597.335 448.644 598.4 449.85 598.509L459.037 599.335C460.255 599.444 461.342 598.542 461.44 597.313L462.733 581.407C463.168 575.95 459.918 572.547 458.809 571.557Z" fill="#F78B61"/>
<path d="M457.189 570.187H422.845C422.508 570.187 422.236 569.916 422.236 569.579V556.01C422.236 546.193 430.194 538.235 440.012 538.235C449.829 538.235 457.787 546.193 457.787 556.01V569.579C457.798 569.905 457.526 570.187 457.189 570.187Z" fill="#FFDC46"/>
<path d="M426.28 608.631L413.43 607.185C411.071 606.924 409.375 604.793 409.636 602.434C409.897 600.075 412.028 598.379 414.387 598.64L427.237 600.086C429.596 600.346 431.292 602.477 431.031 604.837C430.76 607.196 428.64 608.903 426.28 608.631Z" fill="#7C73BF"/>
<path d="M464.506 600.281L452.068 603.825C449.785 604.478 447.404 603.151 446.752 600.868C446.1 598.585 447.426 596.204 449.709 595.552L462.146 592.007C464.429 591.355 466.81 592.682 467.463 594.965C468.104 597.248 466.789 599.629 464.506 600.281Z" fill="#7C73BF"/>
<path d="M435.934 547.813L415.832 564.447C415.223 564.958 414.289 564.838 413.745 564.186L410.516 560.283C409.983 559.631 410.038 558.728 410.646 558.217L430.748 541.551C431.357 541.04 432.292 541.159 432.836 541.811L436.065 545.715C436.608 546.367 436.543 547.302 435.934 547.813Z" fill="#FFDC46"/>
<path d="M414.941 564.643C414.267 566.969 411.69 567.98 409.581 567.165C407.472 566.35 406.439 563.892 407.309 561.696C408.179 559.5 410.56 558.359 412.669 559.174C414.778 559.989 415.593 562.381 414.941 564.643Z" fill="#FFE5D2"/>
<path d="M408.973 559.62L414.593 565.48L418.083 562.588L416.289 556.402L412.897 556.369L408.973 559.62Z" fill="#FFDC46"/>
<path d="M476.029 546.921L472.485 543.497C471.854 542.888 470.843 542.899 470.235 543.54L463.809 550.194C463.418 550.607 462.831 550.77 462.276 550.629L453.307 548.389C452.448 548.172 451.59 548.694 451.372 549.552L450.176 554.336C449.959 555.195 450.481 556.054 451.34 556.271L462.461 559.044C463.07 559.185 465.853 559.696 467.821 557.717L476.062 549.183C476.681 548.53 476.66 547.53 476.029 546.921Z" fill="#FFDC46"/>
<path d="M478.572 547.694C479.895 545.611 478.983 542.662 476.534 541.108C474.086 539.553 471.029 539.982 469.707 542.065C468.384 544.149 469.296 547.098 471.744 548.652C474.193 550.207 477.25 549.778 478.572 547.694Z" fill="#FFE5D2"/>
<path d="M448.405 565.48H427.096C425.27 565.48 423.78 564.001 423.78 562.164V548.585C423.78 546.758 425.259 545.269 427.096 545.269H448.405C450.231 545.269 451.721 546.747 451.721 548.585V562.164C451.71 563.99 450.231 565.48 448.405 565.48Z" fill="#D17A39"/>
<path d="M448.404 545.269H427.095C426.758 545.269 426.443 545.334 426.139 545.432C426.226 551.781 431.39 556.902 437.761 556.902C444.131 556.902 449.295 551.781 449.382 545.432C449.056 545.334 448.741 545.269 448.404 545.269Z" fill="#E29969"/>
<path d="M431.249 545.269C431.455 542.051 433.651 539.409 436.63 538.539C433.88 539.072 431.357 540.235 429.216 541.877C428.618 542.877 428.237 544.029 428.161 545.269H431.249Z" fill="#D17A39"/>
<path d="M445.958 545.291H448.295C448.535 545.291 448.763 545.334 448.991 545.389C449.426 544.16 450.154 543.073 451.111 542.225C450.644 541.844 450.144 541.485 449.633 541.148C447.937 541.996 446.621 543.486 445.958 545.291Z" fill="#D17A39"/>
<path d="M436.968 558.239C437.73 558.239 438.348 557.621 438.348 556.858C438.348 556.096 437.73 555.478 436.968 555.478C436.205 555.478 435.587 556.096 435.587 556.858C435.587 557.621 436.205 558.239 436.968 558.239Z" fill="#FFDC46"/>
<path d="M973.742 262.439C971.593 253.279 968.309 244.836 964.279 237.064C960.862 230.47 955.384 223.668 949.175 223.041C942.489 222.37 936.593 230.008 932.937 237.064C928.907 244.836 925.624 253.279 923.474 262.439C919.146 280.787 918.639 312.666 937.623 313.651C940.071 313.77 942.459 313.129 944.653 311.876C947.175 310.428 950.026 310.428 952.548 311.876C954.742 313.143 957.13 313.785 959.578 313.651C978.578 312.666 978.07 280.787 973.742 262.439Z" fill="#52C189"/>
<path d="M947.504 276.67C947.832 275.118 949.399 275.118 949.713 276.67L955.907 306.744L962.787 340.129C962.996 341.159 962.444 342.188 961.683 342.188H948.623H935.564C934.803 342.188 934.236 341.159 934.46 340.129L941.34 306.744L947.504 276.67Z" fill="#D17A39"/>
</g>
<path d="M1415.24 217L1408.35 225.068C1408.19 225.248 1407.99 225.381 1407.78 225.449L1396.08 228.965C1395.58 229.116 1395.18 229.656 1395.22 230.157L1395.32 231.64C1395.35 232.142 1395.79 232.431 1396.29 232.281L1401.65 230.678C1402.52 230.421 1402.97 231.382 1402.33 232.128L1399.31 235.667C1398.93 236.105 1398.91 236.704 1399.26 236.998L1400.27 237.864C1400.62 238.159 1401.21 238.049 1401.58 237.613L1404.43 234.267C1405.07 233.522 1406.09 233.824 1405.97 234.715L1405.27 239.959C1405.2 240.488 1405.54 240.872 1406.05 240.831L1407.53 240.694C1408.03 240.643 1408.5 240.178 1408.57 239.659L1410.17 227.849C1410.2 227.634 1410.3 227.407 1410.45 227.228L1417.51 218.968C1417.89 218.529 1417.91 217.931 1417.56 217.636L1416.55 216.77C1416.2 216.454 1415.61 216.564 1415.24 217Z" fill="#D17A39"/>
<path d="M1413 210.949L1402.4 211.436C1402.16 211.443 1401.93 211.394 1401.74 211.283L1391.17 205.15C1390.71 204.886 1390.06 204.962 1389.72 205.339L1388.71 206.423C1388.36 206.79 1388.45 207.305 1388.91 207.569L1393.75 210.374C1394.53 210.827 1394.13 211.819 1393.16 211.861L1388.51 212.079C1387.93 212.11 1387.49 212.492 1387.51 212.952L1387.57 214.287C1387.59 214.746 1388.06 215.085 1388.65 215.065L1393.04 214.868C1394.03 214.824 1394.51 215.78 1393.77 216.301L1389.45 219.361C1389.02 219.665 1388.98 220.191 1389.35 220.525L1390.46 221.507C1390.84 221.841 1391.5 221.861 1391.93 221.559L1401.64 214.661C1401.82 214.532 1402.05 214.461 1402.29 214.442L1413.14 213.946C1413.72 213.915 1414.16 213.532 1414.14 213.073L1414.08 211.738C1414.06 211.278 1413.57 210.93 1413 210.949Z" fill="#D17A39"/>
<path d="M1510.1 176.436C1510.69 176.491 1510.98 177.191 1510.6 177.653L1505.72 183.332L1499.91 190.105L1496.83 182.574L1493.75 175.043L1502.64 175.801L1510.1 176.436Z" fill="#D17A39"/>
<path d="M1491.57 208.924C1496.07 201.011 1496.66 192.861 1492.9 190.721C1489.13 188.582 1482.44 193.262 1477.94 201.175C1473.44 209.088 1472.84 217.237 1476.61 219.377C1480.37 221.517 1487.07 216.837 1491.57 208.924Z" fill="#43BA81"/>
<path d="M1463.12 217.987C1488.26 207.686 1505.25 191.07 1501.07 180.875C1496.89 170.679 1473.13 170.765 1447.99 181.066C1422.86 191.368 1405.87 207.984 1410.05 218.179C1414.23 228.374 1437.99 228.289 1463.12 217.987Z" fill="#FCFF7B"/>
<path d="M1453.92 207.318C1452.69 206.621 1451.14 206.649 1449.45 207.296C1448.86 207.516 1448.21 207.526 1447.64 207.235C1443.49 205.076 1435.72 205.531 1427.76 208.793C1417.31 213.082 1410.48 220.587 1412.52 225.559C1413.53 228.014 1416.31 229.057 1418.75 229.442C1422.51 230.057 1426.46 229.483 1430.11 228.496C1430.85 228.295 1431.58 228.073 1432.3 227.842C1432.97 227.62 1433.66 227.185 1434.4 227.193C1435.33 227.213 1435.32 227.821 1435.25 228.561C1435.21 228.997 1435.17 229.433 1435.17 229.875C1435.15 230.77 1435.21 231.664 1435.41 232.536C1435.71 233.896 1436.38 235.25 1437.63 235.966C1441.4 238.101 1448.09 233.43 1452.59 225.509C1457.08 217.614 1457.67 209.467 1453.92 207.318Z" fill="#52C189"/>
<path d="M1480.46 184.668C1482.32 184.357 1483.57 182.597 1483.26 180.737C1482.95 178.878 1481.19 177.623 1479.33 177.935C1477.47 178.247 1476.21 180.007 1476.53 181.866C1476.84 183.726 1478.6 184.98 1480.46 184.668Z" fill="#D17A39"/>
<defs>
<clipPath id="clip0">
<rect width="51.17" height="51.17" fill="white" transform="translate(48 357)"/>
</clipPath>
<clipPath id="clip1">
<rect width="51.17" height="51.17" fill="white" transform="translate(1873.17 408) rotate(-180)"/>
</clipPath>
<clipPath id="clip2">
<rect width="1295" height="543" fill="white" transform="translate(196 223)"/>
</clipPath>
</defs>
</svg>
